<svg width="69" height="69" viewBox="0 0 69 69" fill="none" xmlns="http://www.w3.org/2000/svg">
<circle cx="34.5" cy="34.5" r="34.5" fill="#9664C1"/>
<g clip-path="url(#clip0_2132_5)">
<path fill-rule="evenodd" clip-rule="evenodd" d="M23.4785 18.0355C22.8389 18.1421 22.2969 18.4353 21.8261 18.9328C21.4441 19.3326 21.2398 19.6879 21.0887 20.1854L21.0088 20.4786V32.6051C21.0088 44.234 21.0088 44.7404 21.0799 44.9714C21.4086 46.1174 22.3947 47.0147 23.5229 47.1746C23.6739 47.2013 25.6906 47.2101 28.72 47.2101C33.615 47.2101 33.6683 47.2101 33.8282 47.1302C34.1836 46.9703 34.3701 46.6949 34.3701 46.3129C34.3701 45.9575 34.2102 45.691 33.8904 45.5133L33.7394 45.4334L28.72 45.4156L23.7006 45.3978L23.4963 45.3001C23.2386 45.1757 23.0254 44.9714 22.9011 44.7049L22.8033 44.5006V20.6651L22.9011 20.4786C22.9544 20.3809 23.061 20.2298 23.1498 20.141C23.2298 20.061 23.3808 19.9455 23.4874 19.8922L23.6739 19.7945H31.4207L39.1674 19.7767L39.3806 19.8567C39.585 19.9278 39.7182 20.0521 41.7882 22.1221C43.5916 23.9255 44.0002 24.3431 44.0802 24.5119L44.1779 24.7162L44.1957 26.6795L44.2135 28.6429L44.3289 28.8294C44.6399 29.3269 45.3151 29.4069 45.7237 28.9893C45.9902 28.7228 45.9902 28.7139 45.9813 26.493V24.5385L45.8659 24.2009C45.7504 23.8189 45.5727 23.4813 45.3417 23.1793C45.2529 23.0638 44.1868 21.9799 42.9697 20.7717C40.9797 18.7906 40.7221 18.5508 40.4645 18.4086C40.1269 18.2221 39.7626 18.0888 39.425 18.0355C39.1408 17.9911 23.7628 17.9911 23.4874 18.0355M32.1314 26.4841C31.9271 26.5463 31.705 26.7595 31.6072 26.9638C31.5451 27.1059 31.5362 27.328 31.5362 32.0543V36.9848H29.0753V31.3258L28.9776 31.1303C28.64 30.4552 27.6717 30.5085 27.3785 31.2103C27.3341 31.3258 27.3252 31.7611 27.3252 34.1597V36.9759H26.6412C26.268 36.9759 25.8949 36.9937 25.815 37.0203C25.6106 37.0736 25.3263 37.3579 25.2553 37.5711C25.1043 38.0064 25.2819 38.4506 25.6995 38.6727L25.8505 38.7527H32.6822L32.8599 38.6461C32.9576 38.5928 33.082 38.4862 33.1353 38.4151C33.3485 38.1397 33.3396 38.3885 33.3396 32.6495C33.3396 29.2558 33.3218 27.2925 33.3041 27.1592C33.2063 26.6262 32.6644 26.3064 32.1492 26.4752M36.369 28.5807C36.2357 28.6073 35.9959 28.7939 35.8804 28.9627L35.7649 29.1315V31.8233L35.8804 32.0098C36.1736 32.4807 36.7954 32.5784 37.213 32.2142C37.515 31.9476 37.5239 31.9032 37.5239 30.464C37.5239 29.2558 37.5239 29.2114 37.4439 29.0693C37.3373 28.8738 37.1508 28.6962 36.9731 28.6251C36.8487 28.5718 36.5467 28.554 36.369 28.5895M41.7349 31.8055C38.1458 32.3474 35.3118 35.1903 34.7877 38.7793C34.6988 39.4101 34.6899 40.4495 34.7699 41.0803C35.2319 44.5716 37.897 47.4233 41.3528 48.1074C42.5699 48.3473 43.9647 48.3029 45.1551 47.9742C46.0702 47.7254 47.0652 47.2457 47.8914 46.6416L48.149 46.455L50.5654 48.8625C52.1912 50.4794 53.0263 51.2878 53.1329 51.3323C53.4971 51.501 53.8613 51.4389 54.1456 51.1546C54.4299 50.8703 54.501 50.5061 54.3322 50.1507C54.2878 50.0619 53.355 49.1024 51.8447 47.601L49.4194 45.1935L49.6326 44.9092C50.4055 43.8609 50.9119 42.6705 51.1429 41.3645C51.2406 40.796 51.2761 39.7655 51.2228 39.1791C51.0185 37.1714 50.1568 35.3946 48.6909 33.9909C47.4294 32.7827 45.8037 32.001 44.0713 31.77C43.4583 31.69 42.339 31.6989 41.7437 31.7877M42.5255 33.5201C39.967 33.6889 37.7638 35.3502 36.8665 37.7844C36.4223 38.9748 36.369 40.4229 36.7066 41.6755C37.1952 43.4789 38.4301 44.9714 40.118 45.8154C41.4683 46.4905 43.0941 46.6505 44.6132 46.2596C47.4561 45.5222 49.4461 42.9459 49.4461 39.9876C49.4461 38.5572 49.0107 37.2424 48.1668 36.1142C46.8431 34.3463 44.7287 33.378 42.5255 33.5201Z" fill="#2A0C49"/>
</g>
<defs>
<clipPath id="clip0_2132_5">
<rect width="33.4122" height="33.43" fill="white" transform="translate(21 18)"/>
</clipPath>
</defs>
</svg>
