<svg width="124" height="124" viewBox="0 0 124 124" fill="none" xmlns="http://www.w3.org/2000/svg">
<path d="M61.7725 0C95.8883 8.24758e-05 123.545 27.6566 123.545 61.7725C123.545 95.8882 95.8882 123.545 61.7725 123.545C27.6566 123.545 8.24651e-05 95.8883 0 61.7725C0 27.6566 27.6566 0 61.7725 0ZM89.834 69.3369C89.834 69.261 89.7499 69.2119 89.6875 69.252L89.6826 69.2559L62.4355 85.0244C62.3955 85.0467 62.3551 85.0557 62.3105 85.0557C62.2705 85.0556 62.2305 85.0467 62.1904 85.0244L46.4902 75.9395C46.4235 75.8993 46.3431 75.9487 46.3428 76.0244V83.8486C46.3428 83.8843 46.3605 83.9157 46.3916 83.9336L60.5889 92.1465C61.1242 92.4548 61.7177 92.6113 62.3154 92.6113C62.913 92.6113 63.5107 92.4547 64.0459 92.1465L88.1074 78.2246C89.1782 77.6077 89.834 76.463 89.834 75.2246V69.3369ZM50.7412 36.1641L36.5225 44.3906C35.9872 44.699 35.5542 45.1413 35.2598 45.6553C34.9609 46.1738 34.7959 46.7688 34.7959 47.3857V75.2295C34.796 76.3783 35.3673 77.4516 36.3086 78.0908L41.6133 81.1572C41.6802 81.193 41.7607 81.1483 41.7607 81.0723V49.5586C41.7563 49.5139 41.7648 49.4733 41.7871 49.4375C41.8093 49.402 41.8405 49.3709 41.876 49.3486L57.6035 40.251C57.6704 40.2108 57.6704 40.1168 57.6035 40.0811V40.0762L50.8398 36.1641C50.8087 36.1463 50.7724 36.1462 50.7412 36.1641ZM64.042 30.4736C62.9713 29.8568 61.6557 29.8568 60.585 30.4736L55.498 33.415C55.4315 33.4509 55.4315 33.5491 55.498 33.585L62.4053 37.582C62.4082 37.5832 62.4283 37.5906 62.4365 37.5947L82.75 49.3486C82.7855 49.3709 82.8166 49.402 82.8389 49.4375C82.8612 49.4733 82.8701 49.5139 82.8701 49.5586V67.7451C82.8701 67.8211 82.9551 67.8703 83.0176 67.8301L89.7812 63.918C89.8124 63.9001 89.8301 63.8687 89.8301 63.833V47.3906C89.8301 46.7737 89.6651 46.1788 89.3662 45.6602C89.0673 45.1417 88.6348 44.6991 88.0996 44.3906L64.042 30.4736Z" fill="white"/>
</svg>
