<svg width="462" height="121" viewBox="0 0 462 121" fill="none" xmlns="http://www.w3.org/2000/svg">
<rect x="1.5" y="1.5" width="458.487" height="117.262" rx="18.5" stroke="url(#paint0_linear_2454_980)" stroke-width="3"/>
<path d="M90.6443 45.3265C90.348 44.8124 89.919 44.3736 89.3882 44.0678L65.5393 30.271C64.4778 29.6594 63.173 29.6594 62.1115 30.271L57.0693 33.1872C57.0029 33.2227 57.0029 33.3202 57.0693 33.3556L63.9161 37.3178C63.9161 37.3178 63.9382 37.3267 63.9471 37.3311L84.085 48.9829C84.1204 49.005 84.1514 49.0361 84.1735 49.0715C84.1956 49.107 84.2044 49.1469 84.2044 49.1912V67.2206C84.2044 67.2959 84.2885 67.3447 84.3504 67.3048L91.0557 63.4268C91.0866 63.409 91.1043 63.378 91.1043 63.3426V47.0417C91.1043 46.43 90.9407 45.8406 90.6443 45.3265Z" fill="#9771C1"/>
<path d="M90.9582 68.7185L63.9469 84.3502C63.9071 84.3724 63.8673 84.3812 63.8231 84.3812C63.7833 84.3812 63.7435 84.3724 63.7037 84.3502L48.1391 75.3444C48.0728 75.3045 47.9932 75.3532 47.9932 75.4286V83.1846C47.9932 83.22 48.0109 83.2511 48.0418 83.2688L62.1158 91.4104C62.6466 91.7162 63.2348 91.8713 63.8275 91.8713C64.4202 91.8713 65.0129 91.7162 65.5437 91.4104L89.3969 77.6091C90.4584 76.9975 91.1086 75.8629 91.1086 74.6353V68.7983C91.1086 68.723 91.0246 68.6742 90.9627 68.7141L90.9582 68.7185Z" fill="#61368F"/>
<path d="M59.1563 39.7908L52.451 35.9128C52.4201 35.8951 52.3847 35.8951 52.3537 35.9128L38.2576 44.0677C37.7268 44.3735 37.2978 44.8123 37.0059 45.322C36.7095 45.8361 36.5459 46.4255 36.5459 47.0372V74.6397C36.5459 75.7787 37.112 76.8424 38.0453 77.4761L43.3043 80.5165C43.3706 80.5519 43.4502 80.5076 43.4502 80.4323V49.1911C43.4458 49.1468 43.4546 49.1069 43.4767 49.0714C43.4989 49.036 43.5298 49.005 43.5652 48.9828L59.1563 39.9637C59.2227 39.9238 59.2227 39.8307 59.1563 39.7953V39.7908Z" fill="#7441AC"/>
<path d="M116.61 75.7783C115.322 75.4027 114.238 74.9485 113.365 74.407C113.003 74.1799 112.862 73.7257 113.047 73.3414L114.211 70.8958C114.423 70.4504 114.969 70.2844 115.393 70.5377C116.16 70.9744 117.024 71.35 117.994 71.647C119.308 72.0487 120.604 72.2496 121.882 72.2496C124.801 72.2496 126.256 71.4286 126.256 69.7953C126.256 69.018 125.886 68.4764 125.145 68.1707C124.404 67.865 123.214 67.5768 121.574 67.2973C119.854 67.0178 118.452 66.7034 117.377 66.3365C116.292 65.9784 115.357 65.3408 114.564 64.4412C113.77 63.5416 113.373 62.2838 113.373 60.6767C113.373 58.5718 114.202 56.886 115.851 55.6196C117.5 54.3618 119.74 53.7242 122.553 53.7242C123.981 53.7242 125.418 53.8989 126.847 54.2483C127.94 54.5103 128.875 54.8422 129.668 55.244C130.065 55.4449 130.224 55.934 130.039 56.3358L128.883 58.7727C128.681 59.2006 128.16 59.3753 127.746 59.157C126.168 58.3359 124.431 57.9254 122.526 57.9254C121.098 57.9254 120.004 58.1525 119.264 58.6154C118.523 59.0696 118.153 59.6723 118.153 60.4234C118.153 61.2532 118.549 61.8471 119.343 62.1878C120.137 62.5371 121.362 62.8603 123.037 63.166C124.704 63.4455 126.071 63.7599 127.138 64.1268C128.205 64.4849 129.122 65.0963 129.889 65.961C130.656 66.8169 131.044 68.0397 131.044 69.6206C131.044 71.6994 130.197 73.3676 128.504 74.6166C126.811 75.8656 124.51 76.4858 121.591 76.4858C119.898 76.4858 118.25 76.2499 116.636 75.7783" fill="white"/>
<path d="M138.9 45.2433H142.542C143.327 45.2433 143.679 46.2128 143.089 46.7106L138.847 50.7459C138.697 50.8769 138.504 50.9468 138.301 50.9468H135.735C135.003 50.9468 134.624 50.0908 135.118 49.5493L138.283 45.514C138.442 45.3394 138.671 45.2433 138.9 45.2433Z" fill="white"/>
<path d="M135.487 53.9777H138.688C139.155 53.9777 139.525 54.3532 139.525 54.8074V75.3504C139.525 75.8133 139.146 76.1802 138.688 76.1802H135.487C135.02 76.1802 134.649 75.8046 134.649 75.3504V54.8074C134.649 54.3445 135.029 53.9777 135.487 53.9777Z" fill="white"/>
<path d="M162.213 56.1874C163.8 57.8207 164.594 60.2488 164.594 63.463V75.3591C164.594 75.822 164.214 76.1888 163.756 76.1888H160.555C160.088 76.1888 159.717 75.8133 159.717 75.3591V64.1268C159.717 62.1878 159.285 60.7204 158.43 59.7422C157.575 58.7552 156.349 58.2661 154.762 58.2661C152.963 58.2661 151.544 58.8426 150.503 59.9955C149.463 61.1484 148.942 62.7992 148.942 64.9653V75.3591C148.942 75.822 148.563 76.1888 148.105 76.1888H144.904C144.437 76.1888 144.066 75.8133 144.066 75.3591V54.8161C144.066 54.3532 144.446 53.9863 144.904 53.9863H147.867C148.334 53.9863 148.704 54.3619 148.704 54.8161V56.8512C149.507 55.8293 150.53 55.0519 151.746 54.5191C152.972 53.9951 154.348 53.733 155.882 53.733C158.509 53.733 160.617 54.5541 162.213 56.1874Z" fill="white"/>
<path d="M182.405 71.1754C183.34 70.6077 184.081 69.7954 184.636 68.7385C185.183 67.6817 185.456 66.4676 185.456 65.0789C185.456 63.6901 185.183 62.4761 184.636 61.4192C184.09 60.3624 183.349 59.5588 182.405 58.9824C181.471 58.4146 180.413 58.1264 179.24 58.1264C178.067 58.1264 177.018 58.4146 176.074 58.9824C175.14 59.5501 174.399 60.3624 173.852 61.4192C173.306 62.4761 173.032 63.6901 173.032 65.0789C173.032 66.4676 173.306 67.6817 173.852 68.7385C174.399 69.7954 175.14 70.6077 176.074 71.1754C177.009 71.7431 178.067 72.0314 179.24 72.0314C180.413 72.0314 181.462 71.7519 182.405 71.1754ZM190.253 46.1604V75.3591C190.253 75.822 189.874 76.1889 189.415 76.1889H186.409C185.941 76.1889 185.571 75.8133 185.571 75.3591V73.324C184.76 74.3809 183.772 75.167 182.582 75.691C181.4 76.2151 180.086 76.4858 178.658 76.4858C176.656 76.4858 174.849 76.0142 173.253 75.0709C171.657 74.1276 170.396 72.7912 169.488 71.0531C168.58 69.3237 168.121 67.3323 168.121 65.0876C168.121 62.8429 168.58 60.8602 169.488 59.1396C170.396 57.4189 171.657 56.0913 173.253 55.148C174.858 54.2047 176.656 53.7331 178.658 53.7331C180.034 53.7331 181.303 53.9864 182.45 54.4842C183.596 54.9821 184.575 55.7332 185.377 56.7289V46.1604C185.377 45.6975 185.756 45.3307 186.215 45.3307H189.415C189.883 45.3307 190.253 45.7063 190.253 46.1604Z" fill="white"/>
<path d="M196.487 53.9777H199.688C200.155 53.9777 200.525 54.3532 200.525 54.8074V75.3504C200.525 75.8133 200.146 76.1802 199.688 76.1802H196.487C196.02 76.1802 195.649 75.8046 195.649 75.3504V54.8074C195.649 54.3445 196.029 53.9777 196.487 53.9777Z" fill="white"/>
<path d="M241.104 70.1185C242.277 68.8433 242.859 67.1663 242.859 65.0875C242.859 63.0088 242.277 61.3318 241.104 60.0566C239.931 58.7814 238.45 58.1438 236.651 58.1438C234.852 58.1438 233.38 58.7814 232.216 60.0566C231.061 61.3318 230.479 63.0088 230.479 65.0875C230.479 67.1663 231.061 68.8433 232.216 70.1185C233.371 71.3937 234.852 72.0313 236.651 72.0313C238.45 72.0313 239.931 71.3937 241.104 70.1185ZM230.955 75.0271C229.262 74.0576 227.939 72.7038 226.987 70.9744C226.035 69.245 225.559 67.2798 225.559 65.0875C225.559 62.8952 226.035 60.9388 226.987 59.2181C227.939 57.4974 229.262 56.1524 230.955 55.1829C232.648 54.2134 234.544 53.7242 236.66 53.7242C238.776 53.7242 240.707 54.2134 242.4 55.1829C244.093 56.1524 245.416 57.4974 246.368 59.2181C247.32 60.9388 247.796 62.8952 247.796 65.0875C247.796 67.2798 247.32 69.245 246.368 70.9744C245.416 72.7038 244.093 74.0576 242.4 75.0271C240.707 75.9966 238.794 76.4858 236.66 76.4858C234.526 76.4858 232.648 75.9966 230.955 75.0271Z" fill="white"/>
<path d="M270.043 56.1874C271.63 57.8207 272.424 60.2488 272.424 63.463V75.3591C272.424 75.822 272.044 76.1888 271.586 76.1888H268.385C267.918 76.1888 267.548 75.8133 267.548 75.3591V64.1268C267.548 62.1878 267.115 60.7204 266.26 59.7422C265.405 58.7552 264.179 58.2661 262.592 58.2661C260.793 58.2661 259.374 58.8426 258.333 59.9955C257.293 61.1484 256.773 62.7992 256.773 64.9653V75.3591C256.773 75.822 256.393 76.1888 255.935 76.1888H252.734C252.267 76.1888 251.896 75.8133 251.896 75.3591V54.8161C251.896 54.3532 252.276 53.9863 252.734 53.9863H255.697C256.164 53.9863 256.535 54.3619 256.535 54.8161V56.8512C257.337 55.8293 258.36 55.0519 259.577 54.5191C260.802 53.9951 262.178 53.733 263.712 53.733C266.34 53.733 268.447 54.5541 270.043 56.1874Z" fill="white"/>
<path d="M282.757 59.3666C281.673 60.3536 281.02 61.6637 280.782 63.297H292.615C292.404 61.6899 291.769 60.3885 290.702 59.3841C289.635 58.3883 288.304 57.8905 286.716 57.8905C285.129 57.8905 283.833 58.3796 282.749 59.3666M296.398 66.747H280.817C281.1 68.3804 281.849 69.6818 283.066 70.6338C284.274 71.5946 285.782 72.0662 287.572 72.0662C289.547 72.0662 291.222 71.4635 292.598 70.267C292.959 69.9525 293.506 69.9875 293.814 70.363L295.41 72.3195C295.675 72.6427 295.657 73.1143 295.375 73.42C294.52 74.3371 293.497 75.0533 292.298 75.5599C290.869 76.1713 289.256 76.477 287.457 76.477C285.165 76.477 283.145 75.9879 281.408 75.0184C279.662 74.0489 278.313 72.6951 277.37 70.9657C276.418 69.2363 275.941 67.2711 275.941 65.0788C275.941 62.8865 276.4 60.965 277.326 59.2356C278.252 57.5062 279.53 56.1524 281.17 55.1829C282.81 54.2134 284.662 53.7242 286.716 53.7242C288.771 53.7242 290.561 54.2046 292.166 55.1567C293.77 56.1174 295.014 57.4625 295.913 59.1919C296.812 60.9213 297.262 62.9302 297.262 65.2011C297.262 65.402 297.262 65.6553 297.236 65.9435C297.209 66.3889 296.848 66.7383 296.398 66.7383" fill="white"/>
<path d="M313.689 74.407C313.822 74.7651 313.689 75.1756 313.363 75.394C312.905 75.6997 312.393 75.9355 311.811 76.1102C310.991 76.3635 310.127 76.4858 309.21 76.4858C306.917 76.4858 305.145 75.8482 303.902 74.573C302.65 73.2978 302.024 71.4374 302.024 69.0005V58.3098H299.431C298.964 58.3098 298.594 57.9342 298.594 57.48V54.982C298.594 54.5191 298.973 54.1522 299.431 54.1522H302.024V49.9074C302.024 49.4445 302.403 49.0776 302.861 49.0776H306.062C306.53 49.0776 306.9 49.4532 306.9 49.9074V54.1522H311.644C312.111 54.1522 312.481 54.5278 312.481 54.982V57.48C312.481 57.9429 312.102 58.3098 311.644 58.3098H306.9V68.8782C306.9 69.9613 307.147 70.7823 307.641 71.35C308.134 71.9178 308.849 72.206 309.792 72.206C310.524 72.206 311.176 72.0662 311.741 71.7955C312.182 71.5859 312.711 71.8042 312.878 72.2584L313.672 74.4158L313.689 74.407Z" fill="white"/>
<path d="M195.509 46.6233L197.863 45.287C198.048 45.1822 198.277 45.1822 198.463 45.287L200.817 46.6233C201.002 46.7281 201.117 46.929 201.117 47.1386V49.7939C201.117 50.0035 201.002 50.2044 200.817 50.3092L198.463 51.6455C198.277 51.7503 198.048 51.7503 197.863 51.6455L195.509 50.3092C195.324 50.2044 195.209 50.0035 195.209 49.7939V47.1386C195.209 46.929 195.324 46.7281 195.509 46.6233Z" fill="white"/>
<path d="M221.044 70.0749C220.815 69.8565 220.453 69.8652 220.242 70.1011C219.819 70.5815 219.342 70.9658 218.822 71.2627C217.923 71.778 216.944 72.0313 215.877 72.0313C214.025 72.0313 212.509 71.4025 211.327 70.136C210.146 68.8783 209.546 67.1926 209.546 65.0789C209.546 62.9652 210.146 61.2882 211.345 60.0217C212.544 58.764 214.052 58.1264 215.877 58.1264C216.944 58.1264 217.932 58.3797 218.822 58.895C219.36 59.2007 219.836 59.5937 220.268 60.0829C220.506 60.3449 220.921 60.3449 221.141 60.0654C221.741 59.3055 222.799 57.9692 223.31 57.3228C223.478 57.1132 223.478 56.8075 223.293 56.6066C222.728 55.9952 222.076 55.4712 221.326 55.0432C219.774 54.1523 217.976 53.7156 215.921 53.7156C213.734 53.7156 211.786 54.2047 210.084 55.1742C208.382 56.1437 207.042 57.4888 206.081 59.2094C205.12 60.9301 204.635 62.8866 204.635 65.0789C204.635 67.2712 205.12 69.2276 206.081 70.9658C207.042 72.6951 208.382 74.049 210.102 75.0185C211.821 75.988 213.761 76.4771 215.921 76.4771C217.949 76.4771 219.739 76.0229 221.291 75.1233C222.182 74.608 222.94 73.9529 223.584 73.1843C223.769 72.9659 223.742 72.634 223.531 72.4331C222.922 71.8479 221.705 70.6863 221.044 70.0661" fill="white"/>
<path d="M419.412 40.125H338.979C335.083 40.125 331.925 43.2534 331.925 47.1124V77.3068C331.925 81.1658 335.083 84.2942 338.979 84.2942H419.412C423.308 84.2942 426.466 81.1658 426.466 77.3068V47.1124C426.466 43.2534 423.308 40.125 419.412 40.125Z" fill="url(#paint1_linear_2454_980)"/>
<path d="M366.162 59.4627C366.162 63.4019 363.279 65.7863 358.517 65.7863H353.985V71.2802H351.366V53.1304H358.517C363.279 53.1304 366.162 55.5148 366.162 59.454V59.4627ZM363.543 59.4627C363.543 56.8686 361.788 55.3925 358.438 55.3925H353.985V63.5329H358.438C361.788 63.5329 363.543 62.0568 363.543 59.4627Z" fill="white"/>
<path d="M382.263 71.289L378.313 65.7165C377.943 65.7427 377.555 65.7689 377.158 65.7689H372.626V71.289H370.007V53.1392H377.158C381.919 53.1392 384.803 55.5236 384.803 59.4628C384.803 62.2665 383.339 64.2841 380.773 65.1925L385.12 71.289H382.263ZM382.184 59.4628C382.184 56.8687 380.429 55.3926 377.078 55.3926H372.626V63.5591H377.078C380.429 63.5591 382.184 62.0569 382.184 59.4628Z" fill="white"/>
<path d="M387.545 62.2053C387.545 56.8861 391.68 52.9208 397.306 52.9208C402.931 52.9208 407.023 56.8599 407.023 62.2053C407.023 67.5507 402.887 71.4898 397.306 71.4898C391.724 71.4898 387.545 67.5245 387.545 62.2053ZM404.404 62.2053C404.404 58.1875 401.371 55.2266 397.306 55.2266C393.241 55.2266 390.155 58.1788 390.155 62.2053C390.155 66.2318 393.188 69.184 397.306 69.184C401.424 69.184 404.404 66.2318 404.404 62.2053Z" fill="white"/>
<defs>
<linearGradient id="paint0_linear_2454_980" x1="0" y1="60.131" x2="461.487" y2="60.131" gradientUnits="userSpaceOnUse">
<stop stop-color="#3A2156"/>
<stop offset="0.5" stop-color="#7441AC"/>
<stop offset="1" stop-color="#BAA0D6"/>
</linearGradient>
<linearGradient id="paint1_linear_2454_980" x1="331.925" y1="62.2096" x2="426.466" y2="62.2096" gradientUnits="userSpaceOnUse">
<stop stop-color="#3A2156"/>
<stop offset="0.5" stop-color="#7441AC"/>
<stop offset="1" stop-color="#BAA0D6"/>
</linearGradient>
</defs>
</svg>
