<svg width="87" height="99" viewBox="0 0 87 99" fill="none" xmlns="http://www.w3.org/2000/svg">
<path d="M86.2049 24.7218C85.7326 23.9025 85.049 23.2034 84.2032 22.7161L46.2003 0.730954C44.5088 -0.243651 42.4296 -0.243651 40.7381 0.730954L32.7033 5.37798C32.5976 5.43448 32.5976 5.58985 32.7033 5.64635L43.6137 11.9601C43.6137 11.9601 43.6489 11.9742 43.663 11.9813L75.7526 30.5482C75.809 30.5835 75.8584 30.633 75.8936 30.6895C75.9288 30.746 75.9429 30.8095 75.9429 30.8802V59.6098C75.9429 59.7299 76.0769 59.8076 76.1755 59.744L86.8603 53.5644C86.9097 53.5362 86.9379 53.4868 86.9379 53.4303V27.4549C86.9379 26.4803 86.6771 25.541 86.2049 24.7218Z" fill="#3D3D3D"/>
<path d="M86.7047 61.9968L43.6625 86.9058C43.599 86.9411 43.5356 86.9552 43.4651 86.9552C43.4017 86.9552 43.3383 86.9411 43.2748 86.9058L18.4728 72.5551C18.3671 72.4915 18.2402 72.5692 18.2402 72.6892V85.0484C18.2402 85.1049 18.2684 85.1543 18.3178 85.1826L40.7446 98.1561C41.5903 98.6434 42.5277 98.8906 43.4722 98.8906C44.4166 98.8906 45.361 98.6434 46.2068 98.1561L84.2168 76.1639C85.9083 75.1893 86.9444 73.3814 86.9444 71.4251V62.124C86.9444 62.0039 86.8105 61.9262 86.7118 61.9898L86.7047 61.9968Z" fill="#3D3D3D"/>
<path d="M36.0295 15.9008L25.3447 9.72126C25.2954 9.69301 25.239 9.69301 25.1896 9.72126L2.72759 22.716C1.88182 23.2033 1.19816 23.9025 0.732994 24.7146C0.260777 25.5339 0 26.4732 0 27.4478V71.4321C0 73.2472 0.902147 74.9421 2.38928 75.952L10.7694 80.7968C10.8751 80.8533 11.002 80.7827 11.002 80.6626V30.8801C10.9949 30.8095 11.009 30.7459 11.0443 30.6894C11.0795 30.6329 11.1288 30.5835 11.1852 30.5481L36.0295 16.1763C36.1352 16.1127 36.1352 15.9644 36.0295 15.9079V15.9008Z" fill="#3D3D3D"/>
</svg>
