<svg width="675" height="108" viewBox="0 0 675 108" fill="none" xmlns="http://www.w3.org/2000/svg">
<g clip-path="url(#clip0_1811_3376)">
<path d="M138.551 79.5493C136.323 78.8994 134.446 78.1134 132.935 77.1763C132.31 76.7833 132.066 75.9973 132.386 75.3323L134.4 71.1001C134.766 70.3293 135.712 70.0421 136.445 70.4804C137.772 71.2362 139.268 71.8861 140.946 72.4C143.22 73.0953 145.463 73.4429 147.675 73.4429C152.726 73.4429 155.244 72.0221 155.244 69.1957C155.244 67.8504 154.603 66.9133 153.321 66.3843C152.039 65.8553 149.979 65.3565 147.141 64.8728C144.166 64.3891 141.74 63.845 139.878 63.2102C138.001 62.5905 136.384 61.4871 135.011 59.9303C133.637 58.3735 132.951 56.1969 132.951 53.4158C132.951 49.7731 134.385 46.856 137.238 44.6643C140.092 42.4878 143.967 41.3844 148.835 41.3844C151.307 41.3844 153.794 41.6867 156.266 42.2913C158.158 42.7447 159.776 43.3191 161.149 44.0144C161.836 44.362 162.11 45.2084 161.79 45.9037L159.791 50.1208C159.44 50.8614 158.54 51.1637 157.823 50.7858C155.091 49.365 152.085 48.6546 148.789 48.6546C146.317 48.6546 144.425 49.0476 143.144 49.8487C141.862 50.6347 141.221 51.6776 141.221 52.9775C141.221 54.4134 141.908 55.4412 143.281 56.0307C144.654 56.6352 146.775 57.1945 149.674 57.7235C152.558 58.2072 154.923 58.7513 156.77 59.3861C158.616 60.0059 160.203 61.0639 161.53 62.5603C162.858 64.0415 163.529 66.1576 163.529 68.8934C163.529 72.4907 162.064 75.3776 159.135 77.539C156.205 79.7005 152.223 80.7736 147.172 80.7736C144.242 80.7736 141.389 80.3655 138.596 79.5493" fill="#323C4A"/>
<path d="M177.125 26.7079H183.427C184.785 26.7079 185.396 28.3856 184.373 29.2472L177.034 36.2302C176.774 36.4569 176.439 36.5779 176.088 36.5779H171.647C170.381 36.5779 169.725 35.0966 170.579 34.1595L176.057 27.1764C176.332 26.8741 176.729 26.7079 177.125 26.7079Z" fill="#323C4A"/>
<path d="M171.22 41.8228H176.759C177.568 41.8228 178.209 42.4727 178.209 43.2587V78.8087C178.209 79.6098 177.553 80.2446 176.759 80.2446H171.22C170.411 80.2446 169.771 79.5947 169.771 78.8087V43.2587C169.771 42.4576 170.427 41.8228 171.22 41.8228Z" fill="#323C4A"/>
<path d="M217.469 45.6468C220.216 48.4733 221.589 52.6752 221.589 58.2374V78.8238C221.589 79.6249 220.933 80.2597 220.139 80.2597H214.6C213.792 80.2597 213.151 79.6098 213.151 78.8238V59.3862C213.151 56.0307 212.403 53.4914 210.923 51.7985C209.443 50.0906 207.322 49.2441 204.575 49.2441C201.463 49.2441 199.006 50.2417 197.205 52.2369C195.405 54.232 194.505 57.0887 194.505 60.8372V78.8238C194.505 79.6249 193.848 80.2597 193.055 80.2597H187.516C186.707 80.2597 186.066 79.6098 186.066 78.8238V43.2738C186.066 42.4727 186.723 41.8379 187.516 41.8379H192.643C193.452 41.8379 194.093 42.4878 194.093 43.2738V46.7955C195.481 45.0271 197.251 43.6819 199.357 42.7599C201.478 41.853 203.858 41.3995 206.513 41.3995C211.06 41.3995 214.707 42.8203 217.469 45.6468Z" fill="#323C4A"/>
<path d="M252.412 71.5839C254.029 70.6014 255.311 69.1957 256.272 67.3668C257.218 65.5379 257.691 63.437 257.691 61.0337C257.691 58.6305 257.218 56.5295 256.272 54.7006C255.326 52.8717 254.044 51.4812 252.412 50.4836C250.794 49.5011 248.963 49.0023 246.934 49.0023C244.904 49.0023 243.089 49.5011 241.456 50.4836C239.838 51.4661 238.557 52.8717 237.611 54.7006C236.665 56.5295 236.192 58.6305 236.192 61.0337C236.192 63.437 236.665 65.5379 237.611 67.3668C238.557 69.1957 239.838 70.6014 241.456 71.5839C243.073 72.5663 244.904 73.0651 246.934 73.0651C248.963 73.0651 250.779 72.5814 252.412 71.5839ZM265.992 28.295V78.8239C265.992 79.625 265.336 80.2598 264.542 80.2598H259.339C258.531 80.2598 257.89 79.6098 257.89 78.8239V75.3021C256.486 77.131 254.777 78.4913 252.717 79.3982C250.672 80.3051 248.399 80.7737 245.927 80.7737C242.463 80.7737 239.335 79.9575 236.573 78.3251C233.811 76.6927 231.629 74.3801 230.058 71.3723C228.486 68.3795 227.692 64.9333 227.692 61.0488C227.692 57.1643 228.486 53.7333 230.058 50.7557C231.629 47.778 233.811 45.4806 236.573 43.8482C239.35 42.2158 242.463 41.3996 245.927 41.3996C248.307 41.3996 250.504 41.8379 252.488 42.6995C254.472 43.561 256.165 44.8609 257.554 46.584V28.295C257.554 27.494 258.21 26.8591 259.004 26.8591H264.542C265.351 26.8591 265.992 27.5091 265.992 28.295Z" fill="#323C4A"/>
<path d="M276.781 41.8228H282.32C283.128 41.8228 283.769 42.4727 283.769 43.2587V78.8087C283.769 79.6098 283.113 80.2446 282.32 80.2446H276.781C275.972 80.2446 275.331 79.5947 275.331 78.8087V43.2587C275.331 42.4576 275.987 41.8228 276.781 41.8228Z" fill="#323C4A"/>
<path d="M353.99 69.7549C356.02 67.5481 357.027 64.6461 357.027 61.0488C357.027 57.4514 356.02 54.5494 353.99 52.3426C351.961 50.1359 349.397 49.0325 346.285 49.0325C343.172 49.0325 340.623 50.1359 338.609 52.3426C336.61 54.5494 335.603 57.4514 335.603 61.0488C335.603 64.6461 336.61 67.5481 338.609 69.7549C340.608 71.9617 343.172 73.0651 346.285 73.0651C349.397 73.0651 351.961 71.9617 353.99 69.7549ZM336.427 78.2494C333.498 76.5717 331.209 74.2289 329.561 71.2362C327.913 68.2434 327.089 64.8426 327.089 61.0488C327.089 57.255 327.913 53.8692 329.561 50.8916C331.209 47.914 333.498 45.5863 336.427 43.9086C339.357 42.2308 342.638 41.3844 346.3 41.3844C349.962 41.3844 353.304 42.2308 356.233 43.9086C359.163 45.5863 361.452 47.914 363.1 50.8916C364.748 53.8692 365.572 57.255 365.572 61.0488C365.572 64.8426 364.748 68.2434 363.1 71.2362C361.452 74.2289 359.163 76.5717 356.233 78.2494C353.304 79.9272 349.992 80.7736 346.3 80.7736C342.607 80.7736 339.357 79.9272 336.427 78.2494Z" fill="#323C4A"/>
<path d="M404.07 45.6468C406.816 48.4733 408.19 52.6752 408.19 58.2374V78.8238C408.19 79.6249 407.533 80.2597 406.74 80.2597H401.201C400.392 80.2597 399.751 79.6098 399.751 78.8238V59.3862C399.751 56.0307 399.004 53.4914 397.524 51.7985C396.044 50.0906 393.923 49.2441 391.176 49.2441C388.063 49.2441 385.607 50.2417 383.806 52.2369C382.005 54.232 381.105 57.0887 381.105 60.8372V78.8238C381.105 79.6249 380.449 80.2597 379.656 80.2597H374.117C373.308 80.2597 372.667 79.6098 372.667 78.8238V43.2738C372.667 42.4727 373.323 41.8379 374.117 41.8379H379.244C380.052 41.8379 380.693 42.4878 380.693 43.2738V46.7955C382.082 45.0271 383.852 43.6819 385.957 42.7599C388.078 41.853 390.459 41.3995 393.114 41.3995C397.661 41.3995 401.308 42.8203 404.07 45.6468Z" fill="#323C4A"/>
<path d="M426.073 51.1486C424.197 52.8565 423.067 55.1238 422.655 57.9502H443.133C442.767 55.1691 441.668 52.917 439.822 51.1788C437.975 49.4557 435.671 48.5942 432.925 48.5942C430.178 48.5942 427.935 49.4406 426.058 51.1486M449.679 63.9206H422.716C423.205 66.7471 424.502 68.9992 426.607 70.6467C428.698 72.3093 431.307 73.1255 434.405 73.1255C437.823 73.1255 440.722 72.0826 443.102 70.0119C443.728 69.4677 444.674 69.5282 445.208 70.1781L447.97 73.5638C448.428 74.1231 448.397 74.9393 447.909 75.4683C446.429 77.0554 444.659 78.2948 442.583 79.1714C440.112 80.2295 437.319 80.7585 434.206 80.7585C430.239 80.7585 426.745 79.9121 423.739 78.2343C420.718 76.5566 418.383 74.2138 416.75 71.221C415.102 68.2283 414.278 64.8275 414.278 61.0337C414.278 57.2398 415.072 53.9146 416.674 50.9218C418.276 47.9291 420.489 45.5863 423.327 43.9086C426.165 42.2308 429.369 41.3844 432.925 41.3844C436.48 41.3844 439.577 42.2157 442.355 43.8632C445.132 45.5259 447.283 47.8535 448.84 50.8463C450.396 53.839 451.174 57.3154 451.174 61.2453C451.174 61.5929 451.174 62.0312 451.128 62.53C451.083 63.3009 450.457 63.9055 449.679 63.9055" fill="#323C4A"/>
<path d="M479.601 77.1763C479.83 77.7961 479.601 78.5064 479.036 78.8843C478.243 79.4133 477.358 79.8214 476.351 80.1237C474.931 80.5621 473.436 80.7737 471.849 80.7737C467.882 80.7737 464.815 79.6703 462.663 77.4635C460.497 75.2568 459.413 72.0373 459.413 67.8203V49.3197H454.927C454.118 49.3197 453.478 48.6698 453.478 47.8838V43.561C453.478 42.7599 454.134 42.1251 454.927 42.1251H459.413V34.7793C459.413 33.9782 460.069 33.3434 460.863 33.3434H466.402C467.211 33.3434 467.851 33.9933 467.851 34.7793V42.1251H476.061C476.869 42.1251 477.51 42.775 477.51 43.561V47.8838C477.51 48.6849 476.854 49.3197 476.061 49.3197H467.851V67.6087C467.851 69.4829 468.279 70.9037 469.133 71.8862C469.988 72.8686 471.224 73.3674 472.856 73.3674C474.123 73.3674 475.252 73.1256 476.228 72.657C476.991 72.2943 477.907 72.6721 478.197 73.4581L479.57 77.1915L479.601 77.1763Z" fill="#323C4A"/>
<path d="M275.087 29.0961L279.161 26.7835C279.482 26.6021 279.878 26.6021 280.199 26.7835L284.273 29.0961C284.593 29.2774 284.792 29.6251 284.792 29.9878V34.5827C284.792 34.9455 284.593 35.2931 284.273 35.4745L280.199 37.7871C279.878 37.9685 279.482 37.9685 279.161 37.7871L275.087 35.4745C274.767 35.2931 274.568 34.9455 274.568 34.5827V29.9878C274.568 29.6251 274.767 29.2774 275.087 29.0961Z" fill="#323C4A"/>
<path d="M319.277 69.6793C318.88 69.3014 318.254 69.3166 317.888 69.7247C317.156 70.556 316.332 71.221 315.431 71.7349C313.875 72.6267 312.181 73.065 310.335 73.065C307.131 73.065 304.506 71.9768 302.461 69.7851C300.417 67.6086 299.379 64.6914 299.379 61.0336C299.379 57.3759 300.417 54.4738 302.492 52.2822C304.567 50.1056 307.176 49.0022 310.335 49.0022C312.181 49.0022 313.89 49.4406 315.431 50.3323C316.362 50.8614 317.186 51.5415 317.934 52.388C318.346 52.8414 319.063 52.8414 319.444 52.3577C320.482 51.0427 322.313 48.7302 323.198 47.6117C323.488 47.2489 323.488 46.7199 323.168 46.3723C322.191 45.3142 321.062 44.4073 319.765 43.6667C317.079 42.125 313.967 41.3693 310.411 41.3693C306.627 41.3693 303.255 42.2157 300.31 43.8934C297.365 45.5712 295.046 47.8989 293.382 50.8765C291.719 53.8541 290.88 57.2398 290.88 61.0336C290.88 64.8275 291.719 68.2132 293.382 71.221C295.046 74.2137 297.365 76.5565 300.34 78.2343C303.316 79.912 306.673 80.7585 310.411 80.7585C313.921 80.7585 317.018 79.9725 319.704 78.4157C321.245 77.5239 322.557 76.3903 323.671 75.0602C323.992 74.6823 323.946 74.1079 323.58 73.7603C322.527 72.7476 320.421 70.7373 319.277 69.6642" fill="#323C4A"/>
<path d="M662.555 17.8506H523.363C516.622 17.8506 511.156 23.2643 511.156 29.9424V82.1944C511.156 88.8725 516.622 94.2862 523.363 94.2862H662.555C669.296 94.2862 674.762 88.8725 674.762 82.1944V29.9424C674.762 23.2643 669.296 17.8506 662.555 17.8506Z" fill="url(#paint0_linear_1811_3376)"/>
<path d="M570.406 51.3148C570.406 58.1316 565.416 62.2579 557.177 62.2579H549.334V71.7652H544.802V40.3566H557.177C565.416 40.3566 570.406 44.4829 570.406 51.2997V51.3148ZM565.874 51.3148C565.874 46.8257 562.838 44.2713 557.039 44.2713H549.334V58.3583H557.039C562.838 58.3583 565.874 55.8039 565.874 51.3148Z" fill="white"/>
<path d="M598.268 71.7803L591.432 62.137C590.792 62.1824 590.12 62.2277 589.434 62.2277H581.59V71.7803H577.059V40.3717H589.434C597.673 40.3717 602.663 44.4981 602.663 51.3148C602.663 56.1667 600.13 59.6582 595.69 61.2301L603.212 71.7803H598.268ZM598.131 51.3148C598.131 46.8257 595.095 44.2713 589.296 44.2713H581.59V58.4037H589.296C595.095 58.4037 598.131 55.8039 598.131 51.3148Z" fill="white"/>
<path d="M607.409 56.0608C607.409 46.8559 614.566 39.9938 624.301 39.9938C634.036 39.9938 641.116 46.8106 641.116 56.0608C641.116 65.3111 633.96 72.1279 624.301 72.1279C614.642 72.1279 607.409 65.2657 607.409 56.0608ZM636.584 56.0608C636.584 49.108 631.335 43.9841 624.301 43.9841C617.266 43.9841 611.926 49.0929 611.926 56.0608C611.926 63.0288 617.175 68.1376 624.301 68.1376C631.427 68.1376 636.584 63.0288 636.584 56.0608Z" fill="white"/>
</g>
<g clip-path="url(#clip1_1811_3376)">
<path d="M93.6175 26.8514C93.1047 25.9617 92.3622 25.2024 91.4438 24.6732L50.1729 0.797594C48.3359 -0.260819 46.078 -0.260819 44.241 0.797594L35.5153 5.84423C35.4005 5.90558 35.4005 6.07432 35.5153 6.13567L47.3638 12.9923C47.3638 12.9923 47.4021 13.0077 47.4174 13.0154L82.2665 33.1789C82.3277 33.2172 82.3813 33.2709 82.4196 33.3323C82.4579 33.3936 82.4732 33.4627 82.4732 33.5394V64.7395C82.4732 64.8699 82.6186 64.9543 82.7257 64.8852L94.3293 58.1743C94.3829 58.1436 94.4135 58.0899 94.4135 58.0286V29.8196C94.4135 28.7612 94.1303 27.7411 93.6175 26.8514Z" fill="#9664C1"/>
<path d="M94.1609 67.3319L47.4174 94.3828C47.3485 94.4212 47.2796 94.4365 47.2031 94.4365C47.1342 94.4365 47.0653 94.4212 46.9964 94.3828L20.0617 78.7981C19.9469 78.729 19.8091 78.8134 19.8091 78.9438V92.3657C19.8091 92.427 19.8397 92.4807 19.8933 92.5114L44.2486 106.601C45.1671 107.13 46.1851 107.398 47.2107 107.398C48.2364 107.398 49.262 107.13 50.1805 106.601L91.459 82.7173C93.296 81.6588 94.4212 79.6954 94.4212 77.5709V67.47C94.4212 67.3396 94.2757 67.2552 94.1686 67.3243L94.1609 67.3319Z" fill="#5D2E85"/>
<path d="M39.1282 17.272L27.5246 10.5611C27.471 10.5304 27.4098 10.5304 27.3562 10.5611L2.96262 24.6733C2.04413 25.2025 1.30168 25.9618 0.796514 26.8438C0.28369 27.7335 0.000488281 28.7535 0.000488281 29.8119V77.5786C0.000488281 79.5497 0.980212 81.3904 2.59523 82.4871L11.6959 87.7485C11.8108 87.8099 11.9485 87.7332 11.9485 87.6028V33.5394C11.9409 33.4627 11.9562 33.3937 11.9944 33.3323C12.0327 33.2709 12.0863 33.2173 12.1475 33.1789L39.1282 17.5712C39.243 17.5021 39.243 17.3411 39.1282 17.2797V17.272Z" fill="#7C3DB2"/>
</g>
<defs>
<linearGradient id="paint0_linear_1811_3376" x1="511.156" y1="56.0608" x2="674.762" y2="56.0608" gradientUnits="userSpaceOnUse">
<stop stop-color="#3E1F59"/>
<stop offset="0.97" stop-color="#BE9ED9"/>
</linearGradient>
<clipPath id="clip0_1811_3376">
<rect width="674.762" height="107.406" fill="white" transform="translate(0.000488281)"/>
</clipPath>
<clipPath id="clip1_1811_3376">
<rect width="94.4132" height="107.406" fill="white" transform="translate(0.000488281)"/>
</clipPath>
</defs>
</svg>
