<svg width="402" height="105" viewBox="0 0 402 105" fill="none" xmlns="http://www.w3.org/2000/svg">
<rect x="1.5" y="1.5" width="398.505" height="101.631" rx="18.5" stroke="url(#paint0_linear_1811_3405)" stroke-width="3"/>
<g clip-path="url(#clip0_1811_3405)">
<path d="M101.97 65.6068C100.859 65.2826 99.923 64.8905 99.1695 64.4231C98.8574 64.2271 98.7356 63.835 98.8955 63.5033L99.9002 61.3922C100.083 61.0077 100.555 60.8644 100.92 61.0831C101.582 61.4601 102.328 61.7843 103.165 62.0406C104.3 62.3874 105.418 62.5608 106.522 62.5608C109.041 62.5608 110.297 61.8521 110.297 60.4422C110.297 59.7712 109.978 59.3037 109.338 59.0399C108.699 58.776 107.671 58.5272 106.256 58.2859C104.771 58.0446 103.561 57.7732 102.633 57.4566C101.696 57.1474 100.89 56.5971 100.205 55.8205C99.5196 55.0439 99.1771 53.9582 99.1771 52.5709C99.1771 50.7539 99.8926 49.2988 101.316 48.2055C102.739 47.1198 104.673 46.5695 107.101 46.5695C108.334 46.5695 109.574 46.7202 110.807 47.0218C111.751 47.248 112.558 47.5345 113.243 47.8813C113.585 48.0547 113.722 48.477 113.563 48.8238L112.566 50.9273C112.39 51.2968 111.941 51.4475 111.584 51.2591C110.221 50.5503 108.722 50.196 107.078 50.196C105.845 50.196 104.901 50.392 104.262 50.7916C103.622 51.1837 103.302 51.7039 103.302 52.3523C103.302 53.0685 103.645 53.5812 104.33 53.8753C105.015 54.1769 106.073 54.4558 107.519 54.7197C108.958 54.961 110.137 55.2324 111.058 55.5491C111.979 55.8582 112.771 56.3859 113.433 57.1324C114.095 57.8712 114.43 58.9268 114.43 60.2914C114.43 62.0858 113.7 63.5259 112.238 64.604C110.777 65.6822 108.79 66.2175 106.271 66.2175C104.81 66.2175 103.386 66.0139 101.993 65.6068" fill="#323C4A"/>
<path d="M121.212 39.2485H124.355C125.033 39.2485 125.337 40.0854 124.827 40.5152L121.166 43.9984C121.037 44.1115 120.869 44.1719 120.694 44.1719H118.479C117.847 44.1719 117.52 43.433 117.946 42.9655L120.679 39.4823C120.816 39.3315 121.014 39.2485 121.212 39.2485Z" fill="#323C4A"/>
<path d="M118.266 46.7881H121.029C121.432 46.7881 121.752 47.1123 121.752 47.5043V65.2373C121.752 65.6369 121.425 65.9536 121.029 65.9536H118.266C117.863 65.9536 117.543 65.6294 117.543 65.2373V47.5043C117.543 47.1047 117.87 46.7881 118.266 46.7881Z" fill="#323C4A"/>
<path d="M141.336 48.6956C142.706 50.1055 143.391 52.2015 143.391 54.9761V65.2449C143.391 65.6445 143.064 65.9612 142.668 65.9612H139.905C139.502 65.9612 139.182 65.637 139.182 65.2449V55.5491C139.182 53.8753 138.809 52.6087 138.071 51.7642C137.333 50.9123 136.275 50.4901 134.904 50.4901C133.352 50.4901 132.126 50.9877 131.228 51.9829C130.33 52.9781 129.881 54.4031 129.881 56.2729V65.2449C129.881 65.6445 129.554 65.9612 129.158 65.9612H126.395C125.992 65.9612 125.672 65.637 125.672 65.2449V47.5119C125.672 47.1123 125.999 46.7957 126.395 46.7957H128.952C129.356 46.7957 129.675 47.1199 129.675 47.5119V49.2686C130.368 48.3865 131.251 47.7155 132.301 47.2556C133.359 46.8032 134.547 46.577 135.871 46.577C138.139 46.577 139.958 47.2857 141.336 48.6956Z" fill="#323C4A"/>
<path d="M158.767 61.6335C159.574 61.1434 160.213 60.4422 160.693 59.5299C161.165 58.6177 161.401 57.5697 161.401 56.3709C161.401 55.1721 161.165 54.1241 160.693 53.2118C160.221 52.2995 159.581 51.6059 158.767 51.1083C157.96 50.6182 157.047 50.3694 156.034 50.3694C155.022 50.3694 154.116 50.6182 153.302 51.1083C152.495 51.5984 151.856 52.2995 151.384 53.2118C150.912 54.1241 150.676 55.1721 150.676 56.3709C150.676 57.5697 150.912 58.6177 151.384 59.5299C151.856 60.4422 152.495 61.1434 153.302 61.6335C154.109 62.1236 155.022 62.3724 156.034 62.3724C157.047 62.3724 157.953 62.1311 158.767 61.6335ZM165.541 40.0402V65.2449C165.541 65.6445 165.214 65.9612 164.818 65.9612H162.223C161.819 65.9612 161.499 65.637 161.499 65.2449V63.4882C160.799 64.4005 159.947 65.0791 158.919 65.5314C157.899 65.9838 156.765 66.2175 155.532 66.2175C153.804 66.2175 152.244 65.8104 150.866 64.9961C149.489 64.1818 148.4 63.0283 147.616 61.5279C146.832 60.0351 146.437 58.3161 146.437 56.3784C146.437 54.4408 146.832 52.7293 147.616 51.244C148.4 49.7587 149.489 48.6127 150.866 47.7984C152.252 46.9841 153.804 46.577 155.532 46.577C156.72 46.577 157.816 46.7957 158.805 47.2254C159.795 47.6552 160.639 48.3036 161.332 49.1631V40.0402C161.332 39.6406 161.659 39.324 162.055 39.324H164.818C165.221 39.324 165.541 39.6482 165.541 40.0402Z" fill="#323C4A"/>
<path d="M170.922 46.7881H173.685C174.089 46.7881 174.408 47.1123 174.408 47.5043V65.2373C174.408 65.6369 174.081 65.9536 173.685 65.9536H170.922C170.519 65.9536 170.199 65.6294 170.199 65.2373V47.5043C170.199 47.1047 170.527 46.7881 170.922 46.7881Z" fill="#323C4A"/>
<path d="M209.435 60.7212C210.448 59.6204 210.95 58.1728 210.95 56.3784C210.95 54.584 210.448 53.1364 209.435 52.0356C208.423 50.9349 207.144 50.3845 205.592 50.3845C204.039 50.3845 202.768 50.9349 201.763 52.0356C200.766 53.1364 200.264 54.584 200.264 56.3784C200.264 58.1728 200.766 59.6204 201.763 60.7212C202.76 61.822 204.039 62.3723 205.592 62.3723C207.144 62.3723 208.423 61.822 209.435 60.7212ZM200.675 64.9584C199.213 64.1215 198.072 62.9529 197.25 61.4601C196.428 59.9672 196.017 58.2708 196.017 56.3784C196.017 54.486 196.428 52.7971 197.25 51.3118C198.072 49.8265 199.213 48.6655 200.675 47.8286C202.136 46.9917 203.773 46.5695 205.599 46.5695C207.426 46.5695 209.093 46.9917 210.554 47.8286C212.016 48.6655 213.157 49.8265 213.979 51.3118C214.802 52.7971 215.213 54.486 215.213 56.3784C215.213 58.2708 214.802 59.9672 213.979 61.4601C213.157 62.9529 212.016 64.1215 210.554 64.9584C209.093 65.7953 207.441 66.2175 205.599 66.2175C203.757 66.2175 202.136 65.7953 200.675 64.9584Z" fill="#323C4A"/>
<path d="M234.416 48.6956C235.786 50.1055 236.471 52.2015 236.471 54.9761V65.2449C236.471 65.6445 236.144 65.9612 235.748 65.9612H232.985C232.582 65.9612 232.262 65.637 232.262 65.2449V55.5491C232.262 53.8753 231.889 52.6087 231.151 51.7642C230.413 50.9123 229.355 50.4901 227.985 50.4901C226.432 50.4901 225.206 50.9877 224.308 51.9829C223.41 52.9781 222.961 54.4031 222.961 56.2729V65.2449C222.961 65.6445 222.634 65.9612 222.238 65.9612H219.475C219.072 65.9612 218.752 65.637 218.752 65.2449V47.5119C218.752 47.1123 219.079 46.7957 219.475 46.7957H222.032C222.436 46.7957 222.756 47.1199 222.756 47.5119V49.2686C223.448 48.3865 224.331 47.7155 225.381 47.2556C226.439 46.8032 227.627 46.577 228.951 46.577C231.219 46.577 233.039 47.2857 234.416 48.6956Z" fill="#323C4A"/>
<path d="M245.391 51.44C244.455 52.292 243.892 53.4229 243.686 54.8328H253.901C253.718 53.4455 253.17 52.3221 252.249 51.4551C251.328 50.5956 250.179 50.1658 248.809 50.1658C247.439 50.1658 246.32 50.588 245.384 51.44M257.166 57.8109H243.717C243.96 59.2208 244.607 60.3442 245.658 61.166C246.701 61.9954 248.002 62.4025 249.547 62.4025C251.252 62.4025 252.698 61.8823 253.886 60.8493C254.198 60.5779 254.67 60.6081 254.936 60.9323L256.314 62.6211C256.542 62.9001 256.527 63.3072 256.283 63.5711C255.545 64.3628 254.662 64.981 253.627 65.4183C252.394 65.9461 251.001 66.21 249.448 66.21C247.469 66.21 245.726 65.7877 244.227 64.9509C242.72 64.114 241.555 62.9453 240.741 61.4525C239.919 59.9597 239.508 58.2633 239.508 56.3709C239.508 54.4784 239.904 52.8197 240.703 51.3269C241.502 49.8341 242.606 48.6655 244.021 47.8286C245.437 46.9917 247.035 46.5695 248.809 46.5695C250.582 46.5695 252.127 46.9841 253.513 47.8059C254.898 48.6353 255.971 49.7964 256.748 51.2892C257.524 52.782 257.912 54.5161 257.912 56.4764C257.912 56.6498 257.912 56.8685 257.889 57.1173C257.866 57.5018 257.554 57.8034 257.166 57.8034" fill="#323C4A"/>
<path d="M272.092 64.423C272.206 64.7321 272.092 65.0865 271.811 65.275C271.415 65.5389 270.973 65.7424 270.471 65.8932C269.763 66.1119 269.017 66.2174 268.226 66.2174C266.247 66.2174 264.717 65.667 263.644 64.5663C262.563 63.4655 262.022 61.8596 262.022 59.756V50.5276H259.785C259.381 50.5276 259.062 50.2034 259.062 49.8114V47.6551C259.062 47.2555 259.389 46.9388 259.785 46.9388H262.022V43.2746C262.022 42.875 262.35 42.5583 262.745 42.5583H265.508C265.912 42.5583 266.231 42.8826 266.231 43.2746V46.9388H270.326C270.73 46.9388 271.049 47.263 271.049 47.6551V49.8114C271.049 50.211 270.722 50.5276 270.326 50.5276H266.231V59.6505C266.231 60.5854 266.445 61.2941 266.871 61.7842C267.297 62.2743 267.914 62.5231 268.728 62.5231C269.36 62.5231 269.923 62.4024 270.41 62.1687C270.791 61.9877 271.247 62.1762 271.392 62.5683L272.077 64.4306L272.092 64.423Z" fill="#323C4A"/>
<path d="M170.077 40.4398L172.109 39.2862C172.269 39.1958 172.467 39.1958 172.627 39.2862L174.659 40.4398C174.819 40.5303 174.918 40.7037 174.918 40.8846V43.1766C174.918 43.3576 174.819 43.531 174.659 43.6215L172.627 44.775C172.467 44.8655 172.269 44.8655 172.109 44.775L170.077 43.6215C169.917 43.531 169.818 43.3576 169.818 43.1766V40.8846C169.818 40.7037 169.917 40.5303 170.077 40.4398Z" fill="#323C4A"/>
<path d="M192.12 60.6834C191.922 60.495 191.61 60.5025 191.427 60.7061C191.062 61.1207 190.651 61.4525 190.202 61.7088C189.425 62.1537 188.581 62.3723 187.66 62.3723C186.061 62.3723 184.752 61.8295 183.732 60.7362C182.712 59.6505 182.195 58.1954 182.195 56.3708C182.195 54.5463 182.712 53.0987 183.747 52.0054C184.782 50.9197 186.084 50.3694 187.66 50.3694C188.581 50.3694 189.433 50.588 190.202 51.0328C190.666 51.2967 191.077 51.636 191.45 52.0582C191.656 52.2844 192.013 52.2844 192.204 52.0431C192.721 51.3872 193.635 50.2336 194.076 49.6757C194.221 49.4948 194.221 49.2309 194.061 49.0575C193.574 48.5297 193.01 48.0773 192.363 47.7079C191.024 46.9389 189.471 46.5619 187.698 46.5619C185.81 46.5619 184.128 46.9841 182.659 47.821C181.19 48.6579 180.033 49.819 179.203 51.3043C178.374 52.7896 177.955 54.4784 177.955 56.3708C177.955 58.2633 178.374 59.9521 179.203 61.4525C180.033 62.9453 181.19 64.1139 182.674 64.9508C184.158 65.7877 185.833 66.2099 187.698 66.2099C189.448 66.2099 190.993 65.8179 192.333 65.0413C193.102 64.5965 193.756 64.031 194.312 63.3675C194.472 63.179 194.449 62.8925 194.266 62.7191C193.741 62.214 192.691 61.2112 192.12 60.6759" fill="#323C4A"/>
<path d="M363.353 34.8303H293.922C290.559 34.8303 287.833 37.5308 287.833 40.862V66.9261C287.833 70.2573 290.559 72.9578 293.922 72.9578H363.353C366.716 72.9578 369.442 70.2573 369.442 66.9261V40.862C369.442 37.5308 366.716 34.8303 363.353 34.8303Z" fill="url(#paint1_linear_1811_3405)"/>
<path d="M317.388 51.5228C317.388 54.9231 314.899 56.9814 310.789 56.9814H306.877V61.7238H304.616V46.0566H310.789C314.899 46.0566 317.388 48.1149 317.388 51.5153V51.5228ZM315.128 51.5228C315.128 49.2836 313.613 48.0094 310.721 48.0094H306.877V55.0362H310.721C313.613 55.0362 315.128 53.7621 315.128 51.5228Z" fill="white"/>
<path d="M331.287 61.7314L327.877 56.9211C327.557 56.9438 327.222 56.9664 326.88 56.9664H322.968V61.7314H320.707V46.0642H326.88C330.99 46.0642 333.479 48.1225 333.479 51.5228C333.479 53.943 332.215 55.6847 330.001 56.4688L333.753 61.7314H331.287ZM331.218 51.5228C331.218 49.2836 329.704 48.0094 326.811 48.0094H322.968V55.0589H326.811C329.704 55.0589 331.218 53.7621 331.218 51.5228Z" fill="white"/>
<path d="M335.846 53.8903C335.846 49.2987 339.415 45.8757 344.272 45.8757C349.128 45.8757 352.659 49.2761 352.659 53.8903C352.659 58.5045 349.09 61.9048 344.272 61.9048C339.454 61.9048 335.846 58.4818 335.846 53.8903ZM350.399 53.8903C350.399 50.4221 347.78 47.8662 344.272 47.8662C340.763 47.8662 338.099 50.4145 338.099 53.8903C338.099 57.366 340.717 59.9144 344.272 59.9144C347.826 59.9144 350.399 57.366 350.399 53.8903Z" fill="white"/>
</g>
<g clip-path="url(#clip1_1811_3405)">
<path d="M79.5576 39.3202C79.3018 38.8764 78.9315 38.4976 78.4733 38.2337L57.8866 26.3241C56.9703 25.7961 55.844 25.7961 54.9277 26.3241L50.5752 28.8414C50.5179 28.872 50.5179 28.9562 50.5752 28.9868L56.4854 32.407C56.4854 32.407 56.5045 32.4147 56.5122 32.4185L73.8955 42.4764C73.9261 42.4956 73.9528 42.5223 73.9719 42.553C73.991 42.5836 73.9986 42.618 73.9986 42.6562V58.2195C73.9986 58.2845 74.0711 58.3266 74.1246 58.2921L79.9127 54.9446C79.9394 54.9293 79.9547 54.9025 79.9547 54.8719V40.8008C79.9547 40.2728 79.8134 39.764 79.5576 39.3202Z" fill="#9664C1"/>
<path d="M79.8283 59.5125L56.5118 73.0059C56.4774 73.0251 56.443 73.0327 56.4049 73.0327C56.3705 73.0327 56.3361 73.0251 56.3018 73.0059L42.8662 65.232C42.809 65.1976 42.7402 65.2396 42.7402 65.3047V71.9998C42.7402 72.0304 42.7555 72.0572 42.7822 72.0725L54.9311 79.1004C55.3893 79.3644 55.8971 79.4983 56.4087 79.4983C56.9203 79.4983 57.4319 79.3644 57.8901 79.1004L78.4805 67.187C79.3968 66.659 79.9581 65.6796 79.9581 64.6199V59.5813C79.9581 59.5163 79.8855 59.4742 79.8321 59.5087L79.8283 59.5125Z" fill="#5D2E85"/>
<path d="M52.377 34.5418L46.5889 31.1942C46.5622 31.1789 46.5316 31.1789 46.5049 31.1942L34.3369 38.2336C33.8788 38.4976 33.5084 38.8763 33.2564 39.3163C33.0006 39.7601 32.8594 40.2689 32.8594 40.7969V64.6237C32.8594 65.607 33.3481 66.5251 34.1537 67.0722L38.6933 69.6967C38.7505 69.7273 38.8193 69.689 38.8193 69.624V42.6562C38.8155 42.6179 38.8231 42.5835 38.8422 42.5529C38.8613 42.5223 38.888 42.4955 38.9185 42.4764L52.377 34.691C52.4343 34.6565 52.4343 34.5762 52.377 34.5456V34.5418Z" fill="#7C3DB2"/>
</g>
<defs>
<linearGradient id="paint0_linear_1811_3405" x1="0" y1="52.305" x2="401.505" y2="52.305" gradientUnits="userSpaceOnUse">
<stop stop-color="#3E1F59"/>
<stop offset="0.97" stop-color="#BE9ED9"/>
</linearGradient>
<linearGradient id="paint1_linear_1811_3405" x1="287.833" y1="53.8903" x2="369.442" y2="53.8903" gradientUnits="userSpaceOnUse">
<stop stop-color="#3E1F59"/>
<stop offset="0.97" stop-color="#BE9ED9"/>
</linearGradient>
<clipPath id="clip0_1811_3405">
<rect width="336.583" height="53.576" fill="white" transform="translate(32.8594 25.9261)"/>
</clipPath>
<clipPath id="clip1_1811_3405">
<rect width="47.095" height="53.576" fill="white" transform="translate(32.8594 25.9261)"/>
</clipPath>
</defs>
</svg>
