<svg width="124" height="124" viewBox="0 0 124 124" fill="none" xmlns="http://www.w3.org/2000/svg">
<path d="M61.7723 123.045C95.6121 123.045 123.045 95.6121 123.045 61.7723C123.045 27.9325 95.6121 0.5 61.7723 0.5C27.9325 0.5 0.5 27.9325 0.5 61.7723C0.5 95.6121 27.9325 123.045 61.7723 123.045Z" fill="url(#paint0_linear_1811_3468)" stroke="url(#paint1_linear_1811_3468)" stroke-miterlimit="10"/>
<path d="M89.3664 45.6602C89.0675 45.1416 88.6347 44.699 88.0993 44.3905L64.0424 30.4733C62.9716 29.8564 61.6554 29.8564 60.5847 30.4733L55.4984 33.415C55.4315 33.4508 55.4315 33.5492 55.4984 33.5849L62.405 37.5817C62.405 37.5817 62.4273 37.5906 62.4362 37.5951L82.7498 49.3485C82.7855 49.3708 82.8168 49.4021 82.8391 49.4379C82.8614 49.4737 82.8703 49.5139 82.8703 49.5586V67.7453C82.8703 67.8213 82.9551 67.8705 83.0175 67.8302L89.7813 63.9184C89.8125 63.9005 89.8304 63.8692 89.8304 63.8334V47.3903C89.8304 46.7734 89.6653 46.1788 89.3664 45.6602Z" fill="white"/>
<path d="M89.6827 69.2563L62.4357 85.0243C62.3956 85.0467 62.3554 85.0556 62.3108 85.0556C62.2707 85.0556 62.2305 85.0467 62.1904 85.0243L46.49 75.9399C46.4231 75.8997 46.3428 75.9489 46.3428 76.0249V83.8485C46.3428 83.8843 46.3606 83.9156 46.3919 83.9335L60.5886 92.1461C61.124 92.4546 61.7174 92.611 62.3153 92.611C62.9131 92.611 63.511 92.4546 64.0464 92.1461L88.1077 78.2244C89.1785 77.6075 89.8344 76.463 89.8344 75.2246V69.3368C89.8344 69.2608 89.7496 69.2116 89.6871 69.2518L89.6827 69.2563Z" fill="white"/>
<path d="M57.6036 40.0764L50.8398 36.1645C50.8086 36.1467 50.7729 36.1467 50.7416 36.1645L36.5225 44.3906C35.9871 44.699 35.5544 45.1416 35.2599 45.6558C34.961 46.1744 34.7959 46.769 34.7959 47.3859V75.2292C34.7959 76.3782 35.367 77.4511 36.3084 78.0904L41.6132 81.1573C41.6801 81.1931 41.7604 81.1484 41.7604 81.0724V49.5586C41.756 49.5139 41.7649 49.4737 41.7872 49.4379C41.8095 49.4022 41.8408 49.3709 41.8764 49.3485L57.6036 40.2507C57.6705 40.2105 57.6705 40.1166 57.6036 40.0808V40.0764Z" fill="white"/>
<defs>
<linearGradient id="paint0_linear_1811_3468" x1="0.5" y1="61.7602" x2="123.045" y2="61.7602" gradientUnits="userSpaceOnUse">
<stop stop-color="#3E1F59"/>
<stop offset="0.97" stop-color="#BE9ED9"/>
</linearGradient>
<linearGradient id="paint1_linear_1811_3468" x1="0.5" y1="61.7602" x2="123.045" y2="61.7602" gradientUnits="userSpaceOnUse">
<stop offset="0.03" stop-color="#BE9ED9"/>
<stop offset="1" stop-color="#3E1F59"/>
</linearGradient>
</defs>
</svg>
