<svg width="517" height="135" viewBox="0 0 517 135" fill="none" xmlns="http://www.w3.org/2000/svg">
<path d="M496.241 0C507.287 0 516.241 8.95431 516.241 20V114.53C516.241 125.576 507.287 134.53 496.241 134.53H20C8.95431 134.53 0 125.576 0 114.53V20C3.7153e-06 8.95431 8.95431 3.26968e-07 20 0H496.241ZM102.228 76.1924C102.228 76.1096 102.135 76.0558 102.067 76.0996L102.062 76.1045L72.3711 93.2871C72.3273 93.3115 72.283 93.3213 72.2344 93.3213C72.1907 93.3212 72.1472 93.3114 72.1035 93.2871L54.9941 83.3877C54.9213 83.3442 54.834 83.3978 54.834 83.4805V92.0059C54.834 92.0448 54.8537 92.0791 54.8877 92.0986L70.3584 101.048C70.9417 101.384 71.5879 101.555 72.2393 101.555C72.8908 101.555 73.5425 101.384 74.126 101.048L100.347 85.877C101.513 85.2046 102.228 83.9577 102.228 82.6084V76.1924ZM377.917 44.7842C373.593 44.7842 370.088 48.256 370.088 52.5391V86.0518C370.088 90.3348 373.593 93.8066 377.917 93.8066H467.189C471.513 93.8065 475.018 90.3347 475.019 86.0518V52.5391C475.019 48.256 471.513 44.7843 467.189 44.7842H377.917ZM59.627 40.043L44.1328 49.0078C43.5495 49.3439 43.0777 49.8257 42.7568 50.3857C42.4311 50.9508 42.251 51.5992 42.251 52.2715V82.6133C42.251 83.8653 42.8736 85.0348 43.8994 85.7314L49.6797 89.0732C49.7526 89.1122 49.8408 89.0633 49.8408 88.9805V54.6396C49.836 54.591 49.8449 54.5467 49.8691 54.5078C49.8935 54.4688 49.9279 54.4345 49.9668 54.4102L67.1055 44.4961C67.1778 44.4522 67.1777 44.3506 67.1055 44.3115V44.3066L59.7344 40.043C59.7004 40.0236 59.6609 40.0235 59.627 40.043ZM137.709 59.8779C134.587 59.8779 132.101 60.5855 130.271 61.9814C128.441 63.387 127.521 65.2578 127.521 67.5938C127.521 69.3775 127.961 70.774 128.842 71.7725C129.723 72.7709 130.76 73.4785 131.964 73.876C133.158 74.2831 134.714 74.6322 136.622 74.9424C138.442 75.2526 139.764 75.5718 140.586 75.9111C141.408 76.2504 141.819 76.8521 141.819 77.7148C141.819 79.5275 140.204 80.4385 136.965 80.4385C135.546 80.4385 134.107 80.2154 132.649 79.7695C131.573 79.4399 130.613 79.0238 129.762 78.5391C129.292 78.2579 128.685 78.4421 128.45 78.9365L127.159 81.6504C126.954 82.0768 127.11 82.5809 127.511 82.833C128.358 83.3589 129.386 83.8104 130.587 84.1943L131.142 84.3555C132.932 84.8789 134.763 85.1406 136.642 85.1406C139.881 85.1406 142.435 84.4517 144.314 83.0654C146.193 81.6792 147.133 79.8276 147.133 77.5205C147.133 75.766 146.702 74.4089 145.851 73.459C144.999 72.4994 143.982 71.8203 142.798 71.4229C141.614 71.0157 140.097 70.6666 138.247 70.3564C136.388 70.0172 135.027 69.6592 134.146 69.2715C133.266 68.8934 132.825 68.2334 132.825 67.3125C132.825 66.479 133.237 65.8106 134.059 65.3066C134.881 64.793 136.094 64.5401 137.679 64.54C139.793 64.54 141.721 64.996 143.473 65.9072C143.933 66.1496 144.51 65.9555 144.735 65.4805L146.018 62.7764C146.223 62.3305 146.047 61.7875 145.606 61.5645C144.726 61.1185 143.688 60.7498 142.475 60.459C140.889 60.0713 139.294 59.878 137.709 59.8779ZM208.367 50.5615C207.858 50.5615 207.438 50.9687 207.438 51.4824V63.2119C206.547 62.1069 205.461 61.2732 204.188 60.7207C202.916 60.1682 201.507 59.8878 199.98 59.8877C197.759 59.8877 195.762 60.411 193.98 61.458C192.209 62.5049 190.81 63.9781 189.802 65.8877C188.794 67.7974 188.285 69.998 188.285 72.4893C188.285 74.9805 188.794 77.191 189.802 79.1104C190.81 81.0394 192.209 82.5234 193.98 83.5703C195.752 84.6173 197.759 85.1406 199.98 85.1406C201.566 85.1406 203.024 84.8394 204.335 84.2578C205.656 83.6762 206.752 82.8038 207.652 81.6309V83.8896C207.652 84.3937 208.063 84.8104 208.582 84.8105H211.92C212.429 84.8103 212.85 84.4033 212.85 83.8896V51.4824C212.85 50.9785 212.438 50.5618 211.92 50.5615H208.367ZM264.355 59.8779C262.007 59.8779 259.902 60.4201 258.023 61.4961C256.144 62.5721 254.676 64.0658 253.619 65.9756C252.562 67.8851 252.034 70.0564 252.034 72.4893C252.034 74.9224 252.562 77.104 253.619 79.0234C254.676 80.9429 256.144 82.4454 258.023 83.5215C259.902 84.5975 261.987 85.1406 264.355 85.1406C266.724 85.1406 268.848 84.5975 270.727 83.5215C272.605 82.4455 274.073 80.9427 275.13 79.0234C276.187 77.104 276.716 74.9225 276.716 72.4893C276.716 70.0562 276.187 67.8852 275.13 65.9756C274.073 64.0658 272.606 62.5721 270.727 61.4961C268.848 60.4201 266.704 59.8779 264.355 59.8779ZM337.832 54.7207C337.323 54.7209 336.902 55.1279 336.902 55.6416V60.3525H334.025C333.517 60.3526 333.096 60.7597 333.096 61.2734V64.0459C333.096 64.55 333.507 64.9668 334.025 64.9668H336.902V76.832C336.902 79.5367 337.598 81.6022 338.987 83.0176C340.367 84.4328 342.335 85.1406 344.879 85.1406C345.897 85.1406 346.856 85.0047 347.766 84.7236C348.412 84.5298 348.979 84.268 349.488 83.9287C349.85 83.6864 349.997 83.2304 349.851 82.833L349.831 82.8428L348.95 80.4482C348.764 79.9442 348.177 79.702 347.688 79.9346C347.061 80.2351 346.337 80.3906 345.524 80.3906C344.477 80.3906 343.685 80.0704 343.137 79.4404C342.589 78.8103 342.314 77.8984 342.314 76.6963V64.9668H347.58C348.089 64.9666 348.51 64.5595 348.51 64.0459V61.2734C348.51 60.7695 348.099 60.3528 347.58 60.3525H342.314V55.6416C342.314 55.1375 341.903 54.7207 341.385 54.7207H337.832ZM241.337 59.8682C238.91 59.8682 236.747 60.4103 234.858 61.4863C232.97 62.5624 231.483 64.0561 230.416 65.9658C229.349 67.8754 228.811 70.0465 228.811 72.4795C228.811 74.9127 229.349 77.0845 230.416 79.0137C231.483 80.9329 232.97 82.4357 234.878 83.5117C236.786 84.5877 238.939 85.1308 241.337 85.1309C243.588 85.1309 245.575 84.6263 247.297 83.6279C248.285 83.056 249.127 82.3287 249.842 81.4756C250.047 81.2333 250.018 80.8655 249.783 80.6426C249.108 79.9932 247.758 78.704 247.023 78.0156L246.922 77.9453C246.671 77.7884 246.338 77.8249 246.133 78.0537C245.663 78.5869 245.134 79.0132 244.557 79.3428C243.558 79.9147 242.472 80.1963 241.288 80.1963C239.233 80.1962 237.55 79.4984 236.238 78.0928C234.927 76.6968 234.262 74.8254 234.262 72.4795C234.262 70.1338 234.927 68.2727 236.258 66.8672C237.589 65.4713 239.262 64.7637 241.288 64.7637C242.472 64.7637 243.568 65.0444 244.557 65.6162C245.154 65.9555 245.683 66.3917 246.162 66.9346C246.426 67.2254 246.886 67.2253 247.131 66.915C247.796 66.0716 248.971 64.5884 249.538 63.8711C249.724 63.6384 249.724 63.2991 249.519 63.0762C248.892 62.3977 248.168 61.8158 247.336 61.3408C245.614 60.3522 243.617 59.8682 241.337 59.8682ZM319.913 59.8779C317.633 59.8779 315.578 60.4202 313.758 61.4961C311.938 62.5721 310.518 64.0748 309.49 65.9941C308.463 67.9135 307.954 70.0464 307.954 72.4795C307.954 74.9126 308.482 77.0943 309.539 79.0137C310.586 80.933 312.084 82.4357 314.021 83.5117C315.949 84.5878 318.191 85.1309 320.735 85.1309C322.732 85.1308 324.523 84.7919 326.108 84.1133C327.439 83.551 328.574 82.7551 329.523 81.7373C329.836 81.398 329.856 80.8752 329.562 80.5166L327.791 78.3447C327.448 77.928 326.842 77.8893 326.44 78.2383C324.914 79.5662 323.054 80.2354 320.862 80.2354C318.876 80.2353 317.202 79.7118 315.861 78.6455C314.511 77.5889 313.679 76.1438 313.366 74.3311L330.659 74.3213C331.158 74.3211 331.56 73.9337 331.589 73.4395C331.618 73.1196 331.618 72.8382 331.618 72.6152C331.618 70.0949 331.118 67.8656 330.12 65.9463C329.122 64.0269 327.742 62.5341 325.961 61.4678C324.18 60.4111 322.193 59.8779 319.913 59.8779ZM174.702 59.8877C172.999 59.8877 171.473 60.1782 170.112 60.7598C168.762 61.3511 167.626 62.2135 166.735 63.3477V61.0889C166.735 60.585 166.324 60.168 165.806 60.168H162.518C162.009 60.168 161.588 60.5753 161.588 61.0889V83.8896C161.588 84.3937 161.999 84.8105 162.518 84.8105H166.07C166.579 84.8104 167 84.4034 167 83.8896V72.3535C167 69.9495 167.578 68.1175 168.732 66.8379C169.887 65.5584 171.463 64.918 173.459 64.918C175.221 64.918 176.581 65.4612 177.53 66.5566C178.479 67.6423 178.959 69.271 178.959 71.4229V83.8896C178.959 84.3937 179.37 84.8105 179.889 84.8105H183.441C183.95 84.8104 184.371 84.4033 184.371 83.8896V70.6865C184.371 67.1191 183.49 64.4241 181.729 62.6113C179.957 60.7986 177.618 59.8878 174.702 59.8877ZM294.381 59.8877C292.678 59.8877 291.151 60.1782 289.791 60.7598C288.441 61.3511 287.305 62.2135 286.414 63.3477V61.0889C286.414 60.585 286.003 60.168 285.484 60.168H282.196C281.688 60.168 281.267 60.5753 281.267 61.0889V83.8896C281.267 84.3937 281.678 84.8105 282.196 84.8105H285.749C286.258 84.8104 286.679 84.4034 286.679 83.8896V72.3535C286.679 69.9495 287.256 68.1175 288.411 66.8379C289.566 65.5584 291.141 64.918 293.138 64.918C294.899 64.918 296.26 65.4612 297.209 66.5566C298.158 67.6423 298.638 69.271 298.638 71.4229V83.8896C298.638 84.3937 299.049 84.8105 299.567 84.8105H303.12C303.629 84.8104 304.05 84.4033 304.05 83.8896V70.6865C304.05 67.1191 303.169 64.4241 301.407 62.6113C299.636 60.7986 297.297 59.8878 294.381 59.8877ZM152.065 60.1592C151.557 60.1592 151.136 60.5663 151.136 61.0801V83.8799C151.136 84.384 151.547 84.8008 152.065 84.8008H155.618C156.127 84.8007 156.548 84.3936 156.548 83.8799V61.0801C156.548 60.5761 156.137 60.1593 155.618 60.1592H152.065ZM219.769 60.1592C219.26 60.1592 218.839 60.5663 218.839 61.0801V83.8799C218.839 84.384 219.25 84.8008 219.769 84.8008H223.321C223.83 84.8007 224.251 84.3936 224.251 83.8799V61.0801C224.251 60.5761 223.84 60.1593 223.321 60.1592H219.769ZM200.626 64.7637C201.928 64.7637 203.102 65.0838 204.14 65.7139C205.187 66.3536 206.009 67.2452 206.615 68.418C207.222 69.5909 207.525 70.9383 207.525 72.4795C207.525 74.0209 207.222 75.369 206.615 76.542C205.999 77.7147 205.177 78.616 204.14 79.2461C203.093 79.8859 201.928 80.1963 200.626 80.1963C199.324 80.1963 198.15 79.8762 197.112 79.2461C196.075 78.616 195.253 77.7147 194.646 76.542C194.04 75.369 193.736 74.0209 193.736 72.4795C193.736 70.9383 194.04 69.5909 194.646 68.418C195.253 67.2452 196.075 66.344 197.112 65.7139C198.159 65.0838 199.324 64.7637 200.626 64.7637ZM264.346 64.7832C266.342 64.7832 267.987 65.4909 269.288 66.9062C270.589 68.3215 271.235 70.1824 271.235 72.4893C271.235 74.7963 270.59 76.6579 269.288 78.0732C267.987 79.4885 266.342 80.1963 264.346 80.1963C262.349 80.1963 260.705 79.4886 259.423 78.0732C258.141 76.6579 257.495 74.7964 257.495 72.4893C257.495 70.1824 258.141 68.3215 259.423 66.9062C260.715 65.4909 262.349 64.7832 264.346 64.7832ZM74.1211 33.8418C72.9543 33.1695 71.5203 33.1697 70.3535 33.8418L64.8105 37.0479C64.7378 37.0869 64.7377 37.1935 64.8105 37.2324L72.3369 41.5879C72.3387 41.5886 72.3618 41.5979 72.3711 41.6025L94.5068 54.4102C94.5457 54.4345 94.5802 54.4688 94.6045 54.5078C94.6288 54.5468 94.6387 54.591 94.6387 54.6396V74.458C94.6388 74.5407 94.7308 74.5945 94.7988 74.5508L102.169 70.2871C102.203 70.2677 102.223 70.2342 102.223 70.1953V52.2764C102.223 51.6042 102.042 50.9566 101.717 50.3916C101.391 49.8266 100.92 49.344 100.337 49.0078L74.1211 33.8418ZM319.913 64.502C321.675 64.502 323.153 65.0541 324.337 66.1592C325.521 67.2739 326.225 68.7184 326.46 70.502H313.327C313.575 68.8027 314.227 67.4185 315.299 66.3496L315.509 66.1396C316.713 65.0442 318.152 64.502 319.913 64.502ZM221.96 50.5127C221.754 50.3964 221.499 50.3964 221.294 50.5127L218.682 51.9961C218.476 52.1124 218.349 52.3357 218.349 52.5684V55.5156C218.349 55.7481 218.476 55.9707 218.682 56.0869L221.294 57.5703C221.499 57.6866 221.754 57.6866 221.96 57.5703L224.573 56.0869C224.778 55.9706 224.905 55.748 224.905 55.5156V52.5684C224.905 52.3358 224.779 52.1125 224.573 51.9961L221.96 50.5127ZM155.853 50.4648C155.598 50.4648 155.343 50.5709 155.167 50.7646L151.654 55.2441C151.106 55.8452 151.527 56.7949 152.339 56.7949H155.187C155.412 56.7949 155.628 56.7177 155.794 56.5723L160.501 52.0928C161.156 51.5401 160.764 50.4648 159.894 50.4648H155.853Z" fill="white"/>
<path d="M408.089 66.2462C408.089 70.6183 404.889 73.2648 399.604 73.2648H394.574V79.3623H391.667V59.218H399.604C404.889 59.218 408.089 61.8645 408.089 66.2365V66.2462ZM405.182 66.2462C405.182 63.3671 403.235 61.7288 399.516 61.7288H394.574V70.7637H399.516C403.235 70.7637 405.182 69.1254 405.182 66.2462Z" fill="white"/>
<path d="M425.959 79.3721L421.574 73.1873C421.163 73.2164 420.733 73.2454 420.292 73.2454H415.262V79.3721H412.355V59.2278H420.292C425.577 59.2278 428.777 61.8743 428.777 66.2463C428.777 69.3581 427.153 71.5974 424.305 72.6056L429.129 79.3721H425.959ZM425.871 66.2463C425.871 63.3672 423.923 61.7289 420.204 61.7289H415.262V70.7928H420.204C423.923 70.7928 425.871 69.1255 425.871 66.2463Z" fill="white"/>
<path d="M431.821 69.2904C431.821 63.3867 436.411 58.9856 442.655 58.9856C448.899 58.9856 453.44 63.3576 453.44 69.2904C453.44 75.2232 448.85 79.5952 442.655 79.5952C436.46 79.5952 431.821 75.1941 431.821 69.2904ZM450.533 69.2904C450.533 64.8311 447.166 61.5448 442.655 61.5448C438.143 61.5448 434.718 64.8214 434.718 69.2904C434.718 73.7594 438.085 77.036 442.655 77.036C447.225 77.036 450.533 73.7594 450.533 69.2904Z" fill="white"/>
</svg>
