<svg width="402" height="105" viewBox="0 0 402 105" fill="none" xmlns="http://www.w3.org/2000/svg">
<rect x="1.25" y="1.25" width="399.005" height="102.131" rx="18.75" fill="url(#paint0_linear_1811_3437)" stroke="url(#paint1_linear_1811_3437)" stroke-width="2.5"/>
<g clip-path="url(#clip0_1811_3437)">
<g clip-path="url(#clip1_1811_3437)">
<path d="M79.1098 39.1915C78.8565 38.752 78.4897 38.3769 78.0359 38.1155L57.6471 26.3203C56.7395 25.7974 55.624 25.7974 54.7165 26.3203L50.4058 28.8134C50.3491 28.8437 50.3491 28.9271 50.4058 28.9574L56.2593 32.3448C56.2593 32.3448 56.2782 32.3524 56.2858 32.3562L73.5021 42.3175C73.5324 42.3364 73.5589 42.3629 73.5778 42.3933C73.5967 42.4236 73.6042 42.4577 73.6042 42.4956V57.9093C73.6042 57.9737 73.6761 58.0154 73.729 57.9813L79.4615 54.6659C79.488 54.6507 79.5031 54.6242 79.5031 54.5939V40.6579C79.5031 40.135 79.3632 39.6311 79.1098 39.1915Z" fill="white"/>
<path d="M79.3783 59.1899L56.2857 72.5538C56.2517 72.5727 56.2177 72.5803 56.1798 72.5803C56.1458 72.5803 56.1118 72.5727 56.0777 72.5538L42.7713 64.8545C42.7145 64.8204 42.6465 64.8621 42.6465 64.9265V71.5573C42.6465 71.5876 42.6616 71.6141 42.6881 71.6293L54.7202 78.5897C55.174 78.8511 55.6769 78.9837 56.1836 78.9837C56.6903 78.9837 57.197 78.8511 57.6508 78.5897L78.0434 66.7907C78.951 66.2678 79.5068 65.2978 79.5068 64.2483V59.2581C79.5068 59.1937 79.435 59.152 79.382 59.1861L79.3783 59.1899Z" fill="white"/>
<path d="M52.1905 34.459L46.458 31.1436C46.4315 31.1284 46.4013 31.1284 46.3748 31.1436L34.3237 38.1154C33.87 38.3768 33.5032 38.7519 33.2536 39.1876C33.0003 39.6272 32.8604 40.1311 32.8604 40.654V64.252C32.8604 65.2257 33.3444 66.1351 34.1422 66.6769L38.6382 69.2762C38.6949 69.3065 38.763 69.2686 38.763 69.2042V42.4955C38.7592 42.4576 38.7668 42.4235 38.7857 42.3931C38.8046 42.3628 38.8311 42.3363 38.8613 42.3174L52.1905 34.6067C52.2472 34.5726 52.2472 34.4931 52.1905 34.4627V34.459Z" fill="white"/>
</g>
<path d="M101.971 65.6068C100.86 65.2826 99.924 64.8905 99.1705 64.4231C98.8584 64.2271 98.7366 63.835 98.8965 63.5033L99.9012 61.3922C100.084 61.0077 100.556 60.8644 100.921 61.0831C101.583 61.4601 102.329 61.7843 103.166 62.0406C104.301 62.3874 105.419 62.5608 106.523 62.5608C109.042 62.5608 110.298 61.8521 110.298 60.4422C110.298 59.7712 109.979 59.3037 109.339 59.0399C108.7 58.776 107.672 58.5272 106.257 58.2859C104.772 58.0446 103.562 57.7732 102.634 57.4566C101.697 57.1474 100.891 56.5971 100.206 55.8205C99.5206 55.0439 99.1781 53.9582 99.1781 52.5709C99.1781 50.7539 99.8935 49.2988 101.317 48.2055C102.74 47.1198 104.674 46.5695 107.102 46.5695C108.335 46.5695 109.575 46.7202 110.808 47.0218C111.752 47.248 112.559 47.5345 113.244 47.8813C113.586 48.0547 113.723 48.477 113.564 48.8238L112.567 50.9273C112.391 51.2968 111.942 51.4475 111.585 51.2591C110.222 50.5503 108.723 50.196 107.079 50.196C105.846 50.196 104.902 50.392 104.262 50.7916C103.623 51.1837 103.303 51.7039 103.303 52.3523C103.303 53.0685 103.646 53.5812 104.331 53.8753C105.016 54.1769 106.074 54.4558 107.52 54.7197C108.959 54.961 110.138 55.2324 111.059 55.5491C111.98 55.8582 112.772 56.3859 113.434 57.1324C114.096 57.8712 114.431 58.9268 114.431 60.2914C114.431 62.0858 113.701 63.5259 112.239 64.604C110.778 65.6822 108.791 66.2175 106.272 66.2175C104.811 66.2175 103.387 66.0139 101.994 65.6068" fill="white"/>
<path d="M121.213 39.2485H124.356C125.034 39.2485 125.338 40.0854 124.828 40.5152L121.167 43.9984C121.038 44.1115 120.87 44.1719 120.695 44.1719H118.48C117.848 44.1719 117.521 43.433 117.947 42.9655L120.68 39.4823C120.817 39.3315 121.015 39.2485 121.213 39.2485Z" fill="white"/>
<path d="M118.267 46.7881H121.03C121.433 46.7881 121.753 47.1123 121.753 47.5043V65.2373C121.753 65.6369 121.426 65.9536 121.03 65.9536H118.267C117.864 65.9536 117.544 65.6294 117.544 65.2373V47.5043C117.544 47.1047 117.871 46.7881 118.267 46.7881Z" fill="white"/>
<path d="M141.337 48.6956C142.707 50.1055 143.392 52.2015 143.392 54.9761V65.2449C143.392 65.6445 143.065 65.9612 142.669 65.9612H139.906C139.503 65.9612 139.183 65.637 139.183 65.2449V55.5491C139.183 53.8753 138.81 52.6087 138.072 51.7642C137.333 50.9123 136.276 50.4901 134.905 50.4901C133.353 50.4901 132.127 50.9877 131.229 51.9829C130.331 52.9781 129.882 54.4031 129.882 56.2729V65.2449C129.882 65.6445 129.555 65.9612 129.159 65.9612H126.396C125.993 65.9612 125.673 65.637 125.673 65.2449V47.5119C125.673 47.1123 126 46.7957 126.396 46.7957H128.953C129.357 46.7957 129.676 47.1199 129.676 47.5119V49.2686C130.369 48.3865 131.252 47.7155 132.302 47.2556C133.36 46.8032 134.548 46.577 135.872 46.577C138.14 46.577 139.959 47.2857 141.337 48.6956Z" fill="white"/>
<path d="M158.768 61.6335C159.575 61.1434 160.214 60.4422 160.694 59.5299C161.166 58.6177 161.401 57.5697 161.401 56.3709C161.401 55.1721 161.166 54.1241 160.694 53.2118C160.222 52.2995 159.582 51.6059 158.768 51.1083C157.961 50.6182 157.048 50.3694 156.035 50.3694C155.023 50.3694 154.117 50.6182 153.303 51.1083C152.496 51.5984 151.857 52.2995 151.385 53.2118C150.913 54.1241 150.677 55.1721 150.677 56.3709C150.677 57.5697 150.913 58.6177 151.385 59.5299C151.857 60.4422 152.496 61.1434 153.303 61.6335C154.11 62.1236 155.023 62.3724 156.035 62.3724C157.048 62.3724 157.954 62.1311 158.768 61.6335ZM165.542 40.0402V65.2449C165.542 65.6445 165.215 65.9612 164.819 65.9612H162.224C161.82 65.9612 161.5 65.637 161.5 65.2449V63.4882C160.8 64.4005 159.948 65.0791 158.92 65.5314C157.9 65.9838 156.766 66.2175 155.533 66.2175C153.805 66.2175 152.245 65.8104 150.867 64.9961C149.49 64.1818 148.401 63.0283 147.617 61.5279C146.833 60.0351 146.438 58.3161 146.438 56.3784C146.438 54.4408 146.833 52.7293 147.617 51.244C148.401 49.7587 149.49 48.6127 150.867 47.7984C152.253 46.9841 153.805 46.577 155.533 46.577C156.72 46.577 157.817 46.7957 158.806 47.2254C159.795 47.6552 160.64 48.3036 161.333 49.1631V40.0402C161.333 39.6406 161.66 39.324 162.056 39.324H164.819C165.222 39.324 165.542 39.6482 165.542 40.0402Z" fill="white"/>
<path d="M170.923 46.7881H173.686C174.09 46.7881 174.409 47.1123 174.409 47.5043V65.2373C174.409 65.6369 174.082 65.9536 173.686 65.9536H170.923C170.52 65.9536 170.2 65.6294 170.2 65.2373V47.5043C170.2 47.1047 170.527 46.7881 170.923 46.7881Z" fill="white"/>
<path d="M209.436 60.7212C210.449 59.6204 210.951 58.1728 210.951 56.3784C210.951 54.584 210.449 53.1364 209.436 52.0356C208.424 50.9349 207.145 50.3845 205.593 50.3845C204.04 50.3845 202.769 50.9349 201.764 52.0356C200.767 53.1364 200.265 54.584 200.265 56.3784C200.265 58.1728 200.767 59.6204 201.764 60.7212C202.761 61.822 204.04 62.3723 205.593 62.3723C207.145 62.3723 208.424 61.822 209.436 60.7212ZM200.676 64.9584C199.214 64.1215 198.073 62.9529 197.251 61.4601C196.429 59.9672 196.018 58.2708 196.018 56.3784C196.018 54.486 196.429 52.7971 197.251 51.3118C198.073 49.8265 199.214 48.6655 200.676 47.8286C202.137 46.9917 203.774 46.5695 205.6 46.5695C207.427 46.5695 209.094 46.9917 210.555 47.8286C212.017 48.6655 213.158 49.8265 213.98 51.3118C214.802 52.7971 215.214 54.486 215.214 56.3784C215.214 58.2708 214.802 59.9672 213.98 61.4601C213.158 62.9529 212.017 64.1215 210.555 64.9584C209.094 65.7953 207.442 66.2175 205.6 66.2175C203.758 66.2175 202.137 65.7953 200.676 64.9584Z" fill="white"/>
<path d="M234.417 48.6956C235.787 50.1055 236.472 52.2015 236.472 54.9761V65.2449C236.472 65.6445 236.145 65.9612 235.749 65.9612H232.986C232.583 65.9612 232.263 65.637 232.263 65.2449V55.5491C232.263 53.8753 231.89 52.6087 231.152 51.7642C230.414 50.9123 229.356 50.4901 227.986 50.4901C226.433 50.4901 225.207 50.9877 224.309 51.9829C223.411 52.9781 222.962 54.4031 222.962 56.2729V65.2449C222.962 65.6445 222.635 65.9612 222.239 65.9612H219.476C219.073 65.9612 218.753 65.637 218.753 65.2449V47.5119C218.753 47.1123 219.08 46.7957 219.476 46.7957H222.033C222.437 46.7957 222.757 47.1199 222.757 47.5119V49.2686C223.449 48.3865 224.332 47.7155 225.382 47.2556C226.44 46.8032 227.628 46.577 228.952 46.577C231.22 46.577 233.04 47.2857 234.417 48.6956Z" fill="white"/>
<path d="M245.392 51.44C244.456 52.292 243.893 53.4229 243.687 54.8328H253.902C253.719 53.4455 253.171 52.3221 252.25 51.4551C251.329 50.5956 250.18 50.1658 248.81 50.1658C247.44 50.1658 246.321 50.588 245.385 51.44M257.167 57.8109H243.718C243.961 59.2208 244.608 60.3442 245.659 61.166C246.702 61.9954 248.003 62.4025 249.548 62.4025C251.253 62.4025 252.699 61.8823 253.887 60.8493C254.199 60.5779 254.671 60.6081 254.937 60.9323L256.315 62.6211C256.543 62.9001 256.528 63.3072 256.284 63.5711C255.546 64.3628 254.663 64.981 253.628 65.4183C252.395 65.9461 251.002 66.21 249.449 66.21C247.47 66.21 245.727 65.7877 244.228 64.9509C242.721 64.114 241.556 62.9453 240.742 61.4525C239.92 59.9597 239.509 58.2633 239.509 56.3709C239.509 54.4784 239.905 52.8197 240.704 51.3269C241.503 49.8341 242.607 48.6655 244.022 47.8286C245.438 46.9917 247.036 46.5695 248.81 46.5695C250.583 46.5695 252.128 46.9841 253.514 47.8059C254.899 48.6353 255.972 49.7964 256.749 51.2892C257.525 52.782 257.913 54.5161 257.913 56.4764C257.913 56.6498 257.913 56.8685 257.89 57.1173C257.867 57.5018 257.555 57.8034 257.167 57.8034" fill="white"/>
<path d="M272.093 64.423C272.207 64.7321 272.093 65.0865 271.812 65.275C271.416 65.5389 270.974 65.7424 270.472 65.8932C269.764 66.1119 269.018 66.2174 268.227 66.2174C266.248 66.2174 264.718 65.667 263.645 64.5663C262.564 63.4655 262.023 61.8596 262.023 59.756V50.5276H259.786C259.382 50.5276 259.062 50.2034 259.062 49.8114V47.6551C259.062 47.2555 259.39 46.9388 259.786 46.9388H262.023V43.2746C262.023 42.875 262.351 42.5583 262.746 42.5583H265.509C265.913 42.5583 266.232 42.8826 266.232 43.2746V46.9388H270.327C270.731 46.9388 271.05 47.263 271.05 47.6551V49.8114C271.05 50.211 270.723 50.5276 270.327 50.5276H266.232V59.6505C266.232 60.5854 266.446 61.2941 266.872 61.7842C267.298 62.2743 267.915 62.5231 268.729 62.5231C269.361 62.5231 269.924 62.4024 270.411 62.1687C270.792 61.9877 271.248 62.1762 271.393 62.5683L272.078 64.4306L272.093 64.423Z" fill="white"/>
<path d="M170.078 40.4398L172.11 39.2862C172.27 39.1958 172.468 39.1958 172.628 39.2862L174.66 40.4398C174.82 40.5303 174.919 40.7037 174.919 40.8846V43.1766C174.919 43.3576 174.82 43.531 174.66 43.6215L172.628 44.775C172.468 44.8655 172.27 44.8655 172.11 44.775L170.078 43.6215C169.918 43.531 169.819 43.3576 169.819 43.1766V40.8846C169.819 40.7037 169.918 40.5303 170.078 40.4398Z" fill="white"/>
<path d="M192.121 60.6834C191.923 60.495 191.611 60.5025 191.428 60.7061C191.063 61.1207 190.652 61.4525 190.203 61.7088C189.426 62.1537 188.582 62.3723 187.661 62.3723C186.062 62.3723 184.753 61.8295 183.733 60.7362C182.713 59.6505 182.196 58.1954 182.196 56.3708C182.196 54.5463 182.713 53.0987 183.748 52.0054C184.783 50.9197 186.085 50.3694 187.661 50.3694C188.582 50.3694 189.434 50.588 190.203 51.0328C190.667 51.2967 191.078 51.636 191.451 52.0582C191.657 52.2844 192.014 52.2844 192.205 52.0431C192.722 51.3872 193.636 50.2336 194.077 49.6757C194.222 49.4948 194.222 49.2309 194.062 49.0575C193.575 48.5297 193.011 48.0773 192.364 47.7079C191.025 46.9389 189.472 46.5619 187.699 46.5619C185.811 46.5619 184.129 46.9841 182.66 47.821C181.191 48.6579 180.034 49.819 179.204 51.3043C178.375 52.7896 177.956 54.4784 177.956 56.3708C177.956 58.2633 178.375 59.9521 179.204 61.4525C180.034 62.9453 181.191 64.1139 182.675 64.9508C184.159 65.7877 185.834 66.2099 187.699 66.2099C189.449 66.2099 190.994 65.8179 192.334 65.0413C193.103 64.5965 193.757 64.031 194.313 63.3675C194.473 63.179 194.45 62.8925 194.267 62.7191C193.742 62.214 192.692 61.2112 192.121 60.6759" fill="white"/>
<path d="M363.354 34.8303H293.923C290.56 34.8303 287.834 37.5308 287.834 40.862V66.9262C287.834 70.2573 290.56 72.9578 293.923 72.9578H363.354C366.717 72.9578 369.443 70.2573 369.443 66.9262V40.862C369.443 37.5308 366.717 34.8303 363.354 34.8303Z" fill="white"/>
<path d="M317.389 51.5228C317.389 54.9231 314.9 56.9814 310.79 56.9814H306.878V61.7238H304.617V46.0566H310.79C314.9 46.0566 317.389 48.1149 317.389 51.5153V51.5228ZM315.129 51.5228C315.129 49.2836 313.614 48.0094 310.722 48.0094H306.878V55.0362H310.722C313.614 55.0362 315.129 53.7621 315.129 51.5228Z" fill="#5D2E85"/>
<path d="M331.288 61.7314L327.878 56.9211C327.558 56.9438 327.223 56.9664 326.881 56.9664H322.969V61.7314H320.708V46.0642H326.881C330.991 46.0642 333.48 48.1225 333.48 51.5228C333.48 53.943 332.216 55.6847 330.002 56.4688L333.754 61.7314H331.288ZM331.219 51.5228C331.219 49.2836 329.705 48.0094 326.812 48.0094H322.969V55.0589H326.812C329.705 55.0589 331.219 53.7621 331.219 51.5228Z" fill="#5D2E85"/>
<path d="M335.847 53.8903C335.847 49.2987 339.416 45.8757 344.272 45.8757C349.129 45.8757 352.66 49.2761 352.66 53.8903C352.66 58.5045 349.091 61.9048 344.272 61.9048C339.454 61.9048 335.847 58.4818 335.847 53.8903ZM350.4 53.8903C350.4 50.4221 347.781 47.8662 344.272 47.8662C340.764 47.8662 338.1 50.4145 338.1 53.8903C338.1 57.366 340.718 59.9144 344.272 59.9144C347.827 59.9144 350.4 57.366 350.4 53.8903Z" fill="#5D2E85"/>
</g>
<defs>
<linearGradient id="paint0_linear_1811_3437" x1="0" y1="52.305" x2="401.505" y2="52.305" gradientUnits="userSpaceOnUse">
<stop stop-color="#3E1F59"/>
<stop offset="0.97" stop-color="#BE9ED9"/>
</linearGradient>
<linearGradient id="paint1_linear_1811_3437" x1="0" y1="52.305" x2="401.505" y2="52.305" gradientUnits="userSpaceOnUse">
<stop offset="0.03" stop-color="#BE9ED9"/>
<stop offset="1" stop-color="#3E1F59"/>
</linearGradient>
<clipPath id="clip0_1811_3437">
<rect width="336.583" height="53.576" fill="white" transform="translate(32.8604 25.9261)"/>
</clipPath>
<clipPath id="clip1_1811_3437">
<rect width="46.6426" height="53.0613" fill="white" transform="translate(32.8604 25.9261)"/>
</clipPath>
</defs>
</svg>
