<svg width="517" height="135" viewBox="0 0 517 135" fill="none" xmlns="http://www.w3.org/2000/svg">
<rect x="1.5" y="1.5" width="513.241" height="131.531" rx="18.5" stroke="#3D3D3D" stroke-width="3"/>
<path d="M101.399 50.7043C101.068 50.1292 100.588 49.6384 99.9943 49.2963L73.3158 33.8625C72.1284 33.1783 70.6688 33.1783 69.4813 33.8625L63.8408 37.1248C63.7666 37.1644 63.7666 37.2735 63.8408 37.3132L71.5 41.7455C71.5 41.7455 71.5247 41.7554 71.5346 41.7603L94.0619 54.7945C94.1015 54.8193 94.1361 54.854 94.1608 54.8937C94.1856 54.9333 94.1955 54.978 94.1955 55.0275V75.1961C94.1955 75.2803 94.2895 75.3349 94.3587 75.2902L101.86 70.9521C101.894 70.9323 101.914 70.8976 101.914 70.8579V52.623C101.914 51.9388 101.731 51.2794 101.399 50.7043Z" fill="#3D3D3D"/>
<path d="M101.751 76.8718L71.5351 94.3581C71.4906 94.3829 71.4461 94.3928 71.3966 94.3928C71.3521 94.3928 71.3075 94.3829 71.263 94.3581L53.8518 84.2837C53.7775 84.2391 53.6885 84.2936 53.6885 84.3779V93.0542C53.6885 93.0938 53.7083 93.1285 53.7429 93.1484L69.4867 102.256C70.0805 102.598 70.7385 102.772 71.4015 102.772C72.0645 102.772 72.7275 102.598 73.3213 102.256L100.005 86.8172C101.192 86.133 101.919 84.8638 101.919 83.4905V76.961C101.919 76.8767 101.825 76.8222 101.756 76.8668L101.751 76.8718Z" fill="#3D3D3D"/>
<path d="M66.1764 44.5119L58.6755 40.1738C58.6409 40.154 58.6013 40.154 58.5667 40.1738L42.7981 49.2962C42.2044 49.6383 41.7244 50.1292 41.3979 50.6993C41.0664 51.2744 40.8833 51.9338 40.8833 52.618V83.4954C40.8833 84.7696 41.5166 85.9595 42.5606 86.6685L48.4435 90.0695C48.5177 90.1092 48.6068 90.0596 48.6068 89.9753V55.0275C48.6018 54.9779 48.6117 54.9333 48.6365 54.8936C48.6612 54.854 48.6959 54.8193 48.7354 54.7945L66.1764 44.7053C66.2506 44.6607 66.2506 44.5565 66.1764 44.5169V44.5119Z" fill="#3D3D3D"/>
<path d="M130.445 84.7693C129.005 84.3492 127.792 83.8411 126.815 83.2353C126.411 82.9813 126.253 82.4732 126.46 82.0433L127.762 79.3076C127.999 78.8093 128.611 78.6236 129.084 78.907C129.942 79.3955 130.909 79.8156 131.994 80.1478C133.463 80.5973 134.913 80.822 136.344 80.822C139.609 80.822 141.236 79.9036 141.236 78.0765C141.236 77.2069 140.822 76.6011 139.993 76.2591C139.165 75.9172 137.833 75.5947 135.998 75.2821C134.075 74.9694 132.507 74.6177 131.303 74.2073C130.09 73.8067 129.045 73.0935 128.157 72.0871C127.269 71.0808 126.825 69.6738 126.825 67.876C126.825 65.5213 127.752 63.6356 129.597 62.2188C131.441 60.8119 133.947 60.0986 137.093 60.0986C138.691 60.0986 140.299 60.294 141.897 60.6849C143.12 60.978 144.166 61.3493 145.053 61.7987C145.497 62.0234 145.675 62.5706 145.468 63.02L144.175 65.746C143.949 66.2248 143.367 66.4202 142.903 66.1759C141.137 65.2575 139.194 64.7983 137.064 64.7983C135.466 64.7983 134.243 65.0523 133.414 65.5702C132.586 66.0782 132.171 66.7524 132.171 67.5927C132.171 68.5209 132.615 69.1853 133.503 69.5663C134.391 69.9571 135.762 70.3186 137.636 70.6606C139.5 70.9733 141.029 71.325 142.222 71.7354C143.416 72.136 144.442 72.8199 145.3 73.7872C146.158 74.7447 146.592 76.1126 146.592 77.8811C146.592 80.2065 145.645 82.0726 143.751 83.4698C141.857 84.867 139.283 85.5607 136.018 85.5607C134.124 85.5607 132.28 85.2969 130.475 84.7693" fill="#3D3D3D"/>
<path d="M155.38 50.6113H159.454C160.332 50.6113 160.727 51.6959 160.066 52.2528L155.321 56.7668C155.154 56.9133 154.937 56.9915 154.71 56.9915H151.839C151.021 56.9915 150.597 56.034 151.149 55.4282L154.69 50.9142C154.868 50.7188 155.124 50.6113 155.38 50.6113Z" fill="#3D3D3D"/>
<path d="M151.563 60.3818H155.144C155.666 60.3818 156.081 60.802 156.081 61.31V84.2904C156.081 84.8083 155.656 85.2186 155.144 85.2186H151.563C151.04 85.2186 150.626 84.7985 150.626 84.2904V61.31C150.626 60.7922 151.05 60.3818 151.563 60.3818Z" fill="#3D3D3D"/>
<path d="M181.46 62.8539C183.235 64.681 184.123 67.3972 184.123 70.9928V84.3003C184.123 84.8182 183.699 85.2285 183.186 85.2285H179.605C179.082 85.2285 178.668 84.8084 178.668 84.3003V71.7354C178.668 69.5663 178.185 67.9249 177.228 66.8305C176.271 65.7265 174.9 65.1793 173.125 65.1793C171.113 65.1793 169.525 65.8242 168.361 67.1139C167.197 68.4036 166.615 70.2502 166.615 72.6733V84.3003C166.615 84.8182 166.191 85.2285 165.678 85.2285H162.097C161.574 85.2285 161.16 84.8084 161.16 84.3003V61.3199C161.16 60.8021 161.584 60.3917 162.097 60.3917H165.411C165.934 60.3917 166.348 60.8119 166.348 61.3199V63.5965C167.246 62.4533 168.39 61.5838 169.751 60.9878C171.122 60.4015 172.661 60.1084 174.377 60.1084C177.317 60.1084 179.674 61.0268 181.46 62.8539Z" fill="#3D3D3D"/>
<path d="M204.048 79.6201C205.093 78.985 205.922 78.0763 206.543 76.8941C207.155 75.7119 207.46 74.3538 207.46 72.8002C207.46 71.2467 207.155 69.8886 206.543 68.7064C205.931 67.5241 205.103 66.6252 204.048 65.9804C203.002 65.3453 201.818 65.0229 200.506 65.0229C199.195 65.0229 198.021 65.3453 196.965 65.9804C195.92 66.6155 195.091 67.5241 194.48 68.7064C193.868 69.8886 193.562 71.2467 193.562 72.8002C193.562 74.3538 193.868 75.7119 194.48 76.8941C195.091 78.0763 195.92 78.985 196.965 79.6201C198.011 80.2552 199.195 80.5776 200.506 80.5776C201.818 80.5776 202.992 80.2649 204.048 79.6201ZM212.826 51.6372V84.3002C212.826 84.818 212.402 85.2284 211.889 85.2284H208.526C208.003 85.2284 207.589 84.8083 207.589 84.3002V82.0236C206.681 83.2059 205.576 84.0852 204.245 84.6715C202.923 85.2577 201.453 85.5606 199.855 85.5606C197.616 85.5606 195.594 85.033 193.809 83.9778C192.024 82.9225 190.613 81.4276 189.597 79.4833C188.581 77.5487 188.068 75.321 188.068 72.81C188.068 70.299 188.581 68.0811 189.597 66.1563C190.613 64.2314 192.024 62.7463 193.809 61.6911C195.604 60.6359 197.616 60.1083 199.855 60.1083C201.394 60.1083 202.815 60.3916 204.097 60.9485C205.379 61.5055 206.474 62.3457 207.372 63.4596V51.6372C207.372 51.1193 207.796 50.709 208.309 50.709H211.889C212.412 50.709 212.826 51.1291 212.826 51.6372Z" fill="#3D3D3D"/>
<path d="M219.8 60.3818H223.381C223.904 60.3818 224.318 60.802 224.318 61.31V84.2904C224.318 84.8083 223.894 85.2186 223.381 85.2186H219.8C219.278 85.2186 218.863 84.7985 218.863 84.2904V61.31C218.863 60.7922 219.287 60.3818 219.8 60.3818Z" fill="#3D3D3D"/>
<path d="M269.71 78.438C271.022 77.0115 271.673 75.1355 271.673 72.8101C271.673 70.4847 271.022 68.6088 269.71 67.1823C268.398 65.7558 266.741 65.0425 264.729 65.0425C262.717 65.0425 261.069 65.7558 259.767 67.1823C258.475 68.6088 257.824 70.4847 257.824 72.8101C257.824 75.1355 258.475 77.0115 259.767 78.438C261.06 79.8645 262.717 80.5777 264.729 80.5777C266.741 80.5777 268.398 79.8645 269.71 78.438ZM258.357 83.929C256.463 82.8445 254.983 81.3301 253.918 79.3955C252.853 77.4609 252.32 75.2626 252.32 72.8101C252.32 70.3577 252.853 68.1691 253.918 66.2443C254.983 64.3195 256.463 62.8149 258.357 61.7303C260.251 60.6458 262.371 60.0986 264.739 60.0986C267.106 60.0986 269.266 60.6458 271.16 61.7303C273.054 62.8149 274.533 64.3195 275.599 66.2443C276.664 68.1691 277.197 70.3577 277.197 72.8101C277.197 75.2626 276.664 77.4609 275.599 79.3955C274.533 81.3301 273.054 82.8445 271.16 83.929C269.266 85.0136 267.126 85.5607 264.739 85.5607C262.352 85.5607 260.251 85.0136 258.357 83.929Z" fill="#3D3D3D"/>
<path d="M302.083 62.8539C303.858 64.681 304.746 67.3972 304.746 70.9928V84.3003C304.746 84.8182 304.322 85.2285 303.809 85.2285H300.228C299.705 85.2285 299.291 84.8084 299.291 84.3003V71.7354C299.291 69.5663 298.808 67.9249 297.851 66.8305C296.894 65.7265 295.523 65.1793 293.748 65.1793C291.736 65.1793 290.148 65.8242 288.984 67.1139C287.82 68.4036 287.238 70.2502 287.238 72.6733V84.3003C287.238 84.8182 286.814 85.2285 286.301 85.2285H282.72C282.197 85.2285 281.783 84.8084 281.783 84.3003V61.3199C281.783 60.8021 282.207 60.3917 282.72 60.3917H286.034C286.557 60.3917 286.972 60.8119 286.972 61.3199V63.5965C287.869 62.4533 289.013 61.5838 290.374 60.9878C291.746 60.4015 293.284 60.1084 295.001 60.1084C297.94 60.1084 300.297 61.0268 302.083 62.8539Z" fill="#3D3D3D"/>
<path d="M316.306 66.4104C315.093 67.5145 314.363 68.9801 314.097 70.8072H327.334C327.097 69.0094 326.387 67.5536 325.193 66.43C324 65.3161 322.511 64.7592 320.735 64.7592C318.96 64.7592 317.51 65.3063 316.296 66.4104M331.565 74.6665H314.136C314.452 76.4936 315.29 77.9495 316.651 79.0145C318.003 80.0892 319.69 80.6168 321.692 80.6168C323.901 80.6168 325.775 79.9427 327.314 78.6041C327.719 78.2523 328.33 78.2914 328.675 78.7116L330.461 80.9002C330.757 81.2617 330.737 81.7893 330.421 82.1313C329.464 83.1572 328.32 83.9584 326.979 84.5251C325.381 85.209 323.576 85.551 321.564 85.551C318.999 85.551 316.74 85.0038 314.797 83.9193C312.844 82.8347 311.335 81.3203 310.28 79.3857C309.214 77.4512 308.682 75.2528 308.682 72.8004C308.682 70.348 309.195 68.1984 310.23 66.2639C311.266 64.3293 312.696 62.8149 314.531 61.7303C316.365 60.6458 318.437 60.0986 320.735 60.0986C323.033 60.0986 325.036 60.636 326.831 61.701C328.626 62.7758 330.017 64.2804 331.023 66.215C332.029 68.1496 332.532 70.3968 332.532 72.9372C332.532 73.1619 332.532 73.4452 332.502 73.7677C332.473 74.266 332.068 74.6568 331.565 74.6568" fill="#3D3D3D"/>
<path d="M350.908 83.2353C351.056 83.6359 350.908 84.0951 350.543 84.3393C350.03 84.6813 349.458 84.9451 348.807 85.1405C347.89 85.4239 346.923 85.5607 345.897 85.5607C343.333 85.5607 341.35 84.8474 339.959 83.4209C338.559 81.9944 337.858 79.9133 337.858 77.1873V65.2281H334.959C334.436 65.2281 334.021 64.808 334.021 64.2999V61.5055C334.021 60.9877 334.446 60.5773 334.959 60.5773H337.858V55.8288C337.858 55.311 338.283 54.9006 338.795 54.9006H342.376C342.899 54.9006 343.313 55.3208 343.313 55.8288V60.5773H348.62C349.142 60.5773 349.557 60.9975 349.557 61.5055V64.2999C349.557 64.8178 349.133 65.2281 348.62 65.2281H343.313V77.0505C343.313 78.2621 343.589 79.1805 344.142 79.8156C344.694 80.4507 345.493 80.7731 346.548 80.7731C347.367 80.7731 348.097 80.6168 348.728 80.3139C349.221 80.0794 349.813 80.3236 350.001 80.8317L350.888 83.245L350.908 83.2353Z" fill="#3D3D3D"/>
<path d="M218.705 52.1551L221.339 50.6602C221.546 50.543 221.803 50.543 222.01 50.6602L224.643 52.1551C224.851 52.2723 224.979 52.4971 224.979 52.7316V55.7018C224.979 55.9363 224.851 56.161 224.643 56.2783L222.01 57.7732C221.803 57.8904 221.546 57.8904 221.339 57.7732L218.705 56.2783C218.498 56.161 218.37 55.9363 218.37 55.7018V52.7316C218.37 52.4971 218.498 52.2723 218.705 52.1551Z" fill="#3D3D3D"/>
<path d="M247.27 78.3891C247.014 78.1449 246.609 78.1546 246.373 78.4184C245.899 78.9558 245.367 79.3857 244.785 79.7179C243.779 80.2944 242.684 80.5777 241.49 80.5777C239.419 80.5777 237.722 79.8743 236.401 78.4575C235.079 77.0506 234.408 75.1649 234.408 72.8004C234.408 70.4359 235.079 68.5599 236.42 67.1432C237.762 65.7363 239.448 65.023 241.49 65.023C242.684 65.023 243.788 65.3063 244.785 65.8828C245.386 66.2248 245.919 66.6645 246.402 67.2116C246.669 67.5047 247.132 67.5047 247.379 67.1921C248.05 66.342 249.233 64.8471 249.805 64.1241C249.993 63.8896 249.993 63.5476 249.786 63.3229C249.154 62.639 248.424 62.0527 247.586 61.574C245.85 60.5774 243.838 60.0889 241.54 60.0889C239.093 60.0889 236.913 60.636 235.01 61.7206C233.106 62.8051 231.607 64.3098 230.532 66.2346C229.457 68.1594 228.914 70.348 228.914 72.8004C228.914 75.2528 229.457 77.4414 230.532 79.3857C231.607 81.3203 233.106 82.8347 235.03 83.9193C236.953 85.0038 239.123 85.551 241.54 85.551C243.808 85.551 245.811 85.0429 247.547 84.0365C248.543 83.4601 249.391 82.7273 250.111 81.8675C250.318 81.6232 250.289 81.2519 250.052 81.0272C249.371 80.3726 248.01 79.0731 247.27 78.3794" fill="#3D3D3D"/>
<path d="M469.174 44.8857C473.532 44.8857 477.065 48.3853 477.065 52.7021V86.4795C477.065 90.7962 473.532 94.2959 469.174 94.2959H379.197C374.84 94.2957 371.307 90.7961 371.307 86.4795V52.7021C371.307 48.3854 374.839 44.8859 379.197 44.8857H469.174ZM444.445 59.2002C438.152 59.2002 433.526 63.6357 433.526 69.5859C433.526 75.5361 438.202 79.9716 444.445 79.9717C450.689 79.9717 455.315 75.5655 455.315 69.5859C455.315 63.6064 450.738 59.2002 444.445 59.2002ZM413.907 79.7471H416.837V73.5723H421.907C422.351 73.5723 422.785 73.543 423.199 73.5137L427.618 79.7471H430.813L425.951 72.9277C428.821 71.9116 430.459 69.6539 430.459 66.5176C430.459 62.1113 427.233 59.4444 421.907 59.4443H413.907V79.7471ZM393.056 79.7373H395.985V73.5918H401.055C406.381 73.5918 409.606 70.9241 409.606 66.5176V66.5078C409.606 62.1015 406.381 59.4346 401.055 59.4346H393.056V79.7373ZM444.445 61.7793C448.992 61.7793 452.386 65.0915 452.386 69.5859C452.386 74.0901 449.052 77.3926 444.445 77.3926C439.839 77.3925 436.446 74.0901 436.446 69.5859C436.446 65.0817 439.898 61.7793 444.445 61.7793ZM421.818 61.9648C425.566 61.9649 427.529 63.616 427.529 66.5176C427.529 69.4194 425.566 71.1005 421.818 71.1006H416.837V61.9648H421.818ZM400.967 61.9648C404.715 61.965 406.678 63.616 406.678 66.5176C406.678 69.4193 404.715 71.0711 400.967 71.0713H395.985V61.9648H400.967Z" fill="#3D3D3D"/>
</svg>
