<svg width="462" height="121" viewBox="0 0 462 121" fill="none" xmlns="http://www.w3.org/2000/svg">
<rect x="1.25" y="1.25" width="458.987" height="117.762" rx="18.75" fill="url(#paint0_linear_1811_3437)" stroke="url(#paint1_linear_1811_3437)" stroke-width="2.5"/>
<path d="M90.9288 45.0467C90.6376 44.5415 90.2161 44.1103 89.6945 43.8098L66.2596 30.2525C65.2165 29.6515 63.9344 29.6515 62.8913 30.2525L57.9366 33.1181C57.8714 33.153 57.8714 33.2488 57.9366 33.2836L64.6646 37.1771C64.6646 37.1771 64.6863 37.1858 64.695 37.1901L84.4834 48.6396C84.5182 48.6614 84.5486 48.6919 84.5703 48.7267C84.592 48.7616 84.6007 48.8008 84.6007 48.8443V66.5607C84.6007 66.6348 84.6833 66.6827 84.7442 66.6435L91.333 62.8328C91.3635 62.8154 91.3809 62.7849 91.3809 62.75V46.7321C91.3809 46.1311 91.22 45.5519 90.9288 45.0467Z" fill="white"/>
<path d="M91.2379 68.0327L64.6954 83.393C64.6563 83.4148 64.6172 83.4235 64.5737 83.4235C64.5346 83.4235 64.4955 83.4148 64.4564 83.393L49.162 74.5435C49.0968 74.5043 49.0186 74.5522 49.0186 74.6262V82.2476C49.0186 82.2825 49.0359 82.3129 49.0664 82.3304L62.8961 90.3306C63.4176 90.6311 63.9957 90.7835 64.5781 90.7835C65.1605 90.7835 65.7429 90.6311 66.2644 90.3306L89.7036 76.7689C90.7467 76.1679 91.3856 75.053 91.3856 73.8467V68.1111C91.3856 68.037 91.3031 67.9891 91.2422 68.0283L91.2379 68.0327Z" fill="white"/>
<path d="M59.9875 39.6071L53.3986 35.7964C53.3682 35.779 53.3334 35.779 53.303 35.7964L39.4515 43.8097C38.93 44.1102 38.5084 44.5414 38.2215 45.0422C37.9303 45.5474 37.7695 46.1266 37.7695 46.7276V73.851C37.7695 74.9703 38.3258 76.0155 39.2429 76.6382L44.4106 79.6258C44.4758 79.6607 44.554 79.6171 44.554 79.5431V48.8442C44.5497 48.8006 44.5583 48.7614 44.5801 48.7266C44.6018 48.6918 44.6322 48.6613 44.667 48.6395L59.9875 39.7769C60.0527 39.7377 60.0527 39.6463 59.9875 39.6114V39.6071Z" fill="white"/>
<path d="M117.206 75.4082C115.929 75.0355 114.853 74.5849 113.987 74.0476C113.628 73.8223 113.488 73.3717 113.672 72.9904L114.826 70.5639C115.036 70.122 115.579 69.9573 115.999 70.2086C116.76 70.6419 117.617 71.0145 118.58 71.3092C119.883 71.7078 121.169 71.9071 122.438 71.9071C125.333 71.9071 126.777 71.0925 126.777 69.472C126.777 68.7007 126.409 68.1635 125.675 67.8601C124.94 67.5568 123.759 67.2709 122.131 66.9936C120.425 66.7162 119.034 66.4043 117.967 66.0403C116.891 65.685 115.964 65.0524 115.176 64.1598C114.389 63.2672 113.995 62.0193 113.995 60.4248C113.995 58.3363 114.818 56.6638 116.454 55.4072C118.09 54.1593 120.312 53.5267 123.102 53.5267C124.52 53.5267 125.946 53.7001 127.363 54.0467C128.448 54.3067 129.375 54.636 130.163 55.0346C130.556 55.2339 130.714 55.7192 130.53 56.1178L129.384 58.5356C129.183 58.9603 128.667 59.1336 128.255 58.9169C126.689 58.1023 124.966 57.695 123.076 57.695C121.659 57.695 120.574 57.9204 119.839 58.3796C119.104 58.8303 118.737 59.4282 118.737 60.1735C118.737 60.9967 119.131 61.586 119.918 61.924C120.705 62.2706 121.921 62.5913 123.584 62.8946C125.237 63.1719 126.593 63.4839 127.652 63.8478C128.71 64.2031 129.62 64.8097 130.381 65.6677C131.142 66.5169 131.527 67.7302 131.527 69.2987C131.527 71.3612 130.687 73.0164 129.008 74.2556C127.328 75.4948 125.045 76.1101 122.149 76.1101C120.469 76.1101 118.833 75.8761 117.232 75.4082" fill="white"/>
<path d="M139.322 45.1122H142.935C143.714 45.1122 144.064 46.0741 143.478 46.5681L139.27 50.5717C139.121 50.7017 138.928 50.771 138.727 50.771H136.181C135.455 50.771 135.079 49.9218 135.569 49.3845L138.71 45.3808C138.867 45.2075 139.095 45.1122 139.322 45.1122Z" fill="white"/>
<path d="M135.937 53.7781H139.112C139.576 53.7781 139.943 54.1507 139.943 54.6013V74.9836C139.943 75.4428 139.567 75.8068 139.112 75.8068H135.937C135.473 75.8068 135.105 75.4342 135.105 74.9836V54.6013C135.105 54.142 135.482 53.7781 135.937 53.7781Z" fill="white"/>
<path d="M162.454 55.9705C164.028 57.591 164.816 60.0002 164.816 63.1892V74.9922C164.816 75.4515 164.44 75.8155 163.985 75.8155H160.809C160.345 75.8155 159.978 75.4428 159.978 74.9922V63.8478C159.978 61.924 159.549 60.4681 158.701 59.4975C157.852 58.5183 156.636 58.033 155.061 58.033C153.276 58.033 151.868 58.605 150.836 59.7489C149.803 60.8928 149.287 62.5306 149.287 64.6798V74.9922C149.287 75.4515 148.911 75.8155 148.456 75.8155H145.28C144.817 75.8155 144.449 75.4428 144.449 74.9922V54.61C144.449 54.1507 144.825 53.7867 145.28 53.7867H148.22C148.683 53.7867 149.051 54.1593 149.051 54.61V56.6291C149.847 55.6152 150.862 54.844 152.069 54.3153C153.285 53.7954 154.65 53.5354 156.172 53.5354C158.779 53.5354 160.87 54.35 162.454 55.9705Z" fill="white"/>
<path d="M182.488 70.8412C183.415 70.2779 184.15 69.4719 184.701 68.4234C185.244 67.3748 185.515 66.1702 185.515 64.7924C185.515 63.4145 185.244 62.2099 184.701 61.1613C184.159 60.1128 183.424 59.3155 182.488 58.7435C181.561 58.1803 180.511 57.8943 179.347 57.8943C178.184 57.8943 177.143 58.1803 176.207 58.7435C175.279 59.3068 174.544 60.1128 174.002 61.1613C173.46 62.2099 173.188 63.4145 173.188 64.7924C173.188 66.1702 173.46 67.3748 174.002 68.4234C174.544 69.4719 175.279 70.2779 176.207 70.8412C177.134 71.4044 178.184 71.6904 179.347 71.6904C180.511 71.6904 181.552 71.4131 182.488 70.8412ZM190.274 46.022V74.9921C190.274 75.4514 189.898 75.8154 189.443 75.8154H186.46C185.996 75.8154 185.629 75.4428 185.629 74.9921V72.973C184.824 74.0215 183.844 74.8015 182.663 75.3214C181.491 75.8414 180.187 76.11 178.77 76.11C176.784 76.11 174.991 75.6421 173.407 74.7062C171.824 73.7702 170.573 72.4443 169.671 70.7198C168.77 69.004 168.315 67.0282 168.315 64.801C168.315 62.5739 168.77 60.6067 169.671 58.8995C170.573 57.1923 171.824 55.8751 173.407 54.9392C174.999 54.0033 176.784 53.5353 178.77 53.5353C180.135 53.5353 181.394 53.7866 182.532 54.2806C183.669 54.7746 184.64 55.5198 185.436 56.5077V46.022C185.436 45.5627 185.812 45.1987 186.267 45.1987H189.443C189.907 45.1987 190.274 45.5714 190.274 46.022Z" fill="white"/>
<path d="M196.459 53.7781H199.635C200.098 53.7781 200.466 54.1507 200.466 54.6013V74.9836C200.466 75.4428 200.09 75.8068 199.635 75.8068H196.459C195.995 75.8068 195.628 75.4342 195.628 74.9836V54.6013C195.628 54.142 196.004 53.7781 196.459 53.7781Z" fill="white"/>
<path d="M240.726 69.7926C241.89 68.5274 242.467 66.8636 242.467 64.8011C242.467 62.7386 241.89 61.0747 240.726 59.8095C239.563 58.5443 238.093 57.9117 236.308 57.9117C234.524 57.9117 233.063 58.5443 231.908 59.8095C230.762 61.0747 230.184 62.7386 230.184 64.8011C230.184 66.8636 230.762 68.5274 231.908 69.7926C233.054 71.0579 234.524 71.6905 236.308 71.6905C238.093 71.6905 239.563 71.0579 240.726 69.7926ZM230.657 74.6629C228.977 73.701 227.665 72.3578 226.72 70.6419C225.775 68.9261 225.303 66.9762 225.303 64.8011C225.303 62.6259 225.775 60.6848 226.72 58.9776C227.665 57.2704 228.977 55.9359 230.657 54.9739C232.337 54.012 234.217 53.5267 236.317 53.5267C238.417 53.5267 240.333 54.012 242.012 54.9739C243.692 55.9359 245.004 57.2704 245.949 58.9776C246.894 60.6848 247.366 62.6259 247.366 64.8011C247.366 66.9762 246.894 68.9261 245.949 70.6419C245.004 72.3578 243.692 73.701 242.012 74.6629C240.333 75.6248 238.434 76.1101 236.317 76.1101C234.2 76.1101 232.337 75.6248 230.657 74.6629Z" fill="white"/>
<path d="M269.439 55.9705C271.014 57.591 271.801 60.0002 271.801 63.1892V74.9922C271.801 75.4515 271.425 75.8155 270.97 75.8155H267.794C267.331 75.8155 266.963 75.4428 266.963 74.9922V63.8478C266.963 61.924 266.534 60.4681 265.686 59.4975C264.837 58.5183 263.621 58.033 262.046 58.033C260.262 58.033 258.853 58.605 257.821 59.7489C256.789 60.8928 256.272 62.5306 256.272 64.6798V74.9922C256.272 75.4515 255.896 75.8155 255.441 75.8155H252.266C251.802 75.8155 251.435 75.4428 251.435 74.9922V54.61C251.435 54.1507 251.811 53.7867 252.266 53.7867H255.205C255.669 53.7867 256.036 54.1593 256.036 54.61V56.6291C256.832 55.6152 257.847 54.844 259.055 54.3153C260.271 53.7954 261.635 53.5354 263.158 53.5354C265.765 53.5354 267.855 54.35 269.439 55.9705Z" fill="white"/>
<path d="M282.055 59.1249C280.979 60.1042 280.331 61.404 280.095 63.0246H291.835C291.625 61.43 290.996 60.1388 289.937 59.1422C288.878 58.1543 287.557 57.6604 285.983 57.6604C284.408 57.6604 283.122 58.1457 282.046 59.1249M295.589 66.4476H280.13C280.41 68.0681 281.153 69.3594 282.361 70.3039C283.559 71.2572 285.055 71.7251 286.831 71.7251C288.791 71.7251 290.453 71.1272 291.818 69.94C292.177 69.628 292.719 69.6627 293.025 70.0353L294.609 71.9765C294.871 72.2971 294.854 72.7651 294.574 73.0684C293.725 73.9783 292.71 74.6889 291.52 75.1915C290.103 75.7981 288.502 76.1014 286.718 76.1014C284.443 76.1014 282.44 75.6161 280.716 74.6542C278.984 73.6923 277.645 72.3491 276.709 70.6332C275.764 68.9174 275.292 66.9676 275.292 64.7924C275.292 62.6173 275.747 60.7108 276.666 58.9949C277.584 57.2791 278.853 55.9359 280.48 54.9739C282.107 54.012 283.944 53.5267 285.983 53.5267C288.021 53.5267 289.797 54.0034 291.389 54.9479C292.981 55.9012 294.215 57.2357 295.107 58.9516C296 60.6674 296.446 62.6606 296.446 64.9137C296.446 65.1131 296.446 65.3644 296.42 65.6503C296.393 66.0923 296.035 66.4389 295.589 66.4389" fill="white"/>
<path d="M312.744 74.0475C312.875 74.4028 312.744 74.8101 312.42 75.0268C311.965 75.3301 311.458 75.564 310.881 75.7374C310.067 75.9887 309.21 76.11 308.3 76.11C306.025 76.11 304.267 75.4774 303.033 74.2122C301.791 72.9469 301.17 71.1011 301.17 68.6833V58.0762H298.598C298.134 58.0762 297.767 57.7036 297.767 57.253V54.7745C297.767 54.3152 298.143 53.9513 298.598 53.9513H301.17V49.7396C301.17 49.2804 301.546 48.9164 302.001 48.9164H305.177C305.64 48.9164 306.008 49.289 306.008 49.7396V53.9513H310.714C311.178 53.9513 311.545 54.3239 311.545 54.7745V57.253C311.545 57.7123 311.169 58.0762 310.714 58.0762H306.008V68.562C306.008 69.6366 306.253 70.4512 306.743 71.0145C307.232 71.5777 307.941 71.8637 308.877 71.8637C309.603 71.8637 310.251 71.7251 310.811 71.4564C311.248 71.2484 311.773 71.4651 311.939 71.9157L312.727 74.0562L312.744 74.0475Z" fill="white"/>
<path d="M195.487 46.4813L197.823 45.1554C198.006 45.0514 198.234 45.0514 198.418 45.1554L200.753 46.4813C200.937 46.5853 201.051 46.7846 201.051 46.9926V49.627C201.051 49.835 200.937 50.0343 200.753 50.1383L198.418 51.4642C198.234 51.5682 198.006 51.5682 197.823 51.4642L195.487 50.1383C195.303 50.0343 195.189 49.835 195.189 49.627V46.9926C195.189 46.7846 195.303 46.5853 195.487 46.4813Z" fill="white"/>
<path d="M220.823 69.7492C220.595 69.5325 220.237 69.5412 220.027 69.7752C219.607 70.2518 219.134 70.6331 218.618 70.9278C217.726 71.439 216.755 71.6904 215.696 71.6904C213.859 71.6904 212.354 71.0664 211.182 69.8099C210.01 68.562 209.415 66.8894 209.415 64.7923C209.415 62.6951 210.01 61.0313 211.2 59.7747C212.389 58.5268 213.885 57.8942 215.696 57.8942C216.755 57.8942 217.735 58.1455 218.618 58.6568C219.152 58.9601 219.624 59.3501 220.053 59.8354C220.289 60.0954 220.7 60.0954 220.919 59.8181C221.514 59.0641 222.564 57.7382 223.071 57.097C223.238 56.889 223.238 56.5857 223.054 56.3864C222.494 55.7797 221.846 55.2598 221.103 54.8352C219.563 53.9512 217.778 53.5179 215.74 53.5179C213.57 53.5179 211.637 54.0032 209.949 54.9652C208.26 55.9271 206.93 57.2616 205.977 58.9688C205.023 60.676 204.542 62.6171 204.542 64.7923C204.542 66.9674 205.023 68.9086 205.977 70.6331C206.93 72.349 208.26 73.6922 209.966 74.6541C211.672 75.616 213.597 76.1013 215.74 76.1013C217.752 76.1013 219.528 75.6507 221.068 74.7581C221.951 74.2468 222.704 73.5969 223.342 72.8343C223.526 72.6176 223.5 72.2883 223.29 72.089C222.686 71.5084 221.479 70.3558 220.823 69.7405" fill="white"/>
<path d="M417.637 40.0338H337.834C333.968 40.0338 330.835 43.1377 330.835 46.9665V76.9246C330.835 80.7534 333.968 83.8573 337.834 83.8573H417.637C421.503 83.8573 424.636 80.7534 424.636 76.9246V46.9665C424.636 43.1377 421.503 40.0338 417.637 40.0338Z" fill="white"/>
<path d="M364.806 59.2203C364.806 63.1286 361.945 65.4944 357.221 65.4944H352.724V70.9453H350.126V52.9375H357.221C361.945 52.9375 364.806 55.3033 364.806 59.2116V59.2203ZM362.208 59.2203C362.208 56.6465 360.467 55.182 357.142 55.182H352.724V63.2586H357.142C360.467 63.2586 362.208 61.7941 362.208 59.2203Z" fill="#61368F"/>
<path d="M380.781 70.9538L376.861 65.425C376.494 65.451 376.109 65.4769 375.715 65.4769H371.218V70.9538H368.62V52.946H375.715C380.439 52.946 383.3 55.3118 383.3 59.2202C383.3 62.0019 381.848 64.0037 379.302 64.905L383.615 70.9538H380.781ZM380.702 59.2202C380.702 56.6464 378.961 55.1819 375.636 55.1819H371.218V63.2845H375.636C378.961 63.2845 380.702 61.7939 380.702 59.2202Z" fill="#61368F"/>
<path d="M386.021 61.9414C386.021 56.6638 390.124 52.7295 395.705 52.7295C401.287 52.7295 405.346 56.6378 405.346 61.9414C405.346 67.2449 401.243 71.1532 395.705 71.1532C390.167 71.1532 386.021 67.2189 386.021 61.9414ZM402.748 61.9414C402.748 57.955 399.738 55.0173 395.705 55.0173C391.672 55.0173 388.61 57.9464 388.61 61.9414C388.61 65.9363 391.62 68.8654 395.705 68.8654C399.791 68.8654 402.748 65.9363 402.748 61.9414Z" fill="#61368F"/>
<defs>
<linearGradient id="paint0_linear_1811_3437" x1="0" y1="60.131" x2="461.487" y2="60.131" gradientUnits="userSpaceOnUse">
<stop stop-color="#3A2156"/>
<stop offset="0.5" stop-color="#7441AC"/>
<stop offset="1" stop-color="#BAA0D6"/>
</linearGradient>
<linearGradient id="paint1_linear_1811_3437" x1="0" y1="60.131" x2="461.487" y2="60.131" gradientUnits="userSpaceOnUse">
<stop stop-color="#BAA0D6"/>
<stop offset="0.5" stop-color="#7441AC"/>
<stop offset="1" stop-color="#3A2156"/>
</linearGradient>
</defs>
</svg>
