<svg width="675" height="108" viewBox="0 0 675 108" fill="none" xmlns="http://www.w3.org/2000/svg">
<path d="M662.555 17.8467H523.363C516.622 17.8467 511.156 23.2604 511.156 29.9385V82.1904C511.156 88.8686 516.622 94.2823 523.363 94.2823H662.555C669.296 94.2823 674.762 88.8686 674.762 82.1904V29.9385C674.762 23.2604 669.296 17.8467 662.555 17.8467Z" fill="url(#paint0_linear_2454_283)"/>
<path d="M570.406 51.3109C570.406 58.1277 565.416 62.254 557.177 62.254H549.334V71.7612H544.802V40.3527H557.177C565.416 40.3527 570.406 44.479 570.406 51.2958V51.3109ZM565.874 51.3109C565.874 46.8218 562.838 44.2674 557.039 44.2674H549.334V58.3544H557.039C562.838 58.3544 565.874 55.8 565.874 51.3109Z" fill="white"/>
<path d="M598.268 71.7764L591.432 62.1331C590.792 62.1785 590.12 62.2238 589.434 62.2238H581.59V71.7764H577.059V40.3678H589.434C597.673 40.3678 602.663 44.4941 602.663 51.3109C602.663 56.1628 600.13 59.6543 595.69 61.2262L603.212 71.7764H598.268ZM598.131 51.3109C598.131 46.8218 595.095 44.2674 589.296 44.2674H581.59V58.3998H589.296C595.095 58.3998 598.131 55.8 598.131 51.3109Z" fill="white"/>
<path d="M607.409 56.0569C607.409 46.852 614.566 39.9899 624.301 39.9899C634.036 39.9899 641.116 46.8067 641.116 56.0569C641.116 65.3072 633.96 72.124 624.301 72.124C614.642 72.124 607.409 65.2618 607.409 56.0569ZM636.584 56.0569C636.584 49.1041 631.335 43.9802 624.301 43.9802C617.266 43.9802 611.926 49.089 611.926 56.0569C611.926 63.0248 617.175 68.1337 624.301 68.1337C631.427 68.1337 636.584 63.0248 636.584 56.0569Z" fill="white"/>
<path d="M138.551 79.5454C136.323 78.8955 134.446 78.1095 132.935 77.1724C132.31 76.7794 132.066 75.9934 132.386 75.3284L134.4 71.0962C134.766 70.3254 135.712 70.0382 136.445 70.4765C137.772 71.2323 139.268 71.8822 140.946 72.3961C143.22 73.0914 145.463 73.439 147.675 73.439C152.726 73.439 155.244 72.0182 155.244 69.1918C155.244 67.8465 154.603 66.9094 153.321 66.3804C152.039 65.8514 149.979 65.3526 147.141 64.8689C144.166 64.3852 141.74 63.8411 139.878 63.2063C138.001 62.5866 136.384 61.4832 135.011 59.9264C133.637 58.3695 132.951 56.193 132.951 53.4119C132.951 49.7692 134.385 46.8521 137.238 44.6604C140.092 42.4839 143.967 41.3805 148.835 41.3805C151.307 41.3805 153.794 41.6828 156.266 42.2874C158.158 42.7408 159.776 43.3152 161.149 44.0105C161.836 44.3581 162.11 45.2045 161.79 45.8998L159.791 50.1169C159.44 50.8575 158.54 51.1598 157.823 50.7819C155.091 49.3611 152.085 48.6507 148.789 48.6507C146.317 48.6507 144.425 49.0437 143.144 49.8448C141.862 50.6308 141.221 51.6737 141.221 52.9736C141.221 54.4095 141.908 55.4373 143.281 56.0267C144.654 56.6313 146.775 57.1906 149.674 57.7196C152.558 58.2033 154.923 58.7474 156.77 59.3822C158.616 60.0019 160.203 61.06 161.53 62.5563C162.858 64.0376 163.529 66.1537 163.529 68.8895C163.529 72.4868 162.064 75.3737 159.135 77.5351C156.205 79.6965 152.223 80.7697 147.172 80.7697C144.242 80.7697 141.389 80.3616 138.596 79.5454" fill="#3D3D3D"/>
<path d="M177.125 26.704H183.427C184.785 26.704 185.396 28.3817 184.373 29.2433L177.034 36.2263C176.774 36.453 176.439 36.574 176.088 36.574H171.647C170.381 36.574 169.725 35.0927 170.579 34.1556L176.057 27.1725C176.332 26.8702 176.729 26.704 177.125 26.704Z" fill="#3D3D3D"/>
<path d="M171.22 41.8188H176.759C177.568 41.8188 178.209 42.4688 178.209 43.2548V78.8048C178.209 79.6059 177.553 80.2407 176.759 80.2407H171.22C170.411 80.2407 169.771 79.5908 169.771 78.8048V43.2548C169.771 42.4537 170.427 41.8188 171.22 41.8188Z" fill="#3D3D3D"/>
<path d="M217.469 45.6429C220.216 48.4694 221.589 52.6713 221.589 58.2335V78.8199C221.589 79.621 220.933 80.2558 220.139 80.2558H214.6C213.792 80.2558 213.151 79.6059 213.151 78.8199V59.3823C213.151 56.0268 212.403 53.4875 210.923 51.7946C209.443 50.0866 207.322 49.2402 204.575 49.2402C201.463 49.2402 199.006 50.2378 197.205 52.233C195.405 54.2281 194.505 57.0848 194.505 60.8333V78.8199C194.505 79.621 193.848 80.2558 193.055 80.2558H187.516C186.707 80.2558 186.066 79.6059 186.066 78.8199V43.2699C186.066 42.4688 186.723 41.834 187.516 41.834H192.643C193.452 41.834 194.093 42.4839 194.093 43.2699V46.7916C195.481 45.0232 197.251 43.678 199.357 42.756C201.478 41.8491 203.858 41.3956 206.513 41.3956C211.06 41.3956 214.707 42.8164 217.469 45.6429Z" fill="#3D3D3D"/>
<path d="M252.412 71.58C254.029 70.5975 255.311 69.1918 256.272 67.3629C257.218 65.534 257.691 63.4331 257.691 61.0298C257.691 58.6266 257.218 56.5256 256.272 54.6967C255.326 52.8678 254.044 51.4773 252.412 50.4797C250.794 49.4972 248.963 48.9984 246.934 48.9984C244.904 48.9984 243.089 49.4972 241.456 50.4797C239.838 51.4621 238.557 52.8678 237.611 54.6967C236.665 56.5256 236.192 58.6266 236.192 61.0298C236.192 63.4331 236.665 65.534 237.611 67.3629C238.557 69.1918 239.838 70.5975 241.456 71.58C243.073 72.5624 244.904 73.0612 246.934 73.0612C248.963 73.0612 250.779 72.5775 252.412 71.58ZM265.992 28.2911V78.82C265.992 79.621 265.336 80.2559 264.542 80.2559H259.339C258.531 80.2559 257.89 79.6059 257.89 78.82V75.2982C256.486 77.1271 254.777 78.4874 252.717 79.3943C250.672 80.3012 248.399 80.7698 245.927 80.7698C242.463 80.7698 239.335 79.9536 236.573 78.3212C233.811 76.6888 231.629 74.3762 230.058 71.3684C228.486 68.3756 227.692 64.9294 227.692 61.0449C227.692 57.1604 228.486 53.7294 230.058 50.7517C231.629 47.7741 233.811 45.4767 236.573 43.8443C239.35 42.2119 242.463 41.3957 245.927 41.3957C248.307 41.3957 250.504 41.834 252.488 42.6956C254.472 43.5571 256.165 44.857 257.554 46.5801V28.2911C257.554 27.49 258.21 26.8552 259.004 26.8552H264.542C265.351 26.8552 265.992 27.5052 265.992 28.2911Z" fill="#3D3D3D"/>
<path d="M276.781 41.8188H282.32C283.128 41.8188 283.769 42.4688 283.769 43.2548V78.8048C283.769 79.6059 283.113 80.2407 282.32 80.2407H276.781C275.972 80.2407 275.331 79.5908 275.331 78.8048V43.2548C275.331 42.4537 275.987 41.8188 276.781 41.8188Z" fill="#3D3D3D"/>
<path d="M353.99 69.751C356.02 67.5442 357.027 64.6422 357.027 61.0449C357.027 57.4475 356.02 54.5455 353.99 52.3387C351.961 50.132 349.397 49.0286 346.285 49.0286C343.172 49.0286 340.623 50.132 338.609 52.3387C336.61 54.5455 335.603 57.4475 335.603 61.0449C335.603 64.6422 336.61 67.5442 338.609 69.751C340.608 71.9578 343.172 73.0611 346.285 73.0611C349.397 73.0611 351.961 71.9578 353.99 69.751ZM336.427 78.2455C333.498 76.5678 331.209 74.225 329.561 71.2323C327.913 68.2395 327.089 64.8387 327.089 61.0449C327.089 57.251 327.913 53.8653 329.561 50.8877C331.209 47.9101 333.498 45.5824 336.427 43.9047C339.357 42.2269 342.638 41.3805 346.3 41.3805C349.962 41.3805 353.304 42.2269 356.233 43.9047C359.163 45.5824 361.452 47.9101 363.1 50.8877C364.748 53.8653 365.572 57.251 365.572 61.0449C365.572 64.8387 364.748 68.2395 363.1 71.2323C361.452 74.225 359.163 76.5678 356.233 78.2455C353.304 79.9233 349.992 80.7697 346.3 80.7697C342.607 80.7697 339.357 79.9233 336.427 78.2455Z" fill="#3D3D3D"/>
<path d="M404.07 45.6429C406.816 48.4694 408.19 52.6713 408.19 58.2335V78.8199C408.19 79.621 407.533 80.2558 406.74 80.2558H401.201C400.392 80.2558 399.751 79.6059 399.751 78.8199V59.3823C399.751 56.0268 399.004 53.4875 397.524 51.7946C396.044 50.0866 393.923 49.2402 391.176 49.2402C388.063 49.2402 385.607 50.2378 383.806 52.233C382.005 54.2281 381.105 57.0848 381.105 60.8333V78.8199C381.105 79.621 380.449 80.2558 379.656 80.2558H374.117C373.308 80.2558 372.667 79.6059 372.667 78.8199V43.2699C372.667 42.4688 373.323 41.834 374.117 41.834H379.244C380.052 41.834 380.693 42.4839 380.693 43.2699V46.7916C382.082 45.0232 383.852 43.678 385.957 42.756C388.078 41.8491 390.459 41.3956 393.114 41.3956C397.661 41.3956 401.308 42.8164 404.07 45.6429Z" fill="#3D3D3D"/>
<path d="M426.073 51.1447C424.197 52.8526 423.067 55.1199 422.655 57.9463H443.133C442.767 55.1652 441.668 52.9131 439.822 51.1749C437.975 49.4518 435.671 48.5903 432.925 48.5903C430.178 48.5903 427.935 49.4367 426.058 51.1447M449.679 63.9167H422.716C423.205 66.7432 424.502 68.9953 426.607 70.6428C428.698 72.3054 431.307 73.1216 434.405 73.1216C437.823 73.1216 440.722 72.0787 443.102 70.008C443.728 69.4638 444.674 69.5243 445.208 70.1742L447.97 73.5599C448.428 74.1192 448.397 74.9354 447.909 75.4644C446.429 77.0515 444.659 78.2909 442.583 79.1675C440.112 80.2256 437.319 80.7546 434.206 80.7546C430.239 80.7546 426.745 79.9082 423.739 78.2304C420.718 76.5527 418.383 74.2099 416.75 71.2171C415.102 68.2244 414.278 64.8236 414.278 61.0298C414.278 57.2359 415.072 53.9107 416.674 50.9179C418.276 47.9252 420.489 45.5824 423.327 43.9047C426.165 42.2269 429.369 41.3805 432.925 41.3805C436.48 41.3805 439.577 42.2118 442.355 43.8593C445.132 45.522 447.283 47.8496 448.84 50.8424C450.396 53.8351 451.174 57.3115 451.174 61.2414C451.174 61.589 451.174 62.0273 451.128 62.5261C451.083 63.297 450.457 63.9016 449.679 63.9016" fill="#3D3D3D"/>
<path d="M479.601 77.1724C479.83 77.7921 479.601 78.5025 479.036 78.8804C478.243 79.4094 477.358 79.8175 476.351 80.1198C474.931 80.5582 473.436 80.7698 471.849 80.7698C467.882 80.7698 464.815 79.6664 462.663 77.4596C460.497 75.2529 459.413 72.0334 459.413 67.8164V49.3158H454.927C454.118 49.3158 453.478 48.6659 453.478 47.8799V43.5571C453.478 42.756 454.134 42.1212 454.927 42.1212H459.413V34.7754C459.413 33.9743 460.069 33.3395 460.863 33.3395H466.402C467.211 33.3395 467.851 33.9894 467.851 34.7754V42.1212H476.061C476.869 42.1212 477.51 42.7711 477.51 43.5571V47.8799C477.51 48.681 476.854 49.3158 476.061 49.3158H467.851V67.6048C467.851 69.479 468.279 70.8998 469.133 71.8823C469.988 72.8647 471.224 73.3635 472.856 73.3635C474.123 73.3635 475.252 73.1217 476.228 72.6531C476.991 72.2904 477.907 72.6682 478.197 73.4542L479.57 77.1876L479.601 77.1724Z" fill="#3D3D3D"/>
<path d="M275.087 29.0922L279.161 26.7796C279.482 26.5982 279.878 26.5982 280.199 26.7796L284.273 29.0922C284.593 29.2735 284.792 29.6212 284.792 29.9839V34.5788C284.792 34.9416 284.593 35.2892 284.273 35.4706L280.199 37.7832C279.878 37.9646 279.482 37.9646 279.161 37.7832L275.087 35.4706C274.767 35.2892 274.568 34.9416 274.568 34.5788V29.9839C274.568 29.6212 274.767 29.2735 275.087 29.0922Z" fill="#3D3D3D"/>
<path d="M319.277 69.6754C318.88 69.2975 318.254 69.3126 317.888 69.7207C317.156 70.5521 316.332 71.2171 315.431 71.731C313.875 72.6228 312.181 73.0611 310.335 73.0611C307.131 73.0611 304.506 71.9729 302.461 69.7812C300.417 67.6047 299.379 64.6875 299.379 61.0297C299.379 57.3719 300.417 54.4699 302.492 52.2783C304.567 50.1017 307.176 48.9983 310.335 48.9983C312.181 48.9983 313.89 49.4367 315.431 50.3284C316.362 50.8575 317.186 51.5376 317.934 52.3841C318.346 52.8375 319.063 52.8375 319.444 52.3538C320.482 51.0388 322.313 48.7263 323.198 47.6078C323.488 47.245 323.488 46.716 323.168 46.3684C322.191 45.3103 321.062 44.4034 319.765 43.6628C317.079 42.1211 313.967 41.3654 310.411 41.3654C306.627 41.3654 303.255 42.2118 300.31 43.8895C297.365 45.5673 295.046 47.895 293.382 50.8726C291.719 53.8502 290.88 57.2359 290.88 61.0297C290.88 64.8235 291.719 68.2093 293.382 71.2171C295.046 74.2098 297.365 76.5526 300.34 78.2304C303.316 79.9081 306.673 80.7546 310.411 80.7546C313.921 80.7546 317.018 79.9686 319.704 78.4118C321.245 77.52 322.557 76.3864 323.671 75.0563C323.992 74.6784 323.946 74.104 323.58 73.7564C322.527 72.7437 320.421 70.7334 319.277 69.6603" fill="#3D3D3D"/>
<path d="M93.617 26.8476C93.1042 25.958 92.3618 25.1987 91.4433 24.6694L50.1724 0.793809C48.3354 -0.264603 46.0775 -0.264603 44.2405 0.793809L35.5148 5.84044C35.4 5.9018 35.4 6.07053 35.5148 6.13189L47.3634 12.9886C47.3634 12.9886 47.4016 13.0039 47.4169 13.0116L82.266 33.1751C82.3272 33.2134 82.3808 33.2671 82.4191 33.3285C82.4574 33.3898 82.4727 33.4589 82.4727 33.5356V64.7357C82.4727 64.8661 82.6181 64.9505 82.7253 64.8815L94.3289 58.1705C94.3824 58.1398 94.4131 58.0862 94.4131 58.0248V29.8158C94.4131 28.7574 94.1299 27.7373 93.617 26.8476Z" fill="#9771C1"/>
<path d="M94.1604 67.3281L47.4169 94.379C47.348 94.4174 47.2791 94.4327 47.2026 94.4327C47.1337 94.4327 47.0648 94.4174 46.9959 94.379L20.0612 78.7943C19.9464 78.7252 19.8086 78.8096 19.8086 78.94V92.3619C19.8086 92.4233 19.8392 92.4769 19.8928 92.5076L44.2481 106.597C45.1666 107.126 46.1846 107.394 47.2102 107.394C48.2359 107.394 49.2615 107.126 50.18 106.597L91.4585 82.7135C93.2955 81.6551 94.4207 79.6916 94.4207 77.5671V67.4662C94.4207 67.3358 94.2753 67.2514 94.1681 67.3205L94.1604 67.3281Z" fill="#61368F"/>
<path d="M39.1277 17.2683L27.5241 10.5573C27.4705 10.5266 27.4093 10.5266 27.3557 10.5573L2.96213 24.6695C2.04364 25.1987 1.3012 25.958 0.796026 26.84C0.283201 27.7297 0 28.7497 0 29.8081V77.5748C0 79.5459 0.979724 81.3866 2.59474 82.4834L11.6955 87.7447C11.8103 87.8061 11.948 87.7294 11.948 87.599V33.5356C11.9404 33.4589 11.9557 33.3899 11.994 33.3285C12.0322 33.2672 12.0858 33.2135 12.147 33.1751L39.1277 17.5674C39.2425 17.4983 39.2425 17.3373 39.1277 17.2759V17.2683Z" fill="#7441AC"/>
<defs>
<linearGradient id="paint0_linear_2454_283" x1="511.156" y1="56.0645" x2="674.762" y2="56.0645" gradientUnits="userSpaceOnUse">
<stop stop-color="#3A2156"/>
<stop offset="0.5" stop-color="#7441AC"/>
<stop offset="1" stop-color="#BAA0D6"/>
</linearGradient>
</defs>
</svg>
