<svg width="87" height="99" viewBox="0 0 87 99" fill="none" xmlns="http://www.w3.org/2000/svg">
<g clip-path="url(#clip0_1811_3476)">
<path d="M86.2049 24.7253C85.7326 23.9061 85.049 23.2069 84.2032 22.7196L46.2003 0.734494C44.5088 -0.240111 42.4296 -0.240111 40.7381 0.734494L32.7033 5.38152C32.5976 5.43802 32.5976 5.59339 32.7033 5.64989L43.6137 11.9636C43.6137 11.9636 43.6489 11.9778 43.663 11.9848L75.7526 30.5518C75.809 30.5871 75.8584 30.6365 75.8936 30.693C75.9288 30.7495 75.9429 30.8131 75.9429 30.8837V59.6134C75.9429 59.7334 76.0769 59.8111 76.1755 59.7475L86.8603 53.568C86.9097 53.5397 86.9379 53.4903 86.9379 53.4338V27.4584C86.9379 26.4838 86.6771 25.5445 86.2049 24.7253Z" fill="#9664C1"/>
<path d="M86.7047 62.0004L43.6625 86.9093C43.599 86.9446 43.5356 86.9587 43.4651 86.9587C43.4017 86.9587 43.3383 86.9446 43.2748 86.9093L18.4728 72.5586C18.3671 72.495 18.2402 72.5727 18.2402 72.6928V85.0519C18.2402 85.1084 18.2684 85.1578 18.3178 85.1861L40.7446 98.1596C41.5903 98.6469 42.5277 98.8941 43.4722 98.8941C44.4166 98.8941 45.361 98.6469 46.2068 98.1596L84.2168 76.1675C85.9083 75.1929 86.9444 73.3849 86.9444 71.4286V62.1275C86.9444 62.0074 86.8105 61.9298 86.7118 61.9933L86.7047 62.0004Z" fill="#5D2E85"/>
<path d="M36.0295 15.9044L25.3447 9.7248C25.2954 9.69655 25.239 9.69655 25.1896 9.7248L2.72759 22.7195C1.88182 23.2068 1.19816 23.906 0.732994 24.7182C0.260777 25.5374 0 26.4767 0 27.4513V71.4357C0 73.2507 0.902147 74.9457 2.38928 75.9556L10.7694 80.8004C10.8751 80.8568 11.002 80.7862 11.002 80.6662V30.8836C10.9949 30.813 11.009 30.7494 11.0443 30.6929C11.0795 30.6364 11.1288 30.587 11.1852 30.5517L36.0295 16.1798C36.1352 16.1162 36.1352 15.9679 36.0295 15.9114V15.9044Z" fill="#7C3DB2"/>
</g>
<defs>
<clipPath id="clip0_1811_3476">
<rect width="86.9374" height="98.9012" fill="white"/>
</clipPath>
</defs>
</svg>
