<svg width="438" height="100" viewBox="0 0 438 100" fill="none" xmlns="http://www.w3.org/2000/svg">
<path d="M120.657 62.219C118.587 61.6173 116.846 60.8819 115.432 60.0351C114.844 59.6786 114.629 58.9432 114.923 58.3303L116.789 54.4082C117.128 53.6951 117.999 53.4388 118.689 53.8288C119.922 54.5308 121.313 55.1213 122.874 55.6005C124.989 56.2467 127.07 56.5698 129.129 56.5698C133.822 56.5698 136.175 55.2662 136.175 52.6366C136.175 51.3998 135.575 50.5307 134.388 50.0404C133.189 49.5501 131.277 49.0822 128.631 48.6476C125.871 48.2019 123.609 47.6894 121.879 47.1211C120.137 46.5417 118.633 45.5389 117.355 44.0904C116.077 42.653 115.432 40.6362 115.432 38.0624C115.432 34.6862 116.766 31.9898 119.424 29.973C122.082 27.9562 125.679 26.9423 130.203 26.9423C132.51 26.9423 134.818 27.2208 137.125 27.7779C138.878 28.2013 140.394 28.7362 141.66 29.3713C142.305 29.6944 142.554 30.4744 142.248 31.1207L140.382 35.0316C140.054 35.7113 139.229 36.001 138.55 35.6445C136.016 34.3297 133.212 33.6723 130.146 33.6723C127.839 33.6723 126.086 34.04 124.899 34.7753C123.7 35.5107 123.112 36.469 123.112 37.6724C123.112 39.0095 123.745 39.9454 125.034 40.5025C126.312 41.0596 128.292 41.5833 130.972 42.0625C133.653 42.5082 135.858 43.0207 137.577 43.589C139.296 44.1684 140.778 45.1489 142.011 46.5194C143.244 47.9011 143.866 49.851 143.866 52.3803C143.866 55.7119 142.509 58.3749 139.783 60.3694C137.057 62.3639 133.347 63.3667 128.654 63.3667C125.928 63.3667 123.27 62.9878 120.668 62.2302" fill="#FFFFFF"/>
<path d="M156.544 13.3374H162.414C163.67 13.3374 164.247 14.8862 163.285 15.6885L156.454 22.1511C156.205 22.3516 155.9 22.463 155.583 22.463H151.455C150.279 22.463 149.657 21.0814 150.46 20.2346L155.549 13.772C155.809 13.4934 156.171 13.3374 156.544 13.3374Z" fill="#FFFFFF"/>
<path d="M151.048 27.3211H156.205C156.952 27.3211 157.562 27.9228 157.562 28.6582V61.5505C157.562 62.2859 156.952 62.8876 156.205 62.8876H151.048C150.301 62.8876 149.69 62.2859 149.69 61.5505V28.6582C149.69 27.9228 150.301 27.3211 151.048 27.3211Z" fill="#FFFFFF"/>
<path d="M194.072 30.8532C196.628 33.4717 197.906 37.3604 197.906 42.5082V61.5505C197.906 62.2859 197.295 62.8876 196.549 62.8876H191.392C190.645 62.8876 190.034 62.2859 190.034 61.5505V43.5667C190.034 40.458 189.344 38.1181 187.965 36.5359C186.585 34.9648 184.605 34.1737 182.049 34.1737C179.154 34.1737 176.869 35.0985 175.195 36.937C173.521 38.7755 172.684 41.4274 172.684 44.8926V61.5393C172.684 62.2747 172.074 62.8764 171.327 62.8764H166.17C165.423 62.8764 164.812 62.2747 164.812 61.5393V28.6471C164.812 27.9117 165.423 27.31 166.17 27.31H170.943C171.689 27.31 172.3 27.9117 172.3 28.6471V31.9118C173.601 30.2738 175.229 29.0259 177.209 28.1791C179.176 27.3323 181.405 26.9088 183.87 26.9088C188.1 26.9088 191.493 28.2236 194.049 30.8421" fill="#FFFFFF"/>
<path d="M226.577 54.8651C228.082 53.9514 229.281 52.6589 230.163 50.9652C231.045 49.2827 231.486 47.3217 231.486 45.1043C231.486 42.887 231.045 40.9371 230.163 39.2434C229.281 37.5609 228.093 36.2573 226.577 35.3436C225.073 34.4299 223.377 33.9731 221.488 33.9731C219.599 33.9731 217.902 34.4299 216.398 35.3436C214.894 36.2573 213.695 37.5498 212.813 39.2434C211.931 40.9371 211.49 42.887 211.49 45.1043C211.49 47.3217 211.931 49.2827 212.813 50.9652C213.695 52.6589 214.883 53.9514 216.398 54.8651C217.902 55.7787 219.599 56.2244 221.488 56.2244C223.377 56.2244 225.073 55.7676 226.577 54.8651ZM239.211 14.8082V61.5616C239.211 62.297 238.6 62.8987 237.854 62.8987H233.013C232.266 62.8987 231.656 62.297 231.656 61.5616V58.2969C230.355 59.9905 228.749 61.2496 226.849 62.0965C224.937 62.9433 222.834 63.3667 220.526 63.3667C217.303 63.3667 214.396 62.609 211.818 61.1048C209.239 59.6006 207.214 57.4501 205.755 54.6756C204.285 51.9012 203.55 48.7145 203.55 45.1155C203.55 41.5165 204.285 38.3409 205.755 35.5887C207.226 32.8366 209.239 30.7084 211.818 29.193C214.396 27.6888 217.292 26.9311 220.526 26.9311C222.743 26.9311 224.779 27.3322 226.623 28.1345C228.466 28.9367 230.038 30.129 231.339 31.7335V14.8194C231.339 14.084 231.95 13.4823 232.696 13.4823H237.854C238.6 13.4823 239.211 14.084 239.211 14.8194" fill="#FFFFFF"/>
<path d="M249.243 27.3211H254.4C255.147 27.3211 255.758 27.9228 255.758 28.6582V61.5505C255.758 62.2859 255.147 62.8876 254.4 62.8876H249.243C248.496 62.8876 247.886 62.2859 247.886 61.5505V28.6582C247.886 27.9228 248.496 27.3211 249.243 27.3211Z" fill="#FFFFFF"/>
<path d="M321.075 53.1603C322.964 51.1212 323.902 48.4359 323.902 45.1043C323.902 41.7728 322.964 39.0875 321.075 37.0484C319.186 35.0094 316.8 33.9843 313.904 33.9843C311.009 33.9843 308.634 35.0094 306.767 37.0484C304.901 39.0875 303.974 41.7728 303.974 45.1043C303.974 48.4359 304.901 51.1212 306.767 53.1603C308.634 55.1993 311.009 56.2244 313.904 56.2244C316.8 56.2244 319.186 55.1993 321.075 53.1603ZM304.732 61.0157C302.006 59.4669 299.879 57.2941 298.353 54.5196C296.826 51.7452 296.057 48.603 296.057 45.0932C296.057 41.5834 296.826 38.4523 298.353 35.7002C299.879 32.948 302.006 30.7975 304.732 29.2376C307.457 27.6888 310.511 26.9088 313.915 26.9088C317.32 26.9088 320.43 27.6888 323.156 29.2376C325.882 30.7975 328.008 32.948 329.535 35.7002C331.062 38.4523 331.831 41.5834 331.831 45.0932C331.831 48.603 331.062 51.7452 329.535 54.5196C328.008 57.2941 325.882 59.4557 323.156 61.0157C320.43 62.5756 317.354 63.3444 313.915 63.3444C310.477 63.3444 307.457 62.5644 304.732 61.0157Z" fill="#FFFFFF"/>
<path d="M367.661 30.8532C370.217 33.4717 371.495 37.3604 371.495 42.5082V61.5505C371.495 62.2859 370.884 62.8876 370.138 62.8876H364.98C364.234 62.8876 363.623 62.2859 363.623 61.5505V43.5667C363.623 40.458 362.933 38.1181 361.553 36.5359C360.174 34.9648 358.194 34.1737 355.638 34.1737C352.743 34.1737 350.458 35.0985 348.784 36.937C347.11 38.7755 346.273 41.4274 346.273 44.8926V61.5393C346.273 62.2747 345.663 62.8764 344.916 62.8764H339.759C339.012 62.8764 338.401 62.2747 338.401 61.5393V28.6471C338.401 27.9117 339.012 27.31 339.759 27.31H344.531C345.278 27.31 345.889 27.9117 345.889 28.6471V31.9118C347.189 30.2738 348.818 29.0259 350.797 28.1791C352.765 27.3323 354.993 26.9088 357.459 26.9088C361.689 26.9088 365.082 28.2236 367.638 30.8421" fill="#FFFFFF"/>
<path d="M388.121 35.9453C386.38 37.5164 385.328 39.6223 384.943 42.2408H403.99C403.65 39.6669 402.621 37.5832 400.913 35.9787C399.194 34.3854 397.056 33.5831 394.5 33.5831C391.944 33.5831 389.863 34.3742 388.121 35.9453ZM410.086 47.7674H385.011C385.475 50.3858 386.674 52.4583 388.63 53.996C390.576 55.5225 392.996 56.2913 395.891 56.2913C399.07 56.2913 401.773 55.333 403.99 53.4166C404.566 52.9151 405.46 52.9709 405.946 53.5614L408.514 56.6924C408.943 57.205 408.91 57.9626 408.446 58.4529C407.077 59.9237 405.426 61.0714 403.492 61.8848C401.185 62.8653 398.583 63.3444 395.699 63.3444C392.012 63.3444 388.766 62.5644 385.95 61.0157C383.145 59.4669 380.973 57.2941 379.446 54.5196C377.919 51.7452 377.15 48.603 377.15 45.0932C377.15 41.5834 377.897 38.5081 379.379 35.7336C380.86 32.9592 382.93 30.7975 385.565 29.2376C388.2 27.6777 391.186 26.9088 394.489 26.9088C397.792 26.9088 400.676 27.6777 403.254 29.2042C405.833 30.7307 407.846 32.8923 409.294 35.6667C410.742 38.4412 411.466 41.6502 411.466 45.2938C411.466 45.6169 411.454 46.018 411.42 46.486C411.386 47.1991 410.787 47.7562 410.063 47.7562" fill="#FFFFFF"/>
<path d="M437.909 60.024C438.124 60.6034 437.909 61.2608 437.389 61.5951C436.654 62.0742 435.817 62.4642 434.889 62.7427C433.566 63.1438 432.175 63.3444 430.705 63.3444C427.017 63.3444 424.167 62.3193 422.154 60.2803C420.141 58.2412 419.134 55.2662 419.134 51.3552V34.2405H414.961C414.214 34.2405 413.604 33.6388 413.604 32.9034V28.9145C413.604 28.1791 414.214 27.5774 414.961 27.5774H419.134V20.7805C419.134 20.0451 419.745 19.4435 420.491 19.4435H425.649C426.395 19.4435 427.006 20.0451 427.006 20.7805V27.5774H434.641C435.387 27.5774 435.998 28.1791 435.998 28.9145V32.9034C435.998 33.6388 435.387 34.2405 434.641 34.2405H427.006V51.1546C427.006 52.8817 427.402 54.2077 428.205 55.1213C428.997 56.035 430.15 56.4918 431.666 56.4918C432.842 56.4918 433.894 56.269 434.81 55.8344C435.523 55.489 436.371 55.8456 436.642 56.581L437.921 60.0351L437.909 60.024Z" fill="#FFFFFF"/>
<path d="M247.671 15.5436L251.46 13.4043C251.754 13.2371 252.127 13.2371 252.421 13.4043L256.21 15.5436C256.516 15.7108 256.696 16.0339 256.696 16.3682V20.6245C256.696 20.97 256.516 21.2819 256.21 21.4491L252.421 23.5884C252.127 23.7555 251.754 23.7555 251.46 23.5884L247.671 21.4491C247.366 21.2819 247.185 20.9588 247.185 20.6245V16.3682C247.185 16.0227 247.366 15.7108 247.671 15.5436Z" fill="#FFFFFF"/>
<path d="M288.772 53.0934C288.41 52.748 287.822 52.7591 287.483 53.138C286.804 53.8957 286.035 54.5196 285.198 54.9988C283.751 55.8233 282.167 56.2356 280.448 56.2356C277.473 56.2356 275.03 55.2216 273.13 53.2048C271.219 51.1881 270.269 48.4916 270.269 45.1155C270.269 41.7393 271.23 39.0429 273.164 37.0261C275.087 35.0093 277.519 33.9954 280.459 33.9954C282.178 33.9954 283.762 34.4077 285.21 35.2322C286.069 35.7225 286.85 36.3576 287.539 37.1375C287.913 37.5609 288.591 37.5609 288.942 37.1152C289.915 35.9007 291.611 33.7614 292.425 32.7252C292.697 32.3909 292.686 31.9006 292.392 31.5775C291.475 30.597 290.435 29.7613 289.236 29.0705C286.736 27.6442 283.841 26.9423 280.527 26.9423C277.01 26.9423 273.877 27.7222 271.128 29.271C268.38 30.8309 266.231 32.9814 264.681 35.7336C263.132 38.4858 262.352 41.6168 262.352 45.1266C262.352 48.6365 263.132 51.7786 264.681 54.5531C266.231 57.3275 268.391 59.4891 271.162 61.0491C273.933 62.609 277.055 63.3778 280.527 63.3778C283.796 63.3778 286.68 62.6536 289.168 61.2162C290.605 60.3917 291.826 59.3443 292.867 58.1186C293.161 57.7621 293.115 57.2384 292.787 56.9152C291.803 55.9793 289.847 54.1185 288.795 53.1157" fill="#FFFFFF"/>
<path d="M122.218 87.6348C121.325 87.6348 120.499 87.4899 119.73 87.1891C118.961 86.8883 118.305 86.476 117.751 85.9412C117.197 85.4063 116.755 84.7823 116.45 84.0692C116.145 83.3561 115.986 82.5762 115.986 81.7293C115.986 80.8825 116.145 80.1026 116.45 79.3894C116.767 78.6763 117.197 78.0524 117.751 77.5175C118.305 76.9827 118.961 76.5704 119.719 76.2696C120.476 75.9687 121.313 75.8239 122.207 75.8239C123.1 75.8239 123.926 75.9687 124.673 76.2584C125.43 76.5481 126.086 76.9604 126.641 77.4952C127.206 78.0301 127.636 78.654 127.941 79.3672C128.247 80.0803 128.405 80.8714 128.405 81.7293C128.405 82.5873 128.247 83.3673 127.941 84.0915C127.636 84.8046 127.195 85.4286 126.641 85.9634C126.086 86.4983 125.419 86.9105 124.673 87.2002C123.915 87.4899 123.1 87.6348 122.207 87.6348H122.218ZM122.218 86.164C122.863 86.164 123.462 86.0526 124.017 85.8297C124.571 85.6069 125.046 85.2949 125.453 84.8938C125.86 84.4927 126.177 84.0247 126.403 83.4898C126.629 82.955 126.742 82.3645 126.742 81.7293C126.742 81.0942 126.629 80.5037 126.403 79.9688C126.177 79.434 125.86 78.966 125.453 78.5649C125.046 78.1638 124.571 77.8518 124.017 77.6289C123.462 77.4061 122.863 77.2947 122.218 77.2947C121.574 77.2947 120.952 77.4061 120.409 77.6289C119.854 77.8518 119.379 78.1638 118.961 78.5649C118.542 78.966 118.226 79.434 118 79.9688C117.773 80.5037 117.66 81.0942 117.66 81.7293C117.66 82.3645 117.773 82.955 118 83.4898C118.226 84.0247 118.554 84.4927 118.961 84.8938C119.368 85.2949 119.854 85.6069 120.409 85.8297C120.963 86.0526 121.562 86.164 122.218 86.164Z" fill="#FFFFFF"/>
<path d="M135.485 87.5011V75.9687H143.753V77.4061H137.159V86.0749H143.979V87.5122H135.485V87.5011ZM137.001 82.3422V80.9382H143.018V82.3422H137.001Z" fill="#FFFFFF"/>
<path d="M150.098 87.6348C149.204 87.6348 148.356 87.5011 147.542 87.2337C146.728 86.9663 146.083 86.6208 145.619 86.1863L146.241 84.9049C146.682 85.2949 147.259 85.6069 147.949 85.8632C148.639 86.1194 149.363 86.242 150.109 86.242C150.788 86.242 151.342 86.164 151.761 86.008C152.179 85.852 152.496 85.6403 152.699 85.3729C152.903 85.1055 153.005 84.7935 153.005 84.4592C153.005 84.0692 152.869 83.7461 152.609 83.501C152.349 83.2558 152.009 83.0664 151.591 82.9104C151.172 82.7656 150.709 82.6319 150.211 82.5204C149.713 82.409 149.204 82.2865 148.696 82.1305C148.187 81.9856 147.723 81.7962 147.304 81.5622C146.886 81.3282 146.547 81.0162 146.298 80.6262C146.038 80.2363 145.913 79.7349 145.913 79.122C145.913 78.5092 146.072 77.9855 146.388 77.4841C146.705 76.9827 147.191 76.5816 147.859 76.2807C148.526 75.9799 149.363 75.8239 150.392 75.8239C151.071 75.8239 151.749 75.913 152.417 76.0913C153.084 76.2696 153.661 76.5147 154.158 76.849L153.604 78.1638C153.107 77.8295 152.575 77.5955 152.009 77.4507C151.444 77.3058 150.912 77.2278 150.392 77.2278C149.736 77.2278 149.193 77.3058 148.775 77.4729C148.345 77.6401 148.04 77.8629 147.847 78.1304C147.655 78.4089 147.553 78.7098 147.553 79.0552C147.553 79.4563 147.689 79.7906 147.949 80.0246C148.209 80.2585 148.548 80.4591 148.967 80.604C149.385 80.7488 149.849 80.8714 150.347 80.9939C150.844 81.1054 151.353 81.2391 151.862 81.3839C152.371 81.5288 152.835 81.7182 153.254 81.941C153.672 82.175 154.011 82.4759 154.26 82.8659C154.52 83.2558 154.645 83.7461 154.645 84.3478C154.645 84.9495 154.486 85.4732 154.158 85.9746C153.83 86.476 153.333 86.8771 152.665 87.178C151.987 87.4788 151.139 87.6348 150.109 87.6348H150.098Z" fill="#FFFFFF"/>
<path d="M159.237 87.5011V77.3949H155.222V75.9576H164.903V77.3949H160.888V87.5011H159.237Z" fill="#FFFFFF"/>
<path d="M166.724 87.5011V75.9687H171.293C172.809 75.9687 174.007 76.3253 174.878 77.0272C175.749 77.7292 176.179 78.7209 176.179 79.98C176.179 80.8157 175.987 81.5288 175.591 82.1305C175.195 82.7321 174.641 83.189 173.917 83.501C173.193 83.8241 172.322 83.9801 171.293 83.9801H167.651L168.409 83.2224V87.4899H166.735L166.724 87.5011ZM168.398 83.4007L167.64 82.5984H171.236C172.311 82.5984 173.114 82.3756 173.668 81.9187C174.222 81.4619 174.494 80.8268 174.494 80.0023C174.494 79.1777 174.222 78.5426 173.668 78.0858C173.114 77.6401 172.3 77.4061 171.236 77.4061H167.64L168.398 76.5816V83.4007ZM174.562 87.5011L171.587 83.3115H173.374L176.383 87.5011H174.562Z" fill="#FFFFFF"/>
<path d="M177.118 87.5011L182.422 75.9687H184.074L189.389 87.5011H187.636L182.897 76.8935H183.565L178.826 87.5011H177.106H177.118ZM179.38 84.6152L179.832 83.3004H186.426L186.912 84.6152H179.38Z" fill="#FFFFFF"/>
<path d="M192.874 87.5011V77.3949H188.858V75.9576H198.54V77.3949H194.525V87.5011H192.874Z" fill="#FFFFFF"/>
<path d="M200.372 87.5011V75.9687H208.64V77.4061H202.046V86.0749H208.866V87.5122H200.372V87.5011ZM201.888 82.3422V80.9382H207.905V82.3422H201.888Z" fill="#FFFFFF"/>
<path d="M216.851 87.6348C215.946 87.6348 215.12 87.4899 214.362 87.2002C213.604 86.9105 212.948 86.4983 212.394 85.9634C211.84 85.4286 211.399 84.8046 211.094 84.0915C210.777 83.3784 210.63 82.5873 210.63 81.7293C210.63 80.8714 210.788 80.0914 211.094 79.3672C211.41 78.654 211.84 78.0301 212.406 77.4952C212.971 76.9604 213.627 76.5481 214.385 76.2584C215.143 75.9687 215.98 75.8239 216.896 75.8239C217.812 75.8239 218.671 75.9687 219.441 76.2696C220.21 76.5704 220.866 77.0161 221.397 77.6067L220.357 78.6318C219.882 78.1749 219.35 77.8295 218.796 77.6178C218.23 77.4061 217.62 77.2947 216.964 77.2947C216.308 77.2947 215.674 77.4061 215.097 77.6289C214.521 77.8518 214.023 78.1526 213.604 78.5538C213.186 78.9549 212.858 79.4229 212.632 79.9577C212.406 80.5037 212.292 81.0942 212.292 81.7293C212.292 82.3645 212.406 82.9439 212.632 83.4898C212.858 84.0358 213.186 84.5038 213.604 84.9049C214.023 85.306 214.521 85.618 215.086 85.8409C215.652 86.0637 216.274 86.1751 216.941 86.1751C217.563 86.1751 218.162 86.0749 218.739 85.8854C219.316 85.696 219.848 85.3729 220.334 84.9161L221.284 86.164C220.707 86.6431 220.029 87.0108 219.248 87.256C218.468 87.5011 217.676 87.6237 216.851 87.6237V87.6348ZM221.284 86.164L219.678 85.9523V81.6625H221.284V86.164Z" fill="#FFFFFF"/>
<path d="M224.474 87.5011V75.9687H226.148V87.5011H224.474Z" fill="#FFFFFF"/>
<path d="M233.07 87.6348C232.176 87.6348 231.328 87.5011 230.514 87.2337C229.699 86.9663 229.055 86.6208 228.591 86.1863L229.213 84.9049C229.654 85.2949 230.231 85.6069 230.921 85.8632C231.611 86.1194 232.335 86.242 233.081 86.242C233.76 86.242 234.314 86.164 234.732 86.008C235.151 85.852 235.467 85.6403 235.671 85.3729C235.875 85.1055 235.976 84.7935 235.976 84.4592C235.976 84.0692 235.841 83.7461 235.581 83.501C235.32 83.2558 234.981 83.0664 234.563 82.9104C234.144 82.7656 233.68 82.6319 233.183 82.5204C232.685 82.409 232.176 82.2865 231.667 82.1305C231.158 81.9856 230.695 81.7962 230.276 81.5622C229.858 81.3282 229.518 81.0162 229.269 80.6262C229.009 80.2363 228.885 79.7349 228.885 79.122C228.885 78.5092 229.043 77.9855 229.36 77.4841C229.677 76.9827 230.163 76.5816 230.83 76.2807C231.498 75.9799 232.335 75.8239 233.364 75.8239C234.042 75.8239 234.721 75.913 235.388 76.0913C236.056 76.2696 236.632 76.5147 237.13 76.849L236.576 78.1638C236.078 77.8295 235.547 77.5955 234.981 77.4507C234.416 77.3058 233.884 77.2278 233.364 77.2278C232.708 77.2278 232.165 77.3058 231.746 77.4729C231.317 77.6401 231.011 77.8629 230.819 78.1304C230.627 78.4089 230.525 78.7098 230.525 79.0552C230.525 79.4563 230.661 79.7906 230.921 80.0246C231.181 80.2585 231.52 80.4591 231.939 80.604C232.357 80.7488 232.821 80.8714 233.318 80.9939C233.816 81.1054 234.325 81.2391 234.834 81.3839C235.343 81.5288 235.807 81.7182 236.225 81.941C236.644 82.175 236.983 82.4759 237.232 82.8659C237.492 83.2558 237.616 83.7461 237.616 84.3478C237.616 84.9495 237.458 85.4732 237.13 85.9746C236.802 86.476 236.304 86.8771 235.637 87.178C234.958 87.4788 234.11 87.6348 233.081 87.6348H233.07Z" fill="#FFFFFF"/>
<path d="M242.208 87.5011V77.3949H238.193V75.9576H247.875V77.3949H243.86V87.5011H242.208Z" fill="#FFFFFF"/>
<path d="M247.343 87.5011L252.648 75.9687H254.299L259.615 87.5011H257.862L253.123 76.8935H253.79L249.051 87.5011H247.332H247.343ZM249.605 84.6152L250.058 83.3004H256.652L257.138 84.6152H249.605Z" fill="#FFFFFF"/>
<path d="M265.858 87.5011V75.9687H270.79C272.034 75.9687 273.142 76.2139 274.092 76.693C275.042 77.1721 275.789 77.8518 276.32 78.7209C276.852 79.59 277.112 80.5928 277.112 81.7405C277.112 82.8881 276.852 83.8909 276.32 84.7601C275.789 85.6292 275.054 86.3088 274.092 86.788C273.142 87.2671 272.034 87.5122 270.79 87.5122H265.858V87.5011ZM267.532 86.0637H270.699C271.672 86.0637 272.509 85.8854 273.221 85.5177C273.934 85.15 274.477 84.6486 274.873 83.9912C275.269 83.3338 275.461 82.5873 275.461 81.7293C275.461 80.8714 275.269 80.1025 274.873 79.4563C274.477 78.81 273.934 78.2975 273.221 77.9409C272.509 77.5732 271.672 77.3949 270.699 77.3949H267.532V86.0637Z" fill="#FFFFFF"/>
<path d="M284.961 87.6348C284.068 87.6348 283.242 87.4899 282.473 87.1891C281.704 86.8883 281.048 86.476 280.494 85.9412C279.94 85.4063 279.499 84.7823 279.193 84.0692C278.888 83.3561 278.729 82.5762 278.729 81.7293C278.729 80.8825 278.888 80.1026 279.193 79.3894C279.51 78.6763 279.94 78.0524 280.494 77.5175C281.048 76.9827 281.704 76.5704 282.462 76.2696C283.22 75.9687 284.057 75.8239 284.95 75.8239C285.844 75.8239 286.669 75.9687 287.416 76.2584C288.174 76.5481 288.83 76.9604 289.384 77.4952C289.949 78.0301 290.379 78.654 290.684 79.3672C290.99 80.0803 291.148 80.8714 291.148 81.7293C291.148 82.5873 290.99 83.3673 290.684 84.0915C290.379 84.8046 289.938 85.4286 289.384 85.9634C288.83 86.4983 288.162 86.9105 287.416 87.2002C286.658 87.4899 285.844 87.6348 284.95 87.6348H284.961ZM284.961 86.164C285.606 86.164 286.206 86.0526 286.76 85.8297C287.314 85.6069 287.789 85.2949 288.196 84.8938C288.603 84.4927 288.92 84.0247 289.146 83.4898C289.372 82.955 289.486 82.3645 289.486 81.7293C289.486 81.0942 289.372 80.5037 289.146 79.9688C288.92 79.434 288.603 78.966 288.196 78.5649C287.789 78.1638 287.314 77.8518 286.76 77.6289C286.206 77.4061 285.606 77.2947 284.961 77.2947C284.317 77.2947 283.695 77.4061 283.152 77.6289C282.598 77.8518 282.123 78.1638 281.704 78.5649C281.286 78.966 280.969 79.434 280.743 79.9688C280.517 80.5037 280.403 81.0942 280.403 81.7293C280.403 82.3645 280.517 82.955 280.743 83.4898C280.969 84.0247 281.297 84.4927 281.704 84.8938C282.111 85.2949 282.598 85.6069 283.152 85.8297C283.706 86.0526 284.305 86.164 284.961 86.164Z" fill="#FFFFFF"/>
<path d="M301.644 87.6348C300.75 87.6348 299.902 87.5011 299.088 87.2337C298.273 86.9663 297.629 86.6208 297.165 86.1863L297.787 84.9049C298.228 85.2949 298.805 85.6069 299.495 85.8632C300.185 86.1194 300.909 86.242 301.655 86.242C302.334 86.242 302.888 86.164 303.307 86.008C303.725 85.852 304.042 85.6403 304.245 85.3729C304.449 85.1055 304.551 84.7935 304.551 84.4592C304.551 84.0692 304.415 83.7461 304.155 83.501C303.895 83.2558 303.555 83.0664 303.137 82.9104C302.718 82.7656 302.255 82.6319 301.757 82.5204C301.259 82.409 300.75 82.2865 300.241 82.1305C299.732 81.9856 299.269 81.7962 298.85 81.5622C298.432 81.3282 298.092 81.0162 297.844 80.6262C297.584 80.2363 297.459 79.7349 297.459 79.122C297.459 78.5092 297.617 77.9855 297.934 77.4841C298.251 76.9827 298.737 76.5816 299.404 76.2807C300.072 75.9799 300.909 75.8239 301.938 75.8239C302.617 75.8239 303.295 75.913 303.962 76.0913C304.63 76.2696 305.207 76.5147 305.704 76.849L305.15 78.1638C304.652 77.8295 304.121 77.5955 303.555 77.4507C302.99 77.3058 302.458 77.2278 301.938 77.2278C301.282 77.2278 300.739 77.3058 300.321 77.4729C299.891 77.6401 299.585 77.8629 299.393 78.1304C299.201 78.4089 299.099 78.7098 299.099 79.0552C299.099 79.4563 299.235 79.7906 299.495 80.0246C299.755 80.2585 300.094 80.4591 300.513 80.604C300.931 80.7488 301.395 80.8714 301.893 80.9939C302.39 81.1054 302.899 81.2391 303.408 81.3839C303.917 81.5288 304.381 81.7182 304.799 81.941C305.218 82.175 305.557 82.4759 305.806 82.8659C306.066 83.2558 306.191 83.7461 306.191 84.3478C306.191 84.9495 306.032 85.4732 305.704 85.9746C305.376 86.476 304.879 86.8771 304.211 87.178C303.533 87.4788 302.684 87.6348 301.655 87.6348H301.644Z" fill="#FFFFFF"/>
<path d="M308.204 75.0216L310.477 72.8823H312.513L309.708 75.0216H308.204ZM308.623 87.5011V75.9687H310.297V87.5011H308.623Z" fill="#FFFFFF"/>
<path d="M313.803 87.5011V75.9687H315.171L322.919 85.4397H322.195V75.9687H323.869V87.5011H322.5L314.753 78.0301H315.477V87.5011H313.803Z" fill="#FFFFFF"/>
<path d="M327.386 87.5011V75.9687H332.317C333.561 75.9687 334.67 76.2139 335.62 76.693C336.57 77.1721 337.316 77.8518 337.848 78.7209C338.379 79.59 338.639 80.5928 338.639 81.7405C338.639 82.8881 338.379 83.8909 337.848 84.7601C337.316 85.6292 336.581 86.3088 335.62 86.788C334.67 87.2671 333.561 87.5122 332.317 87.5122H327.386V87.5011ZM329.06 86.0637H332.227C333.199 86.0637 334.036 85.8854 334.749 85.5177C335.461 85.15 336.004 84.6486 336.4 83.9912C336.796 83.3338 336.988 82.5873 336.988 81.7293C336.988 80.8714 336.796 80.1025 336.4 79.4563C336.004 78.81 335.461 78.2975 334.749 77.9409C334.036 77.5732 333.199 77.3949 332.227 77.3949H329.06V86.0637Z" fill="#FFFFFF"/>
<path d="M341.207 87.5011V75.9687H342.881V87.5011H341.207Z" fill="#FFFFFF"/>
<path d="M351.623 87.6348C350.73 87.6348 349.904 87.4899 349.158 87.2002C348.4 86.9105 347.755 86.4983 347.201 85.9634C346.647 85.4286 346.217 84.8046 345.9 84.0915C345.584 83.3784 345.437 82.5873 345.437 81.7293C345.437 80.8714 345.595 80.0914 345.9 79.3672C346.217 78.654 346.647 78.0301 347.201 77.4952C347.755 76.9604 348.411 76.5481 349.169 76.2584C349.927 75.9687 350.741 75.8239 351.635 75.8239C352.528 75.8239 353.376 75.9799 354.134 76.2807C354.903 76.5816 355.548 77.0273 356.079 77.6289L354.994 78.6652C354.553 78.2083 354.044 77.8629 353.489 77.6401C352.935 77.4172 352.336 77.3058 351.702 77.3058C351.069 77.3058 350.436 77.4172 349.87 77.6401C349.305 77.8629 348.818 78.1638 348.411 78.5649C347.993 78.9549 347.676 79.434 347.45 79.9688C347.224 80.5148 347.11 81.1054 347.11 81.7405C347.11 82.3756 347.224 82.9661 347.45 83.5121C347.676 84.0581 348.004 84.5261 348.411 84.9161C348.818 85.306 349.316 85.618 349.87 85.8409C350.424 86.0637 351.046 86.1751 351.702 86.1751C352.358 86.1751 352.935 86.0637 353.489 85.8409C354.044 85.618 354.553 85.2615 354.994 84.7935L356.079 85.8297C355.548 86.4203 354.892 86.8771 354.134 87.178C353.365 87.4899 352.528 87.6348 351.612 87.6348H351.623Z" fill="#FFFFFF"/>
<path d="M363.013 87.6348C362.12 87.6348 361.294 87.4899 360.525 87.1891C359.756 86.8883 359.1 86.476 358.546 85.9412C357.991 85.4063 357.55 84.7823 357.245 84.0692C356.94 83.3561 356.781 82.5762 356.781 81.7293C356.781 80.8825 356.94 80.1026 357.245 79.3894C357.562 78.6763 357.991 78.0524 358.546 77.5175C359.1 76.9827 359.756 76.5704 360.514 76.2696C361.271 75.9687 362.108 75.8239 363.002 75.8239C363.895 75.8239 364.721 75.9687 365.467 76.2584C366.225 76.5481 366.881 76.9604 367.435 77.4952C368.001 78.0301 368.431 78.654 368.736 79.3672C369.042 80.0803 369.2 80.8714 369.2 81.7293C369.2 82.5873 369.042 83.3673 368.736 84.0915C368.431 84.8046 367.99 85.4286 367.435 85.9634C366.881 86.4983 366.214 86.9105 365.467 87.2002C364.71 87.4899 363.895 87.6348 363.002 87.6348H363.013ZM363.013 86.164C363.658 86.164 364.257 86.0526 364.811 85.8297C365.366 85.6069 365.841 85.2949 366.248 84.8938C366.655 84.4927 366.972 84.0247 367.198 83.4898C367.424 82.955 367.537 82.3645 367.537 81.7293C367.537 81.0942 367.424 80.5037 367.198 79.9688C366.972 79.434 366.655 78.966 366.248 78.5649C365.841 78.1638 365.366 77.8518 364.811 77.6289C364.257 77.4061 363.658 77.2947 363.013 77.2947C362.368 77.2947 361.746 77.4061 361.204 77.6289C360.649 77.8518 360.174 78.1638 359.756 78.5649C359.337 78.966 359.021 79.434 358.794 79.9688C358.568 80.5037 358.455 81.0942 358.455 81.7293C358.455 82.3645 358.568 82.955 358.794 83.4898C359.021 84.0247 359.349 84.4927 359.756 84.8938C360.163 85.2949 360.649 85.6069 361.204 85.8297C361.758 86.0526 362.357 86.164 363.013 86.164Z" fill="#FFFFFF"/>
<path d="M88.5252 27.4882C88.5252 26.5077 88.265 25.5718 87.7787 24.7472L77.2715 30.7195C77.3054 30.7752 77.328 30.8421 77.328 30.909V59.6674C77.328 59.79 77.4638 59.868 77.5656 59.8011L88.446 53.6171C88.446 53.6171 88.5252 53.5391 88.5252 53.4834V27.4882Z" fill="#FFFFFF"/>
<path d="M44.4602 12.0003L77.1355 30.5858C77.192 30.6192 77.2486 30.6638 77.2825 30.7307L87.7897 24.7584C87.3147 23.9338 86.6135 23.243 85.7539 22.7527L47.039 0.735397C45.3198 -0.245132 43.1935 -0.245132 41.4743 0.735397L33.297 5.39291C33.1953 5.44862 33.1953 5.60461 33.297 5.66033L44.4037 11.9781C44.4037 11.9781 44.4376 11.9892 44.4489 12.0003" fill="#FFFFFF"/>
<path d="M44.4604 86.9997C44.4039 87.0331 44.3247 87.0554 44.2568 87.0554V99C45.2182 99 46.1796 98.7549 47.0392 98.2646L85.7428 76.2473C87.4619 75.2667 88.5251 73.4617 88.5251 71.5118V62.1967C88.5251 62.0742 88.3894 61.9962 88.2876 62.063L44.4604 86.9997Z" fill="#FFFFFF"/>
<path d="M44.0645 86.9997L18.8088 72.6371C18.707 72.5814 18.5713 72.6483 18.5713 72.7708V85.15C18.5713 85.2057 18.6052 85.2614 18.6505 85.2837L41.4858 98.2757C42.3454 98.766 43.3068 99.0111 44.2568 99.0111V87.0665C44.189 87.0665 44.1211 87.0442 44.0645 87.0108" fill="#FFFFFF"/>
<path d="M11.1971 30.9201C11.1971 30.8532 11.2197 30.7864 11.2537 30.7307L0.746475 24.7472C0.271446 25.5718 0 26.5077 0 27.4882V71.5118C0 73.328 0.916129 75.0216 2.4317 76.0356L10.9596 80.8937C11.0614 80.9494 11.1971 80.8825 11.1971 80.7599V30.9201Z" fill="#FFFFFF"/>
<path d="M11.389 30.5858L36.69 16.201C36.7918 16.1453 36.7918 15.9893 36.69 15.9336L25.8096 9.74957C25.8096 9.74957 25.6965 9.71614 25.6512 9.74957L2.78193 22.7416C1.92236 23.2318 1.23243 23.9227 0.746094 24.7472L11.2533 30.7195C11.2872 30.6638 11.3325 30.6081 11.4003 30.5747" fill="#FFFFFF"/>
</svg>
