<?xml version="1.0" encoding="UTF-8"?>
<svg id="Lines" xmlns="http://www.w3.org/2000/svg" viewBox="0 0 539.44 265.27">
  <defs>
    <style>
      .cls-1 {
        fill: none;
        stroke: #00a4ff;
        stroke-miterlimit: 10;
        stroke-width: .4px;
      }

      .cls-2 {
        fill: #00a4ff;
        font-family: MyriadPro-Regular, 'Myriad Pro';
        font-size: 12px;
      }

      .cls-3 {
        fill: #3d3d3d;
      }

      .cls-4 {
        opacity: .4;
      }
    </style>
  </defs>
  <g class="cls-4">
    <g>
      <path class="cls-3" d="M182.5,153.82c-1.83-.54-3.37-1.2-4.62-1.96-.52-.32-.71-.98-.45-1.53l1.65-3.52c.3-.64,1.07-.87,1.68-.52,1.09.63,2.32,1.16,3.7,1.59,1.87.58,3.71.87,5.53.87,4.15,0,6.23-1.17,6.23-3.53,0-1.11-.53-1.89-1.58-2.33-1.06-.44-2.75-.86-5.09-1.25-2.44-.4-4.44-.86-5.97-1.37-1.54-.52-2.87-1.42-4-2.72-1.13-1.29-1.7-3.1-1.7-5.41,0-3.03,1.18-5.45,3.53-7.26,2.35-1.81,5.53-2.72,9.53-2.72,2.04,0,4.08.25,6.12.75,1.55.38,2.89.86,4.01,1.43.57.29.79.99.52,1.57l-1.65,3.51c-.29.61-1.02.87-1.62.55-2.24-1.18-4.72-1.77-7.43-1.77-2.04,0-3.59.33-4.64.99-1.06.66-1.58,1.52-1.58,2.6,0,1.2.56,2.04,1.7,2.54,1.13.5,2.88.97,5.25,1.4,2.37.4,4.32.86,5.84,1.37,1.52.52,2.83,1.4,3.92,2.63,1.09,1.24,1.64,2.99,1.64,5.26,0,2.99-1.2,5.38-3.61,7.17-2.41,1.79-5.69,2.69-9.84,2.69-2.41,0-4.76-.34-7.06-1.02"/>
      <path class="cls-3" d="M214.24,109.95h5.19c1.11,0,1.62,1.39.77,2.11l-6.04,5.8c-.22.18-.49.28-.77.28h-3.65c-1.04,0-1.59-1.24-.88-2l4.5-5.8c.23-.25.55-.39.88-.39"/>
      <path class="cls-3" d="M247.41,125.67c2.26,2.35,3.39,5.84,3.39,10.46v17.09c0,.66-.54,1.2-1.2,1.2h-4.56c-.66,0-1.2-.54-1.2-1.2v-16.14c0-2.79-.61-4.89-1.83-6.31-1.22-1.41-2.97-2.12-5.23-2.12-2.56,0-4.58.83-6.06,2.48-1.48,1.65-2.22,4.03-2.22,7.14v14.94c0,.66-.54,1.2-1.2,1.2h-4.56c-.66,0-1.2-.54-1.2-1.2v-29.52c0-.66.54-1.2,1.2-1.2h4.22c.66,0,1.2.54,1.2,1.2v2.93c1.15-1.47,2.59-2.59,4.34-3.35,1.74-.76,3.71-1.14,5.89-1.14,3.74,0,6.74,1.18,9,3.53"/>
      <path class="cls-3" d="M276.15,147.22c1.33-.82,2.39-1.98,3.17-3.5.78-1.51,1.17-3.27,1.17-5.26s-.39-3.74-1.17-5.26c-.78-1.51-1.83-2.68-3.17-3.5-1.33-.82-2.83-1.23-4.5-1.23s-3.17.41-4.5,1.23c-1.33.82-2.39,1.98-3.17,3.5-.78,1.52-1.17,3.27-1.17,5.26s.39,3.75,1.17,5.26c.78,1.52,1.83,2.68,3.17,3.5,1.33.82,2.83,1.22,4.5,1.22s3.17-.41,4.5-1.22M287.32,111.27v41.96c0,.66-.54,1.2-1.2,1.2h-4.28c-.66,0-1.2-.54-1.2-1.2v-2.93c-1.15,1.52-2.57,2.65-4.25,3.41-1.69.76-3.55,1.14-5.59,1.14-2.85,0-5.42-.68-7.7-2.03-2.28-1.35-4.07-3.28-5.36-5.77-1.3-2.49-1.95-5.35-1.95-8.58s.65-6.08,1.95-8.55c1.3-2.47,3.08-4.38,5.36-5.74,2.28-1.35,4.84-2.03,7.7-2.03,1.96,0,3.76.36,5.39,1.08,1.63.72,3.02,1.79,4.17,3.23v-15.18c0-.66.54-1.2,1.2-1.2h4.56c.66,0,1.2.54,1.2,1.2"/>
      <path class="cls-3" d="M296.19,122.5h4.56c.66,0,1.2.54,1.2,1.2v29.52c0,.66-.54,1.2-1.2,1.2h-4.56c-.66,0-1.2-.54-1.2-1.2v-29.52c0-.66.54-1.2,1.2-1.2"/>
      <path class="cls-3" d="M359.7,145.69c1.67-1.83,2.5-4.24,2.5-7.23s-.83-5.4-2.5-7.23c-1.67-1.83-3.78-2.75-6.34-2.75s-4.66.92-6.31,2.75c-1.65,1.83-2.47,4.24-2.47,7.23s.82,5.4,2.47,7.23c1.65,1.83,3.75,2.75,6.31,2.75s4.67-.92,6.34-2.75M345.25,152.75c-2.41-1.39-4.29-3.34-5.64-5.83-1.35-2.49-2.03-5.31-2.03-8.46s.68-5.96,2.03-8.43c1.35-2.47,3.23-4.4,5.64-5.8,2.41-1.39,5.11-2.09,8.12-2.09s5.76.7,8.17,2.09c2.41,1.4,4.29,3.33,5.64,5.8,1.35,2.47,2.03,5.28,2.03,8.43s-.68,5.97-2.03,8.46c-1.35,2.49-3.23,4.43-5.64,5.83-2.41,1.4-5.13,2.09-8.17,2.09s-5.71-.7-8.12-2.09"/>
      <path class="cls-3" d="M400.89,125.67c2.26,2.35,3.39,5.84,3.39,10.46v17.09c0,.66-.54,1.2-1.2,1.2h-4.56c-.66,0-1.2-.54-1.2-1.2v-16.14c0-2.79-.61-4.89-1.83-6.31-1.22-1.41-2.97-2.12-5.23-2.12-2.56,0-4.58.83-6.06,2.48-1.48,1.65-2.22,4.03-2.22,7.14v14.94c0,.66-.54,1.2-1.2,1.2h-4.56c-.66,0-1.2-.54-1.2-1.2v-29.52c0-.66.54-1.2,1.2-1.2h4.22c.66,0,1.2.54,1.2,1.2v2.93c1.15-1.47,2.59-2.59,4.34-3.35,1.74-.76,3.71-1.14,5.89-1.14,3.74,0,6.74,1.18,9,3.53"/>
      <path class="cls-3" d="M418.98,130.24c-1.54,1.41-2.47,3.3-2.81,5.65h16.84c-.3-2.31-1.21-4.18-2.72-5.62-1.52-1.43-3.41-2.15-5.67-2.15s-4.1.71-5.64,2.12M438.4,140.85h-22.17c.41,2.35,1.47,4.21,3.2,5.59,1.72,1.37,3.86,2.06,6.42,2.06,2.81,0,5.2-.86,7.16-2.58.51-.45,1.3-.4,1.73.13l2.27,2.81c.38.46.35,1.14-.06,1.58-1.21,1.32-2.67,2.35-4.38,3.08-2.04.88-4.34,1.31-6.89,1.31-3.26,0-6.13-.7-8.62-2.09-2.48-1.39-4.4-3.34-5.75-5.83-1.35-2.49-2.03-5.31-2.03-8.46s.66-5.91,1.97-8.4c1.31-2.49,3.14-4.43,5.47-5.83,2.33-1.4,4.97-2.09,7.89-2.09s5.47.69,7.75,2.06c2.28,1.37,4.06,3.31,5.34,5.8,1.28,2.49,1.92,5.37,1.92,8.64,0,.29-.01.65-.04,1.07-.03.64-.56,1.14-1.2,1.14"/>
      <path class="cls-3" d="M463.01,151.86c.19.52,0,1.11-.46,1.41-.65.43-1.39.78-2.21,1.03-1.17.36-2.4.54-3.7.54-3.26,0-5.78-.92-7.56-2.75-1.78-1.83-2.67-4.5-2.67-8.01v-15.36h-3.69c-.66,0-1.2-.54-1.2-1.2v-3.58c0-.66.54-1.2,1.2-1.2h3.69v-6.1c0-.66.54-1.2,1.2-1.2h4.56c.66,0,1.2.54,1.2,1.2v6.1h6.75c.66,0,1.2.54,1.2,1.2v3.58c0,.66-.54,1.2-1.2,1.2h-6.75v15.18c0,1.55.35,2.74,1.06,3.56.7.82,1.72,1.23,3.06,1.23,1.04,0,1.97-.2,2.78-.59.63-.31,1.38.01,1.62.67l1.13,3.1Z"/>
      <path class="cls-3" d="M294.8,111.93l3.35-1.92c.26-.15.59-.15.85,0l3.35,1.92c.27.15.43.44.43.74v3.82c0,.31-.16.59-.43.74l-3.35,1.92c-.26.15-.59.15-.85,0l-3.35-1.92c-.27-.15-.43-.44-.43-.74v-3.82c0-.31.16-.59.43-.74"/>
      <path class="cls-3" d="M331.15,145.63c-.32-.31-.84-.3-1.14.04-.6.68-1.28,1.24-2.02,1.67-1.28.74-2.68,1.11-4.2,1.11-2.63,0-4.79-.91-6.47-2.72-1.69-1.81-2.53-4.23-2.53-7.26s.85-5.45,2.56-7.26c1.7-1.81,3.85-2.72,6.45-2.72,1.52,0,2.92.37,4.2,1.11.76.44,1.45,1.01,2.06,1.71.33.38.93.38,1.24-.02.86-1.09,2.36-3.01,3.08-3.94.24-.3.23-.74-.03-1.03-.81-.88-1.73-1.63-2.79-2.25-2.21-1.28-4.77-1.91-7.7-1.91-3.11,0-5.88.7-8.31,2.09-2.43,1.4-4.33,3.33-5.7,5.8-1.37,2.47-2.06,5.28-2.06,8.43s.69,5.97,2.06,8.46c1.37,2.49,3.28,4.43,5.73,5.83s5.21,2.09,8.28,2.09c2.89,0,5.44-.65,7.64-1.94,1.27-.74,2.35-1.68,3.27-2.78.26-.32.22-.79-.07-1.08-.87-.84-2.6-2.51-3.53-3.41"/>
    </g>
    <g>
      <path class="cls-3" d="M154.09,112.61c0-.88-.23-1.72-.66-2.46l-9.29,5.36c.03.05.05.11.05.17v25.81c0,.11.12.18.21.12l9.62-5.55s.07-.07.07-.12v-23.33Z"/>
      <path class="cls-3" d="M115.13,98.71l28.89,16.68c.05.03.1.07.13.13l9.29-5.36c-.42-.74-1.04-1.36-1.8-1.8l-34.21-19.75c-1.52-.88-3.4-.88-4.92,0l-7.23,4.18c-.09.05-.09.19,0,.24l9.82,5.67s.03.01.04.02"/>
      <path class="cls-3" d="M115.13,166.03c-.05.03-.12.05-.18.05v10.72c.85,0,1.7-.22,2.46-.66l34.22-19.76c1.52-.88,2.46-2.5,2.46-4.25v-8.36c0-.11-.12-.18-.21-.12l-38.75,22.38Z"/>
      <path class="cls-3" d="M114.78,166.03l-22.33-12.89c-.09-.05-.21.01-.21.12v11.11c0,.05.03.1.07.12l20.19,11.66c.76.44,1.61.66,2.45.66v-10.72c-.06,0-.12-.02-.17-.05"/>
      <path class="cls-3" d="M85.72,115.69c0-.06.02-.12.05-.17l-9.29-5.37c-.42.74-.66,1.58-.66,2.46v39.51c0,1.63.81,3.15,2.15,4.06l7.54,4.36c.09.05.21-.01.21-.12v-44.73Z"/>
      <path class="cls-3" d="M85.9,115.39l22.37-12.91c.09-.05.09-.19,0-.24l-9.62-5.55s-.1-.03-.14,0l-20.22,11.68c-.76.44-1.37,1.06-1.8,1.8l9.29,5.36c.03-.05.07-.1.13-.13"/>
    </g>
  </g>
  <rect class="cls-1" x="75.83" y="87.38" width="387.45" height="90.12"/>
  <rect class="cls-1" x="43.72" y="55.14" width="452.01" height="154.98"/>
  <polyline class="cls-1" points="211.95 122.27 169.7 122.27 169.7 154.67 211.95 154.67"/>
  <text class="cls-2" transform="translate(160.32 140.08)"><tspan x="0" y="0">x</tspan></text>
  <text class="cls-2" transform="translate(138.89 74.01)"><tspan x="0" y="0">x</tspan></text>
  <text class="cls-2" transform="translate(141.06 196.53)"><tspan x="0" y="0">x</tspan></text>
  <text class="cls-2" transform="translate(63.89 151.41) rotate(-90)"><tspan x="0" y="0">x</tspan></text>
  <text class="cls-2" transform="translate(482.61 151.41) rotate(-90)"><tspan x="0" y="0">x</tspan></text>
  <g>
    <path class="cls-3" d="M209.38,122.5h4.56c.66,0,1.2.54,1.2,1.2v29.52c0,.66-.54,1.2-1.2,1.2h-4.56c-.66,0-1.2-.54-1.2-1.2v-29.52c0-.66.54-1.2,1.2-1.2"/>
    <path class="cls-3" d="M153.18,55.26h4.56c.66,0,1.2.54,1.2,1.2v29.52c0,.66-.54,1.2-1.2,1.2h-4.56c-.66,0-1.2-.54-1.2-1.2v-29.52c0-.66.54-1.2,1.2-1.2"/>
    <path class="cls-3" d="M153.18,177.74h4.56c.66,0,1.2.54,1.2,1.2v29.52c0,.66-.54,1.2-1.2,1.2h-4.56c-.66,0-1.2-.54-1.2-1.2v-29.52c0-.66.54-1.2,1.2-1.2"/>
    <path class="cls-3" d="M463.46,138.65v-4.56c0-.66.54-1.2,1.2-1.2h29.52c.66,0,1.2.54,1.2,1.2v4.56c0,.66-.54,1.2-1.2,1.2h-29.52c-.66,0-1.2-.54-1.2-1.2"/>
    <path class="cls-3" d="M43.88,138.65v-4.56c0-.66.54-1.2,1.2-1.2h29.52c.66,0,1.2.54,1.2,1.2v4.56c0,.66-.54,1.2-1.2,1.2h-29.52c-.66,0-1.2-.54-1.2-1.2"/>
  </g>
</svg>