<svg width="438" height="100" viewBox="0 0 438 100" fill="none" xmlns="http://www.w3.org/2000/svg">
<path d="M120.657 73.406C118.587 72.8043 116.846 72.0689 115.432 71.2221C114.844 70.8655 114.629 70.1301 114.923 69.5173L116.789 65.5952C117.128 64.8821 117.999 64.6258 118.689 65.0158C119.922 65.7177 121.313 66.3083 122.874 66.7874C124.989 67.4337 127.07 67.7568 129.129 67.7568C133.822 67.7568 136.175 66.4531 136.175 63.8235C136.175 62.5867 135.575 61.7176 134.388 61.2274C133.189 60.7371 131.277 60.2691 128.631 59.8346C125.871 59.3889 123.609 58.8763 121.879 58.3081C120.137 57.7287 118.633 56.7258 117.355 55.2773C116.077 53.84 115.432 51.8232 115.432 49.2493C115.432 45.8732 116.766 43.1767 119.424 41.1599C122.082 39.1432 125.679 38.1292 130.203 38.1292C132.51 38.1292 134.818 38.4078 137.125 38.9649C138.878 39.3883 140.394 39.9231 141.66 40.5582C142.305 40.8814 142.554 41.6613 142.248 42.3076L140.382 46.2186C140.054 46.8983 139.229 47.188 138.55 46.8314C136.016 45.5166 133.212 44.8592 130.146 44.8592C127.839 44.8592 126.086 45.2269 124.899 45.9623C123.7 46.6977 123.112 47.6559 123.112 48.8593C123.112 50.1964 123.745 51.1324 125.034 51.6895C126.312 52.2466 128.292 52.7703 130.972 53.2494C133.653 53.6951 135.858 54.2077 137.577 54.7759C139.296 55.3553 140.778 56.3359 142.011 57.7064C143.244 59.088 143.866 61.0379 143.866 63.5673C143.866 66.8988 142.509 69.5619 139.783 71.5563C137.057 73.5508 133.347 74.5536 128.654 74.5536C125.928 74.5536 123.27 74.1748 120.668 73.4171" fill="#3D3D3D"/>
<path d="M156.544 24.5244H162.414C163.67 24.5244 164.247 26.0732 163.285 26.8754L156.454 33.338C156.205 33.5386 155.9 33.65 155.583 33.65H151.455C150.279 33.65 149.657 32.2683 150.46 31.4215L155.549 24.9589C155.809 24.6804 156.171 24.5244 156.544 24.5244Z" fill="#3D3D3D"/>
<path d="M151.048 38.5081H156.205C156.952 38.5081 157.562 39.1097 157.562 39.8451V72.7374C157.562 73.4728 156.952 74.0745 156.205 74.0745H151.048C150.301 74.0745 149.69 73.4728 149.69 72.7374V39.8451C149.69 39.1097 150.301 38.5081 151.048 38.5081Z" fill="#3D3D3D"/>
<path d="M194.072 42.0402C196.628 44.6587 197.906 48.5473 197.906 53.6951V72.7374C197.906 73.4728 197.295 74.0745 196.549 74.0745H191.392C190.645 74.0745 190.034 73.4728 190.034 72.7374V54.7536C190.034 51.6449 189.344 49.305 187.965 47.7228C186.585 46.1517 184.605 45.3606 182.049 45.3606C179.154 45.3606 176.869 46.2854 175.195 48.1239C173.521 49.9624 172.684 52.6143 172.684 56.0796V72.7263C172.684 73.4617 172.074 74.0634 171.327 74.0634H166.17C165.423 74.0634 164.812 73.4617 164.812 72.7263V39.834C164.812 39.0986 165.423 38.4969 166.17 38.4969H170.943C171.689 38.4969 172.3 39.0986 172.3 39.834V43.0987C173.601 41.4608 175.229 40.2128 177.209 39.366C179.176 38.5192 181.405 38.0958 183.87 38.0958C188.1 38.0958 191.493 39.4106 194.049 42.0291" fill="#3D3D3D"/>
<path d="M226.577 66.052C228.082 65.1383 229.281 63.8458 230.163 62.1522C231.045 60.4697 231.486 58.5086 231.486 56.2913C231.486 54.0739 231.045 52.124 230.163 50.4304C229.281 48.7479 228.093 47.4442 226.577 46.5306C225.073 45.6169 223.377 45.16 221.488 45.16C219.599 45.16 217.902 45.6169 216.398 46.5306C214.894 47.4442 213.695 48.7367 212.813 50.4304C211.931 52.124 211.49 54.0739 211.49 56.2913C211.49 58.5086 211.931 60.4697 212.813 62.1522C213.695 63.8458 214.883 65.1383 216.398 66.052C217.902 66.9657 219.599 67.4114 221.488 67.4114C223.377 67.4114 225.073 66.9545 226.577 66.052ZM239.211 25.9952V72.7486C239.211 73.484 238.6 74.0857 237.854 74.0857H233.013C232.266 74.0857 231.656 73.484 231.656 72.7486V69.4839C230.355 71.1775 228.749 72.4366 226.849 73.2834C224.937 74.1302 222.834 74.5536 220.526 74.5536C217.303 74.5536 214.396 73.796 211.818 72.2917C209.239 70.7875 207.214 68.637 205.755 65.8626C204.285 63.0881 203.55 59.9014 203.55 56.3024C203.55 52.7034 204.285 49.5279 205.755 46.7757C207.226 44.0235 209.239 41.8953 211.818 40.38C214.396 38.8758 217.292 38.1181 220.526 38.1181C222.743 38.1181 224.779 38.5192 226.623 39.3214C228.466 40.1237 230.038 41.3159 231.339 42.9204V26.0063C231.339 25.2709 231.95 24.6692 232.696 24.6692H237.854C238.6 24.6692 239.211 25.2709 239.211 26.0063" fill="#3D3D3D"/>
<path d="M249.243 38.5081H254.4C255.147 38.5081 255.758 39.1097 255.758 39.8451V72.7374C255.758 73.4728 255.147 74.0745 254.4 74.0745H249.243C248.496 74.0745 247.886 73.4728 247.886 72.7374V39.8451C247.886 39.1097 248.496 38.5081 249.243 38.5081Z" fill="#3D3D3D"/>
<path d="M321.075 64.3472C322.964 62.3082 323.902 59.6229 323.902 56.2913C323.902 52.9597 322.964 50.2744 321.075 48.2354C319.186 46.1963 316.8 45.1712 313.904 45.1712C311.009 45.1712 308.634 46.1963 306.767 48.2354C304.901 50.2744 303.974 52.9597 303.974 56.2913C303.974 59.6229 304.901 62.3082 306.767 64.3472C308.634 66.3863 311.009 67.4114 313.904 67.4114C316.8 67.4114 319.186 66.3863 321.075 64.3472ZM304.732 72.2026C302.006 70.6538 299.879 68.4811 298.353 65.7066C296.826 62.9321 296.057 59.79 296.057 56.2801C296.057 52.7703 296.826 49.6393 298.353 46.8871C299.879 44.135 302.006 41.9845 304.732 40.4246C307.457 38.8758 310.511 38.0958 313.915 38.0958C317.32 38.0958 320.43 38.8758 323.156 40.4246C325.882 41.9845 328.008 44.135 329.535 46.8871C331.062 49.6393 331.831 52.7703 331.831 56.2801C331.831 59.79 331.062 62.9321 329.535 65.7066C328.008 68.4811 325.882 70.6427 323.156 72.2026C320.43 73.7625 317.354 74.5314 313.915 74.5314C310.477 74.5314 307.457 73.7514 304.732 72.2026Z" fill="#3D3D3D"/>
<path d="M367.661 42.0402C370.217 44.6587 371.495 48.5473 371.495 53.6951V72.7374C371.495 73.4728 370.884 74.0745 370.138 74.0745H364.98C364.234 74.0745 363.623 73.4728 363.623 72.7374V54.7536C363.623 51.6449 362.933 49.305 361.553 47.7228C360.174 46.1517 358.194 45.3606 355.638 45.3606C352.743 45.3606 350.458 46.2854 348.784 48.1239C347.11 49.9624 346.273 52.6143 346.273 56.0796V72.7263C346.273 73.4617 345.663 74.0634 344.916 74.0634H339.759C339.012 74.0634 338.401 73.4617 338.401 72.7263V39.834C338.401 39.0986 339.012 38.4969 339.759 38.4969H344.531C345.278 38.4969 345.889 39.0986 345.889 39.834V43.0987C347.189 41.4608 348.818 40.2128 350.797 39.366C352.765 38.5192 354.993 38.0958 357.459 38.0958C361.689 38.0958 365.082 39.4106 367.638 42.0291" fill="#3D3D3D"/>
<path d="M388.121 47.1323C386.38 48.7033 385.328 50.8092 384.943 53.4277H403.99C403.65 50.8538 402.621 48.7702 400.913 47.1657C399.194 45.5723 397.056 44.7701 394.5 44.7701C391.944 44.7701 389.863 45.5612 388.121 47.1323ZM410.086 58.9543H385.011C385.475 61.5728 386.674 63.6453 388.63 65.1829C390.576 66.7094 392.996 67.4782 395.891 67.4782C399.07 67.4782 401.773 66.52 403.99 64.6035C404.566 64.1021 405.46 64.1578 405.946 64.7484L408.514 67.8794C408.943 68.3919 408.91 69.1496 408.446 69.6399C407.077 71.1107 405.426 72.2583 403.492 73.0717C401.185 74.0522 398.583 74.5314 395.699 74.5314C392.012 74.5314 388.766 73.7514 385.95 72.2026C383.145 70.6538 380.973 68.4811 379.446 65.7066C377.919 62.9321 377.15 59.79 377.15 56.2801C377.15 52.7703 377.897 49.695 379.379 46.9206C380.86 44.1461 382.93 41.9845 385.565 40.4246C388.2 38.8646 391.186 38.0958 394.489 38.0958C397.792 38.0958 400.676 38.8646 403.254 40.3911C405.833 41.9176 407.846 44.0793 409.294 46.8537C410.742 49.6282 411.466 52.8372 411.466 56.4807C411.466 56.8038 411.454 57.205 411.42 57.6729C411.386 58.3861 410.787 58.9432 410.063 58.9432" fill="#3D3D3D"/>
<path d="M437.909 71.2109C438.124 71.7903 437.909 72.4477 437.389 72.782C436.654 73.2611 435.817 73.6511 434.889 73.9297C433.566 74.3308 432.175 74.5314 430.705 74.5314C427.017 74.5314 424.167 73.5063 422.154 71.4672C420.141 69.4282 419.134 66.4531 419.134 62.5422V45.4275H414.961C414.214 45.4275 413.604 44.8258 413.604 44.0904V40.1014C413.604 39.366 414.214 38.7643 414.961 38.7643H419.134V31.9675C419.134 31.2321 419.745 30.6304 420.491 30.6304H425.649C426.395 30.6304 427.006 31.2321 427.006 31.9675V38.7643H434.641C435.387 38.7643 435.998 39.366 435.998 40.1014V44.0904C435.998 44.8258 435.387 45.4275 434.641 45.4275H427.006V62.3416C427.006 64.0687 427.402 65.3946 428.205 66.3083C428.997 67.222 430.15 67.6788 431.666 67.6788C432.842 67.6788 433.894 67.456 434.81 67.0214C435.523 66.676 436.371 67.0325 436.642 67.7679L437.921 71.2221L437.909 71.2109Z" fill="#3D3D3D"/>
<path d="M247.671 26.7306L251.46 24.5912C251.754 24.4241 252.127 24.4241 252.421 24.5912L256.21 26.7306C256.516 26.8977 256.696 27.2208 256.696 27.5551V31.8115C256.696 32.1569 256.516 32.4689 256.21 32.636L252.421 34.7754C252.127 34.9425 251.754 34.9425 251.46 34.7754L247.671 32.636C247.366 32.4689 247.185 32.1458 247.185 31.8115V27.5551C247.185 27.2097 247.366 26.8977 247.671 26.7306Z" fill="#3D3D3D"/>
<path d="M288.772 64.2804C288.41 63.9349 287.822 63.9461 287.483 64.3249C286.804 65.0826 286.035 65.7066 285.198 66.1857C283.751 67.0102 282.167 67.4225 280.448 67.4225C277.473 67.4225 275.03 66.4086 273.13 64.3918C271.219 62.375 270.269 59.6786 270.269 56.3024C270.269 52.9263 271.23 50.2298 273.164 48.2131C275.087 46.1963 277.519 45.1823 280.459 45.1823C282.178 45.1823 283.762 45.5946 285.21 46.4191C286.069 46.9094 286.85 47.5445 287.539 48.3245C287.913 48.7479 288.591 48.7479 288.942 48.3022C289.915 47.0877 291.611 44.9483 292.425 43.9121C292.697 43.5778 292.686 43.0876 292.392 42.7644C291.475 41.7839 290.435 40.9482 289.236 40.2574C286.736 38.8312 283.841 38.1292 280.527 38.1292C277.01 38.1292 273.877 38.9092 271.128 40.458C268.38 42.0179 266.231 44.1684 264.681 46.9205C263.132 49.6727 262.352 52.8037 262.352 56.3136C262.352 59.8234 263.132 62.9656 264.681 65.74C266.231 68.5145 268.391 70.6761 271.162 72.236C273.933 73.796 277.055 74.5648 280.527 74.5648C283.796 74.5648 286.68 73.8405 289.168 72.4032C290.605 71.5786 291.826 70.5312 292.867 69.3056C293.161 68.949 293.115 68.4253 292.787 68.1022C291.803 67.1662 289.847 65.3055 288.795 64.3026" fill="#3D3D3D"/>
<path d="M88.5252 27.4882C88.5252 26.5077 88.265 25.5718 87.7787 24.7472L77.2715 30.7195C77.3054 30.7752 77.328 30.8421 77.328 30.909V59.6674C77.328 59.79 77.4638 59.868 77.5656 59.8011L88.446 53.6171C88.446 53.6171 88.5252 53.5391 88.5252 53.4834V27.4882Z" fill="#704393"/>
<path d="M44.4607 12.0003L77.136 30.5858C77.1925 30.6192 77.2491 30.6638 77.283 30.7307L87.7902 24.7584C87.3152 23.9338 86.614 23.243 85.7544 22.7527L47.0395 0.735397C45.3203 -0.245132 43.194 -0.245132 41.4748 0.735397L33.2975 5.39291C33.1957 5.44862 33.1957 5.60461 33.2975 5.66033L44.4042 11.9781C44.4042 11.9781 44.4381 11.9892 44.4494 12.0003" fill="#3971B6"/>
<path d="M44.4604 86.9997C44.4039 87.0331 44.3247 87.0554 44.2568 87.0554V99C45.2182 99 46.1796 98.7549 47.0392 98.2646L85.7428 76.2473C87.4619 75.2667 88.5251 73.4617 88.5251 71.5118V62.1967C88.5251 62.0742 88.3894 61.9962 88.2876 62.063L44.4604 86.9997Z" fill="#E32A1C"/>
<path d="M44.0645 86.9997L18.8088 72.6371C18.707 72.5814 18.5713 72.6483 18.5713 72.7708V85.15C18.5713 85.2057 18.6052 85.2614 18.6505 85.2837L41.4858 98.2757C42.3454 98.766 43.3068 99.0111 44.2568 99.0111V87.0665C44.189 87.0665 44.1211 87.0442 44.0645 87.0108" fill="#ED7402"/>
<path d="M11.1971 30.9201C11.1971 30.8532 11.2197 30.7864 11.2537 30.7307L0.746475 24.7472C0.271446 25.5718 0 26.5077 0 27.4882V71.5118C0 73.328 0.916129 75.0216 2.4317 76.0356L10.9596 80.8937C11.0614 80.9494 11.1971 80.8825 11.1971 80.7599V30.9201Z" fill="#FAB838"/>
<path d="M11.3895 30.5858L36.6905 16.201C36.7923 16.1453 36.7923 15.9893 36.6905 15.9336L25.81 9.74957C25.81 9.74957 25.6969 9.71614 25.6517 9.74957L2.78242 22.7416C1.92285 23.2318 1.23292 23.9227 0.746582 24.7472L11.2538 30.7195C11.2877 30.6638 11.333 30.6081 11.4008 30.5747" fill="#00AA84"/>
</svg>
