<svg width="438" height="100" viewBox="0 0 438 100" fill="none" xmlns="http://www.w3.org/2000/svg">
<path d="M88.5252 27.4882C88.5252 26.5077 88.265 25.5717 87.7787 24.7472L77.2715 30.7195C77.3054 30.7752 77.328 30.8421 77.328 30.9089V59.6674C77.328 59.79 77.4638 59.868 77.5656 59.8011L88.446 53.6171C88.446 53.6171 88.5252 53.5391 88.5252 53.4834V27.4882Z" fill="#3D3D3D"/>
<path d="M44.4602 12.0003L77.1355 30.5858C77.192 30.6192 77.2486 30.6638 77.2825 30.7307L87.7897 24.7584C87.3147 23.9338 86.6135 23.243 85.7539 22.7527L47.039 0.735397C45.3198 -0.245132 43.1935 -0.245132 41.4743 0.735397L33.297 5.39291C33.1953 5.44862 33.1953 5.60461 33.297 5.66033L44.4037 11.9781C44.4037 11.9781 44.4376 11.9892 44.4489 12.0003" fill="#3D3D3D"/>
<path d="M44.4604 86.9996C44.4039 87.0331 44.3247 87.0553 44.2568 87.0553V99C45.2182 99 46.1796 98.7548 47.0392 98.2646L85.7428 76.2472C87.4619 75.2667 88.5251 73.4617 88.5251 71.5117V62.1967C88.5251 62.0741 88.3894 61.9961 88.2876 62.063L44.4604 86.9996Z" fill="#3D3D3D"/>
<path d="M44.0645 86.9997L18.8088 72.6372C18.707 72.5815 18.5713 72.6483 18.5713 72.7709V85.1501C18.5713 85.2058 18.6052 85.2615 18.6505 85.2838L41.4858 98.2758C42.3454 98.766 43.3068 99.0112 44.2568 99.0112V87.0665C44.189 87.0665 44.1211 87.0443 44.0645 87.0108" fill="#3D3D3D"/>
<path d="M11.1971 30.9201C11.1971 30.8532 11.2197 30.7864 11.2537 30.7306L0.746475 24.7472C0.271446 25.5717 0 26.5077 0 27.4882V71.5117C0 73.328 0.916129 75.0216 2.4317 76.0355L10.9596 80.8936C11.0614 80.9493 11.1971 80.8825 11.1971 80.7599V30.9201Z" fill="#3D3D3D"/>
<path d="M11.389 30.5858L36.69 16.201C36.7918 16.1453 36.7918 15.9893 36.69 15.9336L25.8096 9.7496C25.8096 9.7496 25.6965 9.71617 25.6512 9.7496L2.78193 22.7416C1.92236 23.2319 1.23243 23.9227 0.746094 24.7472L11.2533 30.7195C11.2872 30.6638 11.3325 30.6081 11.4003 30.5747" fill="#3D3D3D"/>
<path d="M115 78.9153H117.998V86.6204H119.235V78.9153H122.232V77.8217H115V78.9153Z" fill="#3D3D3D"/>
<path d="M128.965 83.5788C129.506 83.3358 129.922 82.986 130.214 82.5291C130.505 82.0726 130.651 81.5256 130.651 80.8885C130.651 79.9253 130.326 79.1729 129.677 78.6324C129.027 78.092 128.136 77.8217 127.004 77.8217H123.594V86.6209H124.843V83.9437H127.004C127.196 83.9437 127.381 83.9361 127.559 83.9205L129.44 86.6209H130.801L128.727 83.6749C128.809 83.6452 128.888 83.6135 128.965 83.5788H128.965ZM126.966 82.8748H124.843V78.9153H126.966C127.765 78.9153 128.371 79.0874 128.784 79.4306C129.196 79.7743 129.402 80.2604 129.402 80.8885C129.402 81.5165 129.196 82.0057 128.784 82.3534C128.371 82.7012 127.765 82.8748 126.966 82.8748Z" fill="#3D3D3D"/>
<path d="M135.31 77.8217L131.351 86.6209H132.637L133.598 84.4212H138.247L139.208 86.6209H140.519L136.547 77.8217H135.31ZM134.037 83.4153L135.922 79.0979L137.808 83.4153H134.037Z" fill="#3D3D3D"/>
<path d="M148.088 84.378L142.842 77.8217H141.817V86.6204H143.067V80.0642L148.313 86.6204H149.337V77.8217H148.088V84.378Z" fill="#3D3D3D"/>
<path d="M156.851 82.3846C156.538 82.209 156.192 82.0661 155.814 81.9574C155.435 81.8487 155.058 81.75 154.684 81.662C154.309 81.5739 153.966 81.4758 153.653 81.3661C153.341 81.2574 153.086 81.1104 152.891 80.9262C152.695 80.742 152.597 80.4949 152.597 80.1844C152.597 79.9248 152.67 79.6903 152.816 79.4804C152.961 79.2711 153.192 79.1035 153.51 78.9777C153.826 78.8519 154.23 78.7895 154.721 78.7895C155.112 78.7895 155.516 78.8458 155.933 78.959C156.349 79.0718 156.744 79.2545 157.12 79.5061L157.532 78.5001C157.165 78.249 156.732 78.0562 156.232 77.9219C155.733 77.788 155.229 77.7211 154.721 77.7211C153.955 77.7211 153.324 77.8363 152.828 78.0663C152.333 78.2973 151.967 78.6033 151.729 78.9842C151.492 79.3652 151.373 79.7824 151.373 80.2348C151.373 80.6872 151.469 81.0873 151.66 81.3847C151.852 81.6821 152.104 81.9186 152.416 82.0953C152.728 82.2709 153.073 82.4158 153.453 82.5291C153.831 82.6423 154.208 82.7404 154.583 82.8245C154.958 82.9085 155.301 83.0066 155.613 83.1204C155.925 83.2331 156.179 83.3821 156.375 83.5662C156.571 83.7509 156.669 83.9935 156.669 84.2954C156.669 84.5551 156.594 84.7876 156.444 84.9929C156.294 85.1983 156.061 85.3598 155.744 85.4765C155.428 85.5943 155.015 85.6527 154.508 85.6527C153.95 85.6527 153.412 85.5561 152.896 85.3633C152.38 85.1706 151.955 84.928 151.622 84.6346L151.16 85.6149C151.51 85.942 151.989 86.2083 152.597 86.4131C153.204 86.6189 153.842 86.7211 154.508 86.7211C155.274 86.7211 155.909 86.6058 156.413 86.3758C156.917 86.1454 157.29 85.8394 157.531 85.4579C157.772 85.077 157.893 84.6643 157.893 84.22C157.893 83.7756 157.797 83.3821 157.606 83.0882C157.415 82.7953 157.163 82.5603 156.851 82.3846Z" fill="#3D3D3D"/>
<path d="M159.717 86.6204H160.966V83.063H165.35V81.982H160.966V78.9153H165.887V77.8217H159.717V86.6204Z" fill="#3D3D3D"/>
<path d="M174.812 78.9968C174.392 78.5907 173.9 78.2761 173.338 78.0542C172.776 77.8323 172.162 77.7211 171.496 77.7211C170.83 77.7211 170.201 77.8343 169.635 78.0603C169.068 78.2867 168.577 78.6033 168.161 79.0094C167.745 79.4155 167.42 79.8911 167.187 80.4356C166.954 80.9806 166.837 81.5754 166.837 82.2206C166.837 82.8657 166.953 83.4611 167.187 84.0056C167.42 84.5501 167.745 85.0256 168.161 85.4318C168.577 85.8384 169.071 86.1549 169.641 86.3809C170.212 86.6068 170.83 86.7201 171.497 86.7201C172.163 86.7201 172.777 86.6088 173.339 86.3869C173.901 86.1655 174.392 85.8505 174.813 85.4443C175.233 85.0382 175.558 84.5627 175.787 84.0176C176.016 83.4731 176.13 82.8738 176.13 82.2201C176.13 81.5664 176.016 80.9675 175.787 80.4225C175.558 79.878 175.233 79.4024 174.813 78.9958L174.812 78.9968ZM174.625 83.5657C174.454 83.9764 174.217 84.3347 173.912 84.6407C173.608 84.9471 173.25 85.1837 172.838 85.3512C172.426 85.5193 171.978 85.6024 171.496 85.6024C171.013 85.6024 170.552 85.5193 170.14 85.3512C169.728 85.1837 169.368 84.9471 169.06 84.6407C168.752 84.3347 168.512 83.9764 168.342 83.5657C168.171 83.1556 168.086 82.7067 168.086 82.2211C168.086 81.7354 168.171 81.2871 168.342 80.8764C168.512 80.4658 168.752 80.1074 169.06 79.8015C169.368 79.4955 169.728 79.259 170.14 79.0909C170.552 78.9233 171.004 78.8398 171.496 78.8398C171.987 78.8398 172.426 78.9233 172.838 79.0909C173.25 79.259 173.608 79.4955 173.912 79.8015C174.217 80.1074 174.454 80.4658 174.625 80.8764C174.795 81.2871 174.881 81.7354 174.881 82.2211C174.881 82.7067 174.795 83.1556 174.625 83.5657Z" fill="#3D3D3D"/>
<path d="M183.412 83.5788C183.953 83.3358 184.369 82.986 184.661 82.5291C184.952 82.0726 185.098 81.5256 185.098 80.8885C185.098 79.9253 184.774 79.1729 184.124 78.6324C183.474 78.092 182.583 77.8217 181.451 77.8217H178.041V86.6209H179.29V83.9437H181.451C181.643 83.9437 181.829 83.9361 182.007 83.9205L183.887 86.6209H185.249L183.174 83.6749C183.256 83.6452 183.335 83.6135 183.412 83.5788H183.412ZM181.413 82.8748H179.29V78.9153H181.413C182.212 78.9153 182.818 79.0874 183.23 79.4306C183.642 79.7743 183.848 80.2604 183.848 80.8885C183.848 81.5165 183.642 82.0057 183.23 82.3534C182.818 82.7012 182.212 82.8748 181.413 82.8748Z" fill="#3D3D3D"/>
<path d="M195.391 77.8217L191.792 84.002L188.146 77.8217H187.122V86.6204H188.321V80.2438L191.481 85.552H192.056L195.217 80.2041L195.229 86.6204H196.428L196.415 77.8217H195.391Z" fill="#3D3D3D"/>
<path d="M201.686 77.8217L197.727 86.6209H199.013L199.974 84.4212H204.623L205.584 86.6209H206.895L202.923 77.8217H201.686ZM200.413 83.4153L202.298 79.0979L204.184 83.4153H200.413Z" fill="#3D3D3D"/>
<path d="M214.465 84.378L209.218 77.8217H208.194V86.6204H209.444V80.0642L214.689 86.6204H215.714V77.8217H214.465V84.378Z" fill="#3D3D3D"/>
<path d="M224.488 78.3748C223.776 78.0064 222.954 77.8217 222.021 77.8217H218.336V86.6209H222.021C222.954 86.6209 223.776 86.4367 224.488 86.0679C225.199 85.699 225.754 85.1837 226.149 84.5214C226.545 83.8596 226.742 83.0927 226.742 82.2211C226.742 81.3495 226.544 80.5825 226.149 79.9207C225.754 79.259 225.2 78.7432 224.488 78.3743V78.3748ZM225.056 83.9492C224.765 84.4479 224.355 84.8354 223.826 85.1122C223.297 85.3885 222.671 85.5269 221.946 85.5269H219.585V78.9153H221.946C222.671 78.9153 223.297 79.0537 223.826 79.3299C224.354 79.6067 224.764 79.9922 225.056 80.4869C225.348 80.9811 225.494 81.5593 225.494 82.2216C225.494 82.8838 225.347 83.4515 225.056 83.9497V83.9492Z" fill="#3D3D3D"/>
<path d="M235.918 78.9968C235.497 78.5907 235.005 78.2761 234.444 78.0542C233.882 77.8323 233.268 77.7211 232.602 77.7211C231.935 77.7211 231.306 77.8343 230.74 78.0603C230.174 78.2867 229.683 78.6033 229.267 79.0094C228.85 79.4155 228.525 79.8911 228.292 80.4356C228.059 80.9806 227.942 81.5754 227.942 82.2206C227.942 82.8657 228.059 83.4611 228.292 84.0056C228.525 84.5501 228.851 85.0256 229.267 85.4318C229.683 85.8384 230.176 86.1549 230.747 86.3809C231.317 86.6068 231.935 86.7201 232.602 86.7201C233.269 86.7201 233.882 86.6088 234.444 86.3869C235.006 86.1655 235.498 85.8505 235.918 85.4443C236.339 85.0382 236.663 84.5627 236.892 84.0176C237.121 83.4731 237.236 82.8738 237.236 82.2201C237.236 81.5664 237.121 80.9675 236.892 80.4225C236.663 79.878 236.338 79.4024 235.918 78.9958L235.918 78.9968ZM235.731 83.5657C235.56 83.9764 235.322 84.3347 235.018 84.6407C234.714 84.9471 234.356 85.1837 233.944 85.3512C233.532 85.5193 233.084 85.6024 232.602 85.6024C232.119 85.6024 231.658 85.5193 231.246 85.3512C230.834 85.1837 230.474 84.9471 230.166 84.6407C229.858 84.3347 229.618 83.9764 229.447 83.5657C229.277 83.1556 229.191 82.7067 229.191 82.2211C229.191 81.7354 229.276 81.2871 229.447 80.8764C229.618 80.4658 229.857 80.1074 230.166 79.8015C230.474 79.4955 230.834 79.259 231.246 79.0909C231.658 78.9233 232.11 78.8398 232.602 78.8398C233.093 78.8398 233.532 78.9233 233.944 79.0909C234.356 79.259 234.714 79.4955 235.018 79.8015C235.322 80.1074 235.56 80.4658 235.731 80.8764C235.901 81.2871 235.987 81.7354 235.987 82.2211C235.987 82.7067 235.901 83.1556 235.731 83.5657Z" fill="#3D3D3D"/>
<path d="M244.024 79.7954C244.336 79.4935 244.706 79.259 245.135 79.0914C245.564 78.9238 246.029 78.8403 246.528 78.8403C247.028 78.8403 247.475 78.9218 247.896 79.0853C248.316 79.2489 248.705 79.5066 249.064 79.8583L249.838 79.0793C249.439 78.6269 248.952 78.2872 248.377 78.0607C247.802 77.8348 247.169 77.7216 246.479 77.7216C245.788 77.7216 245.171 77.8328 244.605 78.0547C244.038 78.2766 243.545 78.5912 243.125 78.9973C242.704 79.4039 242.377 79.8795 242.144 80.424C241.911 80.9685 241.794 81.5678 241.794 82.2216C241.794 82.8753 241.91 83.4741 242.144 84.0191C242.377 84.5642 242.702 85.0397 243.118 85.4458C243.534 85.852 244.026 86.167 244.592 86.3884C245.158 86.6103 245.779 86.7216 246.453 86.7216C247.069 86.7216 247.666 86.6275 248.245 86.4387C248.824 86.25 249.33 85.9717 249.763 85.6028V82.1712H248.564V85.0327C248.339 85.1811 248.104 85.2989 247.858 85.3824C247.429 85.5294 246.982 85.6023 246.516 85.6023C246.016 85.6023 245.554 85.5193 245.129 85.3512C244.704 85.1836 244.336 84.9471 244.023 84.6406C243.711 84.3347 243.469 83.9744 243.299 83.5597C243.128 83.145 243.043 82.6986 243.043 82.2211C243.043 81.7435 243.128 81.2845 243.299 80.8698C243.469 80.4547 243.711 80.0964 244.023 79.7949L244.024 79.7954Z" fill="#3D3D3D"/>
<path d="M253.398 82.6861H257.782V81.6177H253.398V78.9153H258.319V77.8217H252.148V86.6204H258.494V85.5269H253.398V82.6861Z" fill="#3D3D3D"/>
<path d="M265.408 82.3846C265.096 82.209 264.75 82.0661 264.371 81.9574C263.992 81.8487 263.615 81.75 263.241 81.662C262.866 81.5739 262.523 81.4758 262.21 81.3661C261.898 81.2574 261.644 81.1104 261.448 80.9262C261.253 80.742 261.154 80.4949 261.154 80.1844C261.154 79.9248 261.227 79.6903 261.373 79.4804C261.519 79.2711 261.75 79.1035 262.067 78.9777C262.383 78.8519 262.787 78.7895 263.278 78.7895C263.669 78.7895 264.073 78.8458 264.49 78.959C264.906 79.0718 265.302 79.2545 265.677 79.5061L266.089 78.5001C265.722 78.249 265.29 78.0562 264.79 77.9219C264.29 77.788 263.786 77.7211 263.278 77.7211C262.512 77.7211 261.881 77.8363 261.386 78.0663C260.89 78.2973 260.524 78.6033 260.287 78.9842C260.049 79.3652 259.931 79.7824 259.931 80.2348C259.931 80.6872 260.026 81.0873 260.218 81.3847C260.409 81.6821 260.661 81.9186 260.973 82.0953C261.286 82.2709 261.631 82.4158 262.01 82.5291C262.389 82.6423 262.766 82.7404 263.14 82.8245C263.515 82.9085 263.858 83.0066 264.171 83.1204C264.483 83.2331 264.737 83.3821 264.933 83.5662C265.129 83.7509 265.227 83.9935 265.227 84.2954C265.227 84.5551 265.152 84.7876 265.002 84.9929C264.852 85.1983 264.619 85.3598 264.302 85.4765C263.985 85.5943 263.573 85.6527 263.065 85.6527C262.507 85.6527 261.97 85.5561 261.454 85.3633C260.938 85.1706 260.513 84.928 260.18 84.6346L259.718 85.6149C260.068 85.942 260.546 86.2083 261.154 86.4131C261.762 86.6189 262.399 86.7211 263.066 86.7211C263.832 86.7211 264.466 86.6058 264.971 86.3758C265.474 86.1454 265.847 85.8394 266.089 85.4579C266.33 85.077 266.451 84.6643 266.451 84.22C266.451 83.7756 266.355 83.3821 266.164 83.0882C265.972 82.7953 265.721 82.5603 265.409 82.3846H265.408Z" fill="#3D3D3D"/>
<path d="M266.888 78.9153H269.886V86.6204H271.122V78.9153H274.12V77.8217H266.888V78.9153Z" fill="#3D3D3D"/>
<path d="M282.62 78.9968C282.199 78.5907 281.708 78.2761 281.146 78.0542C280.584 77.8323 279.97 77.7211 279.304 77.7211C278.638 77.7211 278.009 77.8343 277.442 78.0603C276.876 78.2867 276.385 78.6033 275.969 79.0094C275.552 79.4155 275.228 79.8911 274.995 80.4356C274.762 80.9806 274.645 81.5754 274.645 82.2206C274.645 82.8657 274.761 83.4611 274.995 84.0056C275.228 84.5501 275.553 85.0256 275.969 85.4318C276.385 85.8384 276.878 86.1549 277.449 86.3809C278.02 86.6068 278.638 86.7201 279.304 86.7201C279.971 86.7201 280.584 86.6088 281.147 86.3869C281.709 86.1655 282.2 85.8505 282.62 85.4443C283.041 85.0382 283.365 84.5627 283.594 84.0176C283.823 83.4731 283.938 82.8738 283.938 82.2201C283.938 81.5664 283.823 80.9675 283.594 80.4225C283.365 79.878 283.04 79.4024 282.62 78.9958L282.62 78.9968ZM282.433 83.5657C282.262 83.9764 282.025 84.3347 281.721 84.6407C281.417 84.9471 281.058 85.1837 280.646 85.3512C280.234 85.5193 279.786 85.6024 279.304 85.6024C278.821 85.6024 278.361 85.5193 277.949 85.3512C277.536 85.1837 277.176 84.9471 276.868 84.6407C276.56 84.3347 276.32 83.9764 276.15 83.5657C275.979 83.1556 275.894 82.7067 275.894 82.2211C275.894 81.7354 275.979 81.2871 276.15 80.8764C276.32 80.4658 276.56 80.1074 276.868 79.8015C277.176 79.4955 277.536 79.259 277.949 79.0909C278.361 78.9233 278.812 78.8398 279.304 78.8398C279.795 78.8398 280.234 78.9233 280.646 79.0909C281.058 79.259 281.417 79.4955 281.721 79.8015C282.025 80.1074 282.262 80.4658 282.433 80.8764C282.603 81.2871 282.689 81.7354 282.689 82.2211C282.689 82.7067 282.603 83.1556 282.433 83.5657Z" fill="#3D3D3D"/>
<path d="M291.22 83.5788C291.762 83.3358 292.178 82.986 292.47 82.5291C292.761 82.0726 292.907 81.5256 292.907 80.8885C292.907 79.9253 292.582 79.1729 291.933 78.6324C291.283 78.092 290.392 77.8217 289.26 77.8217H285.85V86.6209H287.099V83.9437H289.26C289.452 83.9437 289.637 83.9361 289.815 83.9205L291.695 86.6209H293.057L290.983 83.6749C291.064 83.6452 291.144 83.6135 291.221 83.5788H291.22ZM289.222 82.8748H287.099V78.9153H289.222C290.021 78.9153 290.627 79.0874 291.039 79.4306C291.451 79.7743 291.657 80.2604 291.657 80.8885C291.657 81.5165 291.451 82.0057 291.039 82.3534C290.627 82.7012 290.021 82.8748 289.222 82.8748Z" fill="#3D3D3D"/>
<path d="M296.179 82.6861H300.563V81.6177H296.179V78.9153H301.1V77.8217H294.93V86.6204H301.275V85.5269H296.179V82.6861Z" fill="#3D3D3D"/>
<path d="M308.189 82.3846C307.877 82.209 307.531 82.0661 307.152 81.9574C306.773 81.8487 306.397 81.75 306.022 81.662C305.647 81.5739 305.304 81.4758 304.991 81.3661C304.679 81.2574 304.425 81.1104 304.229 80.9262C304.034 80.742 303.936 80.4949 303.936 80.1844C303.936 79.9248 304.008 79.6903 304.154 79.4804C304.3 79.2711 304.531 79.1035 304.848 78.9777C305.164 78.8519 305.568 78.7895 306.06 78.7895C306.451 78.7895 306.855 78.8458 307.271 78.959C307.687 79.0718 308.083 79.2545 308.458 79.5061L308.87 78.5001C308.503 78.249 308.071 78.0562 307.571 77.9219C307.071 77.788 306.567 77.7211 306.06 77.7211C305.293 77.7211 304.662 77.8363 304.167 78.0663C303.672 78.2973 303.306 78.6033 303.068 78.9842C302.831 79.3652 302.712 79.7824 302.712 80.2348C302.712 80.6872 302.808 81.0873 302.999 81.3847C303.191 81.6821 303.443 81.9186 303.755 82.0953C304.067 82.2709 304.412 82.4158 304.791 82.5291C305.17 82.6423 305.547 82.7404 305.922 82.8245C306.297 82.9085 306.64 83.0066 306.952 83.1204C307.264 83.2331 307.518 83.3821 307.714 83.5662C307.91 83.7509 308.008 83.9935 308.008 84.2954C308.008 84.5551 307.933 84.7876 307.783 84.9929C307.633 85.1983 307.4 85.3598 307.083 85.4765C306.767 85.5943 306.355 85.6527 305.847 85.6527C305.288 85.6527 304.751 85.5561 304.235 85.3633C303.719 85.1706 303.294 84.928 302.961 84.6346L302.499 85.6149C302.849 85.942 303.328 86.2083 303.936 86.4131C304.543 86.6189 305.18 86.7211 305.847 86.7211C306.613 86.7211 307.248 86.6058 307.752 86.3758C308.255 86.1454 308.628 85.8394 308.869 85.4579C309.111 85.077 309.232 84.6643 309.232 84.22C309.232 83.7756 309.136 83.3821 308.945 83.0882C308.753 82.7953 308.501 82.5603 308.189 82.3846H308.189Z" fill="#3D3D3D"/>
<path d="M315.664 82.6861H320.048V81.6177H315.664V78.9153H320.586V77.8217H314.415V86.6204H320.76V85.5269H315.664V82.6861Z" fill="#3D3D3D"/>
<path d="M331.053 77.8217L327.454 84.002L323.809 77.8217H322.784V86.6204H323.983V80.2438L327.144 85.552H327.718L330.879 80.2041L330.891 86.6204H332.09L332.078 77.8217H331.053Z" fill="#3D3D3D"/>
<path d="M339.322 82.6861H343.707V81.6177H339.322V78.9153H344.244V77.8217H338.073V86.6204H344.419V85.5269H339.322V82.6861Z" fill="#3D3D3D"/>
<path d="M351.332 82.3846C351.02 82.209 350.674 82.0661 350.296 81.9574C349.917 81.8487 349.54 81.75 349.166 81.662C348.791 81.5739 348.447 81.4758 348.135 81.3661C347.823 81.2574 347.568 81.1104 347.373 80.9262C347.177 80.742 347.079 80.4949 347.079 80.1844C347.079 79.9248 347.152 79.6903 347.298 79.4804C347.443 79.2711 347.674 79.1035 347.991 78.9777C348.308 78.8519 348.712 78.7895 349.203 78.7895C349.594 78.7895 349.998 78.8458 350.415 78.959C350.831 79.0718 351.226 79.2545 351.601 79.5061L352.014 78.5001C351.647 78.249 351.214 78.0562 350.714 77.9219C350.215 77.788 349.711 77.7211 349.203 77.7211C348.437 77.7211 347.806 77.8363 347.311 78.0663C346.815 78.2973 346.449 78.6033 346.212 78.9842C345.974 79.3652 345.856 79.7824 345.856 80.2348C345.856 80.6872 345.951 81.0873 346.143 81.3847C346.334 81.6821 346.586 81.9186 346.898 82.0953C347.21 82.2709 347.556 82.4158 347.935 82.5291C348.313 82.6423 348.691 82.7404 349.065 82.8245C349.44 82.9085 349.783 83.0066 350.096 83.1204C350.408 83.2331 350.662 83.3821 350.858 83.5662C351.053 83.7509 351.151 83.9935 351.151 84.2954C351.151 84.5551 351.076 84.7876 350.926 84.9929C350.776 85.1983 350.543 85.3598 350.227 85.4765C349.91 85.5943 349.498 85.6527 348.99 85.6527C348.432 85.6527 347.895 85.5561 347.379 85.3633C346.863 85.1706 346.438 84.928 346.105 84.6346L345.643 85.6149C345.993 85.942 346.471 86.2083 347.079 86.4131C347.687 86.6189 348.324 86.7211 348.991 86.7211C349.757 86.7211 350.391 86.6058 350.895 86.3758C351.399 86.1454 351.772 85.8394 352.014 85.4579C352.255 85.077 352.376 84.6643 352.376 84.22C352.376 83.7756 352.28 83.3821 352.089 83.0882C351.897 82.7953 351.645 82.5603 351.333 82.3846H351.332Z" fill="#3D3D3D"/>
<path d="M352.812 78.9153H355.81V86.6204H357.047V78.9153H360.045V77.8217H352.812V78.9153Z" fill="#3D3D3D"/>
<path d="M366.777 83.5788C367.318 83.3358 367.735 82.986 368.026 82.5291C368.317 82.0726 368.463 81.5256 368.463 80.8885C368.463 79.9253 368.139 79.1729 367.489 78.6324C366.84 78.092 365.948 77.8217 364.816 77.8217H361.406V86.6209H362.655V83.9437H364.816C365.008 83.9437 365.194 83.9361 365.372 83.9205L367.252 86.6209H368.614L366.54 83.6749C366.621 83.6452 366.701 83.6135 366.778 83.5788H366.777ZM364.779 82.8748H362.655V78.9153H364.779C365.578 78.9153 366.184 79.0874 366.596 79.4306C367.008 79.7743 367.214 80.2604 367.214 80.8885C367.214 81.5165 367.008 82.0057 366.596 82.3534C366.184 82.7012 365.578 82.8748 364.779 82.8748Z" fill="#3D3D3D"/>
<path d="M373.123 77.8217L369.163 86.6209H370.45L371.41 84.4212H376.06L377.02 86.6209H378.332L374.359 77.8217H373.123ZM371.849 83.4153L373.735 79.0979L375.62 83.4153H371.849Z" fill="#3D3D3D"/>
<path d="M377.932 78.9153H380.929V86.6204H382.166V78.9153H385.164V77.8217H377.932V78.9153Z" fill="#3D3D3D"/>
<path d="M387.774 82.6861H392.158V81.6177H387.774V78.9153H392.695V77.8217H386.524V86.6204H392.87V85.5269H387.774V82.6861Z" fill="#3D3D3D"/>
<path d="M396.4 79.7954C396.712 79.4935 397.082 79.259 397.511 79.0914C397.94 78.9238 398.405 78.8403 398.904 78.8403C399.404 78.8403 399.851 78.9218 400.272 79.0853C400.692 79.2489 401.081 79.5066 401.44 79.8583L402.214 79.0793C401.815 78.6269 401.328 78.2872 400.753 78.0607C400.178 77.8348 399.545 77.7216 398.855 77.7216C398.164 77.7216 397.547 77.8328 396.981 78.0547C396.414 78.2766 395.921 78.5912 395.501 78.9973C395.08 79.4039 394.753 79.8795 394.52 80.424C394.287 80.9685 394.17 81.5678 394.17 82.2216C394.17 82.8753 394.286 83.4741 394.52 84.0191C394.753 84.5642 395.078 85.0397 395.494 85.4458C395.91 85.852 396.402 86.167 396.968 86.3884C397.534 86.6103 398.155 86.7216 398.829 86.7216C399.445 86.7216 400.042 86.6275 400.621 86.4387C401.2 86.25 401.706 85.9717 402.139 85.6028V82.1712H400.94V85.0327C400.715 85.1811 400.48 85.2989 400.234 85.3824C399.805 85.5294 399.358 85.6023 398.892 85.6023C398.392 85.6023 397.93 85.5193 397.505 85.3512C397.08 85.1836 396.712 84.9471 396.399 84.6406C396.087 84.3347 395.845 83.9744 395.675 83.5597C395.504 83.145 395.419 82.6986 395.419 82.2211C395.419 81.7435 395.504 81.2845 395.675 80.8698C395.845 80.4547 396.087 80.0964 396.399 79.7949L396.4 79.7954Z" fill="#3D3D3D"/>
<path d="M405.774 77.8217H404.524V86.6209H405.774V77.8217Z" fill="#3D3D3D"/>
<path d="M413.287 82.3846C412.974 82.209 412.628 82.0661 412.25 81.9574C411.871 81.8487 411.494 81.75 411.12 81.662C410.745 81.5739 410.402 81.4758 410.089 81.3661C409.777 81.2574 409.522 81.1104 409.327 80.9262C409.131 80.742 409.033 80.4949 409.033 80.1844C409.033 79.9248 409.106 79.6903 409.252 79.4804C409.397 79.2711 409.628 79.1035 409.946 78.9777C410.262 78.8519 410.666 78.7895 411.157 78.7895C411.548 78.7895 411.952 78.8458 412.369 78.959C412.785 79.0718 413.181 79.2545 413.556 79.5061L413.968 78.5001C413.601 78.249 413.169 78.0562 412.668 77.9219C412.169 77.788 411.665 77.7211 411.157 77.7211C410.391 77.7211 409.76 77.8363 409.265 78.0663C408.769 78.2973 408.403 78.6033 408.166 78.9842C407.928 79.3652 407.81 79.7824 407.81 80.2348C407.81 80.6872 407.905 81.0873 408.097 81.3847C408.288 81.6821 408.54 81.9186 408.852 82.0953C409.164 82.2709 409.51 82.4158 409.889 82.5291C410.268 82.6423 410.645 82.7404 411.019 82.8245C411.394 82.9085 411.737 83.0066 412.05 83.1204C412.362 83.2331 412.616 83.3821 412.812 83.5662C413.007 83.7509 413.106 83.9935 413.106 84.2954C413.106 84.5551 413.031 84.7876 412.88 84.9929C412.73 85.1983 412.497 85.3598 412.181 85.4765C411.864 85.5943 411.452 85.6527 410.944 85.6527C410.386 85.6527 409.849 85.5561 409.333 85.3633C408.817 85.1706 408.392 84.928 408.059 84.6346L407.597 85.6149C407.947 85.942 408.425 86.2083 409.033 86.4131C409.641 86.6189 410.278 86.7211 410.945 86.7211C411.711 86.7211 412.345 86.6058 412.849 86.3758C413.353 86.1454 413.726 85.8394 413.968 85.4579C414.209 85.077 414.33 84.6643 414.33 84.22C414.33 83.7756 414.234 83.3821 414.043 83.0882C413.851 82.7953 413.6 82.5603 413.288 82.3846H413.287Z" fill="#3D3D3D"/>
<path d="M421.999 77.8217H414.767V78.9153H417.764V86.6204H419.001V78.9153H421.999V77.8217Z" fill="#3D3D3D"/>
<path d="M425.558 77.8217L421.599 86.6209H422.885L423.846 84.4212H428.495L429.456 86.6209H430.768L426.795 77.8217H425.558ZM424.285 83.4153L426.17 79.0979L428.056 83.4153H424.285Z" fill="#3D3D3D"/>
<path d="M437.713 83.0882C437.521 82.7953 437.269 82.5603 436.957 82.3846C436.645 82.209 436.299 82.0661 435.92 81.9574C435.541 81.8487 435.165 81.75 434.79 81.662C434.415 81.5739 434.072 81.4758 433.759 81.3661C433.447 81.2574 433.193 81.1104 432.997 80.9262C432.802 80.742 432.704 80.4949 432.704 80.1844C432.704 79.9248 432.776 79.6903 432.922 79.4804C433.068 79.2711 433.299 79.1035 433.616 78.9777C433.933 78.8519 434.336 78.7895 434.828 78.7895C435.219 78.7895 435.623 78.8458 436.039 78.959C436.455 79.0718 436.851 79.2545 437.226 79.5061L437.638 78.5001C437.272 78.249 436.839 78.0562 436.339 77.9219C435.839 77.788 435.335 77.7211 434.828 77.7211C434.062 77.7211 433.43 77.8363 432.935 78.0663C432.439 78.2973 432.073 78.6033 431.836 78.9842C431.598 79.3652 431.48 79.7824 431.48 80.2348C431.48 80.6872 431.575 81.0873 431.767 81.3847C431.958 81.6821 432.21 81.9186 432.522 82.0953C432.834 82.2709 433.18 82.4158 433.559 82.5291C433.938 82.6423 434.315 82.7404 434.689 82.8245C435.064 82.9085 435.407 83.0066 435.72 83.1204C436.032 83.2331 436.286 83.3821 436.482 83.5662C436.677 83.7509 436.775 83.9935 436.775 84.2954C436.775 84.5551 436.7 84.7876 436.55 84.9929C436.4 85.1983 436.167 85.3598 435.851 85.4765C435.534 85.5943 435.122 85.6527 434.614 85.6527C434.056 85.6527 433.519 85.5561 433.003 85.3633C432.487 85.1706 432.062 84.928 431.729 84.6346L431.267 85.6149C431.617 85.942 432.095 86.2083 432.703 86.4131C433.311 86.6189 433.948 86.7211 434.615 86.7211C435.381 86.7211 436.015 86.6058 436.519 86.3758C437.023 86.1454 437.396 85.8394 437.637 85.4579C437.879 85.077 438 84.6643 438 84.22C438 83.7756 437.904 83.3821 437.713 83.0882Z" fill="#3D3D3D"/>
<path d="M120.391 61.9401C118.321 61.3384 116.579 60.603 115.165 59.7562C114.577 59.3996 114.362 58.6642 114.656 58.0514L116.522 54.1293C116.862 53.4162 117.733 53.1599 118.423 53.5499C119.655 54.2519 121.047 54.8424 122.607 55.3215C124.722 55.9678 126.803 56.2909 128.862 56.2909C133.556 56.2909 135.908 54.9872 135.908 52.3576C135.908 51.1208 135.309 50.2517 134.121 49.7615C132.922 49.2712 131.011 48.8032 128.364 48.3687C125.605 47.923 123.343 47.4104 121.612 46.8422C119.87 46.2628 118.366 45.26 117.088 43.8114C115.81 42.3741 115.165 40.3573 115.165 37.7834C115.165 34.4073 116.5 31.7108 119.158 29.6941C121.816 27.6773 125.412 26.6633 129.936 26.6633C132.244 26.6633 134.551 26.9419 136.858 27.499C138.611 27.9224 140.127 28.4573 141.394 29.0924C142.038 29.4155 142.287 30.1955 141.982 30.8417L140.116 34.7527C139.788 35.4324 138.962 35.7221 138.283 35.3655C135.75 34.0507 132.945 33.3933 129.88 33.3933C127.573 33.3933 125.819 33.761 124.632 34.4964C123.433 35.2318 122.845 36.1901 122.845 37.3934C122.845 38.7305 123.478 39.6665 124.768 40.2236C126.046 40.7807 128.025 41.3044 130.706 41.7835C133.386 42.2292 135.592 42.7418 137.311 43.31C139.03 43.8894 140.511 44.87 141.744 46.2405C142.977 47.6221 143.599 49.5721 143.599 52.1014C143.599 55.4329 142.242 58.096 139.516 60.0905C136.79 62.0849 133.081 63.0878 128.387 63.0878C125.661 63.0878 123.003 62.7089 120.402 61.9512" fill="#3D3D3D"/>
<path d="M156.278 13.0585H162.148C163.403 13.0585 163.98 14.6073 163.019 15.4095L156.187 21.8721C155.939 22.0727 155.633 22.1841 155.316 22.1841H151.188C150.012 22.1841 149.39 20.8024 150.193 19.9556L155.283 13.493C155.543 13.2145 155.905 13.0585 156.278 13.0585Z" fill="#3D3D3D"/>
<path d="M150.781 27.0422H155.939C156.685 27.0422 157.296 27.6439 157.296 28.3793V61.2716C157.296 62.007 156.685 62.6086 155.939 62.6086H150.781C150.035 62.6086 149.424 62.007 149.424 61.2716V28.3793C149.424 27.6439 150.035 27.0422 150.781 27.0422Z" fill="#3D3D3D"/>
<path d="M193.805 30.5743C196.362 33.1927 197.64 37.0814 197.64 42.2292V61.2715C197.64 62.0069 197.029 62.6086 196.282 62.6086H191.125C190.378 62.6086 189.768 62.0069 189.768 61.2715V43.2877C189.768 40.179 189.078 37.8391 187.698 36.2569C186.318 34.6858 184.339 33.8947 181.783 33.8947C178.887 33.8947 176.603 34.8195 174.929 36.658C173.255 38.4965 172.418 41.1484 172.418 44.6137V61.2604C172.418 61.9958 171.807 62.5975 171.061 62.5975H165.903C165.157 62.5975 164.546 61.9958 164.546 61.2604V28.3681C164.546 27.6327 165.157 27.031 165.903 27.031H170.676C171.423 27.031 172.033 27.6327 172.033 28.3681V31.6328C173.334 29.9949 174.963 28.7469 176.942 27.9001C178.91 27.0533 181.138 26.6299 183.604 26.6299C187.834 26.6299 191.227 27.9447 193.783 30.5631" fill="#3D3D3D"/>
<path d="M226.311 54.5862C227.815 53.6725 229.014 52.38 229.896 50.6863C230.778 49.0038 231.219 47.0428 231.219 44.8254C231.219 42.6081 230.778 40.6582 229.896 38.9645C229.014 37.282 227.826 35.9784 226.311 35.0647C224.807 34.151 223.11 33.6942 221.221 33.6942C219.332 33.6942 217.636 34.151 216.132 35.0647C214.627 35.9784 213.428 37.2709 212.546 38.9645C211.664 40.6582 211.223 42.6081 211.223 44.8254C211.223 47.0428 211.664 49.0038 212.546 50.6863C213.428 52.38 214.616 53.6725 216.132 54.5862C217.636 55.4998 219.332 55.9455 221.221 55.9455C223.11 55.9455 224.807 55.4887 226.311 54.5862ZM238.944 14.5293V61.2827C238.944 62.0181 238.334 62.6198 237.587 62.6198H232.746C232 62.6198 231.389 62.0181 231.389 61.2827V58.018C230.088 59.7116 228.482 60.9707 226.582 61.8176C224.671 62.6644 222.567 63.0878 220.26 63.0878C217.036 63.0878 214.13 62.3301 211.551 60.8259C208.972 59.3217 206.948 57.1712 205.489 54.3967C204.018 51.6223 203.283 48.4356 203.283 44.8366C203.283 41.2376 204.018 38.062 205.489 35.3098C206.959 32.5577 208.972 30.4295 211.551 28.9141C214.13 27.4099 217.025 26.6522 220.26 26.6522C222.477 26.6522 224.512 27.0533 226.356 27.8556C228.2 28.6578 229.772 29.8501 231.072 31.4546V14.5405C231.072 13.8051 231.683 13.2034 232.43 13.2034H237.587C238.334 13.2034 238.944 13.8051 238.944 14.5405" fill="#3D3D3D"/>
<path d="M248.976 27.0422H254.134C254.88 27.0422 255.491 27.6439 255.491 28.3793V61.2716C255.491 62.007 254.88 62.6086 254.134 62.6086H248.976C248.23 62.6086 247.619 62.007 247.619 61.2716V28.3793C247.619 27.6439 248.23 27.0422 248.976 27.0422Z" fill="#3D3D3D"/>
<path d="M320.808 52.8813C322.697 50.8423 323.636 48.1569 323.636 44.8254C323.636 41.4938 322.697 38.8085 320.808 36.7694C318.919 34.7304 316.533 33.7053 313.638 33.7053C310.742 33.7053 308.367 34.7304 306.501 36.7694C304.635 38.8085 303.707 41.4938 303.707 44.8254C303.707 48.1569 304.635 50.8423 306.501 52.8813C308.367 54.9204 310.742 55.9455 313.638 55.9455C316.533 55.9455 318.919 54.9204 320.808 52.8813ZM304.465 60.7367C301.739 59.1879 299.613 57.0151 298.086 54.2407C296.559 51.4662 295.79 48.3241 295.79 44.8142C295.79 41.3044 296.559 38.1734 298.086 35.4212C299.613 32.6691 301.739 30.5186 304.465 28.9586C307.191 27.4098 310.244 26.6299 313.649 26.6299C317.053 26.6299 320.164 27.4098 322.889 28.9586C325.615 30.5186 327.741 32.6691 329.268 35.4212C330.795 38.1734 331.564 41.3044 331.564 44.8142C331.564 48.3241 330.795 51.4662 329.268 54.2407C327.741 57.0151 325.615 59.1768 322.889 60.7367C320.164 62.2966 317.087 63.0654 313.649 63.0654C310.211 63.0654 307.191 62.2855 304.465 60.7367Z" fill="#3D3D3D"/>
<path d="M367.394 30.5743C369.95 33.1927 371.228 37.0814 371.228 42.2292V61.2715C371.228 62.0069 370.618 62.6086 369.871 62.6086H364.714C363.967 62.6086 363.357 62.0069 363.357 61.2715V43.2877C363.357 40.179 362.667 37.8391 361.287 36.2569C359.907 34.6858 357.928 33.8947 355.372 33.8947C352.476 33.8947 350.191 34.8195 348.518 36.658C346.844 38.4965 346.007 41.1484 346.007 44.6137V61.2604C346.007 61.9958 345.396 62.5975 344.649 62.5975H339.492C338.745 62.5975 338.135 61.9958 338.135 61.2604V28.3681C338.135 27.6327 338.745 27.031 339.492 27.031H344.265C345.011 27.031 345.622 27.6327 345.622 28.3681V31.6328C346.923 29.9949 348.551 28.7469 350.531 27.9001C352.499 27.0533 354.727 26.6299 357.192 26.6299C361.423 26.6299 364.816 27.9447 367.372 30.5631" fill="#3D3D3D"/>
<path d="M387.855 35.6663C386.113 37.2374 385.061 39.3433 384.677 41.9618H403.723C403.384 39.3879 402.354 37.3043 400.647 35.6998C398.927 34.1064 396.79 33.3042 394.234 33.3042C391.678 33.3042 389.597 34.0953 387.855 35.6663ZM409.819 47.4884H384.744C385.208 50.1069 386.407 52.1793 388.364 53.717C390.309 55.2435 392.729 56.0123 395.625 56.0123C398.803 56.0123 401.506 55.0541 403.723 53.1376C404.3 52.6362 405.193 52.6919 405.68 53.2824L408.247 56.4135C408.677 56.926 408.643 57.6837 408.179 58.1739C406.811 59.6447 405.159 60.7924 403.225 61.6058C400.918 62.5863 398.317 63.0654 395.433 63.0654C391.745 63.0654 388.499 62.2855 385.683 60.7367C382.878 59.1879 380.707 57.0151 379.18 54.2407C377.653 51.4662 376.884 48.3241 376.884 44.8142C376.884 41.3044 377.63 38.2291 379.112 35.4546C380.594 32.6802 382.663 30.5186 385.299 28.9586C387.934 27.3987 390.92 26.6299 394.222 26.6299C397.525 26.6299 400.409 27.3987 402.988 28.9252C405.567 30.4517 407.58 32.6133 409.027 35.3878C410.475 38.1622 411.199 41.3712 411.199 45.0148C411.199 45.3379 411.188 45.7391 411.154 46.207C411.12 46.9201 410.52 47.4773 409.797 47.4773" fill="#3D3D3D"/>
<path d="M437.643 59.7451C437.857 60.3245 437.643 60.9819 437.122 61.3162C436.387 61.7953 435.55 62.1853 434.623 62.4638C433.299 62.8649 431.908 63.0655 430.438 63.0655C426.751 63.0655 423.901 62.0404 421.887 60.0014C419.874 57.9623 418.868 54.9873 418.868 51.0763V33.9616H414.694C413.948 33.9616 413.337 33.3599 413.337 32.6245V28.6356C413.337 27.9002 413.948 27.2985 414.694 27.2985H418.868V20.5016C418.868 19.7662 419.478 19.1646 420.225 19.1646H425.382C426.129 19.1646 426.74 19.7662 426.74 20.5016V27.2985H434.374C435.12 27.2985 435.731 27.9002 435.731 28.6356V32.6245C435.731 33.3599 435.12 33.9616 434.374 33.9616H426.74V50.8758C426.74 52.6028 427.135 53.9288 427.938 54.8424C428.73 55.7561 429.884 56.2129 431.399 56.2129C432.576 56.2129 433.627 55.9901 434.544 55.5555C435.256 55.2101 436.104 55.5667 436.376 56.3021L437.654 59.7562L437.643 59.7451Z" fill="#3D3D3D"/>
<path d="M247.404 15.2647L251.193 13.1254C251.487 12.9582 251.861 12.9582 252.155 13.1254L255.944 15.2647C256.249 15.4318 256.43 15.755 256.43 16.0892V20.3456C256.43 20.691 256.249 21.003 255.944 21.1701L252.155 23.3095C251.861 23.4766 251.487 23.4766 251.193 23.3095L247.404 21.1701C247.099 21.003 246.918 20.6799 246.918 20.3456V16.0892C246.918 15.7438 247.099 15.4318 247.404 15.2647Z" fill="#3D3D3D"/>
<path d="M288.506 52.8145C288.144 52.4691 287.556 52.4802 287.216 52.8591C286.538 53.6167 285.769 54.2407 284.932 54.7198C283.484 55.5444 281.9 55.9566 280.181 55.9566C277.207 55.9566 274.764 54.9427 272.864 52.9259C270.952 50.9091 270.002 48.2127 270.002 44.8365C270.002 41.4604 270.963 38.7639 272.898 36.7472C274.82 34.7304 277.252 33.7165 280.193 33.7165C281.912 33.7165 283.495 34.1287 284.943 34.9533C285.803 35.4435 286.583 36.0786 287.273 36.8586C287.646 37.282 288.325 37.282 288.675 36.8363C289.648 35.6218 291.345 33.4825 292.159 32.4462C292.43 32.112 292.419 31.6217 292.125 31.2986C291.209 30.318 290.168 29.4824 288.969 28.7915C286.47 27.3653 283.574 26.6633 280.26 26.6633C276.743 26.6633 273.61 27.4433 270.862 28.9921C268.113 30.552 265.964 32.7025 264.415 35.4547C262.865 38.2068 262.085 41.3378 262.085 44.8477C262.085 48.3575 262.865 51.4997 264.415 54.2741C265.964 57.0486 268.125 59.2102 270.896 60.7701C273.667 62.3301 276.788 63.0989 280.26 63.0989C283.529 63.0989 286.413 62.3746 288.902 60.9373C290.338 60.1127 291.559 59.0654 292.6 57.8397C292.894 57.4831 292.849 56.9594 292.521 56.6363C291.537 55.7004 289.58 53.8396 288.528 52.8368" fill="#3D3D3D"/>
</svg>
