<svg width="88" height="99" viewBox="0 0 88 99" fill="none" xmlns="http://www.w3.org/2000/svg">
<path d="M87.0253 27.4291C87.0253 26.4578 86.7655 25.509 86.2911 24.6958L75.9678 30.6594C76.0017 30.7159 76.0242 30.7837 76.0242 30.8514V59.5512C76.0242 59.6755 76.1598 59.7432 76.2614 59.6867L86.9575 53.5086C86.9575 53.5086 87.0366 53.4295 87.0366 53.373V27.4291H87.0253Z" fill="#7441AC"/>
<path d="M43.7113 11.9668L75.8334 30.5126C75.8899 30.5465 75.9464 30.5917 75.9689 30.6482L86.2923 24.6846C85.8179 23.8714 85.1402 23.1711 84.2931 22.6854L46.2526 0.728568C44.5584 -0.242775 42.4802 -0.242775 40.786 0.728568L32.7442 5.37068C32.6426 5.42716 32.6426 5.58528 32.7442 5.64175L43.6662 11.9442C43.6662 11.9442 43.7 11.9555 43.7113 11.9668Z" fill="#3E77DB"/>
<path d="M43.7115 86.8166C43.6551 86.8505 43.5873 86.8731 43.5195 86.8731V98.8002C44.4683 98.8002 45.4057 98.5518 46.2528 98.0661L84.3046 76.0979C85.9988 75.1266 87.0379 73.3194 87.0379 71.3655V62.0699C87.0379 61.9457 86.9024 61.8779 86.8007 61.9344L43.7115 86.8166Z" fill="#D13D2A"/>
<path d="M43.3266 86.8167L18.5009 72.4837C18.3992 72.4273 18.2637 72.495 18.2637 72.6193V84.9643C18.2637 84.9643 18.2976 85.0773 18.3427 85.0999L40.7853 98.0549C41.6324 98.5405 42.5698 98.789 43.5073 98.789V86.8619C43.4395 86.8619 43.3717 86.8393 43.3153 86.8054" fill="#F57A0C"/>
<path d="M11.0123 30.8514C11.0123 30.7837 11.0349 30.7159 11.0575 30.6594L0.734154 24.6958C0.259778 25.509 0 26.4465 0 27.4291V71.3655C0 73.1839 0.903574 74.8668 2.39447 75.8833L10.7864 80.7287C10.8881 80.7852 11.0236 80.7174 11.0236 80.5932V30.8514H11.0123Z" fill="#F6BE52"/>
<path d="M11.2045 30.5126L36.0754 16.1571C36.1771 16.1006 36.1771 15.9425 36.0754 15.886L25.3794 9.70779C25.3794 9.70779 25.2664 9.6852 25.2212 9.70779L2.73353 22.6967C1.88643 23.1823 1.20875 23.8826 0.734375 24.6958L11.0577 30.6594C11.0916 30.6029 11.1368 30.5465 11.2045 30.5126Z" fill="#41AE89"/>
<path d="M36.4147 63.4731C34.7196 62.9878 33.2976 62.4018 32.1486 61.7058C31.6683 61.422 31.4894 60.8268 31.7343 60.3323L33.2599 57.1732C33.533 56.5963 34.2487 56.3857 34.8138 56.7062C35.8214 57.2739 36.9609 57.7501 38.2323 58.1347C39.9557 58.6566 41.6603 58.913 43.3366 58.913C47.1695 58.913 49.0906 57.8599 49.0906 55.7447C49.0906 54.7466 48.6009 54.0415 47.6309 53.6478C46.6515 53.254 45.0882 52.8786 42.9316 52.5215C40.6714 52.1644 38.835 51.7523 37.413 51.2853C35.9909 50.8183 34.7573 50.0033 33.7119 48.8404C32.6666 47.6775 32.1486 46.0567 32.1486 43.9781C32.1486 41.2585 33.2316 39.0883 35.4071 37.4584C37.5825 35.8285 40.5113 35.0135 44.2124 35.0135C46.0959 35.0135 47.9794 35.2333 49.8629 35.6819C51.2943 36.0207 52.528 36.4511 53.5639 36.9639C54.0913 37.2295 54.2985 37.8521 54.0442 38.3741L52.5186 41.524C52.2549 42.0735 51.5768 42.3024 51.0212 42.0185C48.9494 40.9563 46.6609 40.4252 44.1559 40.4252C42.2724 40.4252 40.8409 40.7182 39.8709 41.3134C38.8915 41.8995 38.4112 42.6778 38.4112 43.6484C38.4112 44.7198 38.9292 45.4798 39.9745 45.9285C41.0199 46.3772 42.6303 46.7984 44.8245 47.1922C47.0188 47.5493 48.8081 47.9613 50.2113 48.4283C51.6145 48.8953 52.8199 49.6828 53.8276 50.7908C54.8353 51.8988 55.3438 53.4738 55.3438 55.5158C55.3438 58.1987 54.2326 60.3506 52.0101 61.9622C49.7875 63.5738 46.7551 64.3797 42.9222 64.3797C40.6997 64.3797 38.5242 64.0775 36.4053 63.464" fill="white"/>
</svg>
