<svg width="73" height="75" viewBox="0 0 73 75" fill="none" xmlns="http://www.w3.org/2000/svg">
<rect width="73" height="75" rx="5" fill="#3E77DB"/>
<path fill-rule="evenodd" clip-rule="evenodd" d="M20.9183 19.2487C19.5917 19.5375 18.5207 20.6144 18.2482 21.9336C18.1907 22.2119 18.1836 23.9843 18.1836 38C18.1836 52.0157 18.1907 53.7881 18.2482 54.0664C18.5132 55.3494 19.5349 56.406 20.8296 56.7361C21.1763 56.8245 52.8229 56.8245 53.1696 56.7361C54.4206 56.4172 55.4168 55.421 55.7357 54.17C55.8241 53.8233 55.8241 22.1767 55.7357 21.83C55.4217 20.5984 54.5264 19.6838 53.2326 19.2728C53.0425 19.2124 51.5168 19.2053 37.1046 19.1982C23.6477 19.1915 21.1451 19.1993 20.9183 19.2487ZM21.1515 21.2649C20.7642 21.4071 20.3484 21.8483 20.2427 22.229C20.2088 22.3511 20.1994 26.6788 20.2083 38.084L20.2206 53.771L20.3205 53.9739C20.4483 54.2335 20.7661 54.5513 21.0257 54.6791L21.2286 54.779H36.9996H52.7706L52.9735 54.6791C53.2331 54.5513 53.5509 54.2335 53.6787 53.9739L53.7786 53.771V38V22.229L53.6787 22.0261C53.5509 21.7665 53.2331 21.4487 52.9735 21.3209L52.7706 21.221L37.0416 21.2134C23.6047 21.2068 21.2891 21.2144 21.1515 21.2649ZM25.3502 24.6082C25.0636 24.6634 24.6695 24.852 24.411 25.0577C24.1273 25.2836 23.7935 25.7609 23.6746 26.111C23.581 26.3865 23.5808 26.3931 23.5685 29.852C23.5598 32.3088 23.5701 33.4003 23.6042 33.6034C23.743 34.4318 24.4575 35.1805 25.2944 35.3746C25.5402 35.4316 26.8686 35.4377 37.0501 35.428L48.5286 35.417L48.7772 35.3223C49.4874 35.0519 50.0375 34.4305 50.2083 33.7059C50.3018 33.3096 50.3005 26.683 50.2069 26.2859C50.0378 25.5683 49.5067 24.9773 48.7755 24.6933L48.4866 24.581L37.0206 24.575C30.0365 24.5713 25.4747 24.5842 25.3502 24.6082ZM25.6451 26.6528C25.5817 26.7229 25.5756 27.0165 25.5756 30.0098C25.5756 32.9358 25.5827 33.2971 25.6416 33.356C25.7013 33.4157 26.7822 33.422 36.9121 33.422C47.7135 33.422 48.1191 33.4192 48.1861 33.3452C48.2495 33.2751 48.2556 32.9818 48.2556 29.9917C48.2556 26.8706 48.2519 26.7117 48.1788 26.6455C48.1077 26.5812 47.2652 26.576 36.9083 26.576C26.1174 26.576 25.7121 26.5788 25.6451 26.6528ZM24.3366 40.158C23.9841 40.3128 23.7284 40.7033 23.7284 41.087C23.7284 41.4946 24.0363 41.9294 24.3996 42.0351C24.4968 42.0634 26.248 42.0737 29.5656 42.0654L34.5846 42.053L34.7831 41.9152C34.8924 41.8393 35.034 41.6882 35.0981 41.5792C35.1954 41.4136 35.2146 41.3327 35.2146 41.087C35.2146 40.8413 35.1954 40.7605 35.0981 40.5948C35.034 40.4858 34.8924 40.3347 34.7831 40.2588L34.5846 40.121L29.5236 40.1119C25.4139 40.1045 24.4389 40.1131 24.3366 40.158ZM44.2653 40.4326C43.9744 40.5229 43.7536 40.708 43.6103 40.982C43.4992 41.1945 43.506 41.6224 43.6242 41.847C43.7223 42.0335 43.9571 42.2603 44.1338 42.3391C44.2064 42.3715 44.6594 42.3959 45.4468 42.4098L46.649 42.431L44.5314 44.363C43.3667 45.4256 42.3501 46.3476 42.2721 46.4118L42.1304 46.5286L40.8414 45.3682C40.0982 44.6992 39.4787 44.1743 39.3784 44.1288C39.1544 44.027 38.795 44.026 38.5746 44.1264C38.4733 44.1726 37.5708 44.9723 36.3018 46.1402C34.4174 47.8747 34.1872 48.1005 34.1028 48.2965C33.9127 48.7385 34.0702 49.2515 34.481 49.5279C34.6361 49.6322 34.7196 49.6566 34.9626 49.6687C35.2217 49.6815 35.2824 49.669 35.4742 49.5641C35.6055 49.4922 36.3454 48.8421 37.3401 47.9247L38.9884 46.4044L39.3485 46.7317C40.9596 48.1959 41.5786 48.7327 41.7375 48.8035C41.9716 48.9078 42.3169 48.9079 42.5517 48.8038C42.6728 48.7502 43.6417 47.8952 45.4836 46.2166L48.2346 43.7096L48.2556 44.8973C48.2788 46.2113 48.2882 46.2618 48.5595 46.5331C48.7645 46.7381 48.9699 46.8242 49.2574 46.8255C49.6773 46.8276 49.9989 46.6269 50.1722 46.2547L50.2708 46.043L50.2703 43.607C50.2697 40.8888 50.2806 40.9962 49.9734 40.6949C49.6706 40.3979 49.8579 40.4158 46.9746 40.4075C45.5424 40.4034 44.3232 40.4147 44.2653 40.4326ZM24.5138 46.4451C24.2722 46.5031 24.1285 46.5909 23.9678 46.7787C23.5729 47.24 23.6869 47.9455 24.2084 48.2679L24.414 48.395H27.3396H30.2652L30.4708 48.2679C31.0019 47.9396 31.1099 47.2331 30.7002 46.7677C30.3805 46.4044 30.5426 46.4219 27.4236 46.414C25.8924 46.4101 24.6022 46.4239 24.5138 46.4451Z" fill="white"/>
</svg>
