<svg width="73" height="75" viewBox="0 0 73 75" fill="none" xmlns="http://www.w3.org/2000/svg">
<rect width="73" height="75" rx="5" fill="#6e99e4"/>
<g clip-path="url(#clip0_2132_15)">
<path fill-rule="evenodd" clip-rule="evenodd" d="M35.9098 19.05C35.7098 19.12 35.4598 19.35 35.3498 19.55L35.2598 19.73V30.52L35.2398 41.31L32.4598 38.53C29.3698 35.45 29.5298 35.58 29.0198 35.63C28.7098 35.66 28.4898 35.8 28.2898 36.07C28.1798 36.22 28.1598 36.3 28.1498 36.56C28.1398 36.81 28.1498 36.9 28.2298 37.05C28.3598 37.31 35.5598 44.52 35.8198 44.65C36.0698 44.77 36.4398 44.78 36.6798 44.65C36.8098 44.59 37.9498 43.48 40.5598 40.86C44.5798 36.83 44.3798 37.06 44.3698 36.58C44.3598 35.88 43.6198 35.41 42.9698 35.7C42.8298 35.77 42.1398 36.43 40.0198 38.54L37.2598 41.3V30.57C37.2598 22.87 37.2498 19.79 37.2098 19.67C37.1498 19.44 36.7898 19.09 36.5598 19.02C36.3498 18.96 36.0998 18.97 35.9098 19.03M25.2198 24.96C22.6998 25.19 20.6998 26.97 20.0898 29.54C20.0198 29.84 20.0098 30.45 19.9998 40.54C19.9898 48.36 19.9998 51.33 20.0298 51.61C20.1198 52.32 20.3998 53.16 20.7498 53.75C21.6598 55.29 23.2098 56.33 24.9398 56.57C25.5998 56.66 46.8598 56.66 47.5198 56.57C48.6998 56.41 49.8298 55.86 50.6898 55.04C51.6398 54.12 52.2098 53.05 52.4198 51.74C52.5098 51.18 52.5098 30.38 52.4198 29.83C52.0798 27.78 50.7698 26.11 48.8898 25.35C47.9498 24.97 46.2798 24.9 43.7498 24.92C41.7098 24.93 41.7598 24.92 41.4598 25.24C41.2598 25.45 41.1798 25.69 41.1998 26.02C41.2198 26.34 41.3598 26.57 41.6498 26.78L41.8298 26.91L44.0598 26.94C46.4598 26.97 47.4498 26.97 48.0998 27.21C49.2798 27.65 50.2198 28.81 50.4198 30.05C50.4498 30.23 50.4598 33.8 50.4598 40.81C50.4598 52.46 50.4798 51.57 50.1798 52.31C49.7398 53.37 48.8998 54.12 47.7398 54.48L47.3698 54.6H25.0998L24.7298 54.48C23.9698 54.24 23.2998 53.81 22.8698 53.27C22.5798 52.9 22.4598 52.71 22.2898 52.3C21.9898 51.58 22.0098 52.45 22.0098 40.81C22.0098 33.8 22.0198 30.23 22.0498 30.05C22.1798 29.28 22.5798 28.55 23.1998 27.96C23.7598 27.43 24.4998 27.08 25.2898 26.98C25.4898 26.95 27.4598 26.94 28.5598 26.94C29.7098 26.94 30.5298 26.92 30.6198 26.9C30.8298 26.84 31.1398 26.56 31.2198 26.34C31.3098 26.1 31.3098 25.73 31.2198 25.53C31.1798 25.44 31.0798 25.31 30.9998 25.23C30.7098 24.94 30.7698 24.95 28.5798 24.94C27.4898 24.94 25.4298 24.95 25.2198 24.97" fill="#1F3C6E"/>
</g>
<defs>
<clipPath id="clip0_2132_15">
<rect width="32.49" height="37.63" fill="white" transform="translate(20 19)"/>
</clipPath>
</defs>
</svg>
