<svg width="73" height="75" viewBox="0 0 73 75" fill="none" xmlns="http://www.w3.org/2000/svg">
<rect width="73" height="75" rx="5" fill="#3E77DB"/>
<g clip-path="url(#clip0_2360_4)">
<path fill-rule="evenodd" clip-rule="evenodd" d="M19.5201 20.02C19.0301 20.09 18.4901 20.47 18.2301 20.93C17.9901 21.37 18.0001 20.47 18.0001 34.8C18.0001 46.41 18.0001 48 18.0601 48.21C18.2401 48.9 18.8501 49.44 19.5601 49.54C19.7101 49.56 20.0301 49.58 20.2901 49.58C21.2501 49.58 23.0801 49.69 24.4601 49.83C27.7001 50.16 30.5801 50.84 32.9001 51.83C34.0601 52.32 35.4201 53.12 35.9801 53.64C36.3401 53.98 36.4801 54.04 36.8101 54.04C37.1401 54.04 37.2801 53.97 37.6501 53.63C38.2301 53.1 39.5601 52.32 40.7201 51.82C43.0401 50.83 45.9201 50.15 49.1601 49.82C50.5401 49.68 52.3701 49.57 53.3301 49.57C53.5901 49.57 53.9201 49.55 54.0601 49.53C54.7701 49.43 55.3801 48.89 55.5601 48.2C55.6201 47.99 55.6201 46.4 55.6201 34.79C55.6201 20.46 55.6301 21.36 55.3901 20.92C55.1201 20.45 54.5801 20.07 54.0601 20.01C53.7801 19.98 51.9901 20.02 50.8801 20.09C45.1701 20.45 40.4201 21.74 37.4201 23.74C37.1201 23.94 36.8501 24.1 36.8101 24.1C36.7701 24.1 36.5001 23.94 36.2001 23.74C33.0701 21.66 27.9301 20.33 21.9301 20.06C20.4501 20 19.7601 19.98 19.5201 20.02ZM20.0201 34.77V47.55L21.3001 47.6C26.5201 47.81 30.6601 48.63 34.0301 50.13C34.4801 50.33 35.4901 50.85 35.7101 50.99L35.8201 51.06V25.91L35.4901 25.67C34.0701 24.65 31.8701 23.72 29.4201 23.11C27.0801 22.52 24.2301 22.15 21.4801 22.06C21.0901 22.05 20.6001 22.03 20.4001 22.01L20.0301 21.99V34.77M52.4701 22.04C48.2401 22.19 44.6801 22.8 41.7301 23.87C40.3701 24.36 39.0501 25.03 38.1501 25.67L37.8201 25.91V51.06L37.9401 50.98C38.1701 50.83 39.1501 50.32 39.6101 50.12C43.0101 48.61 47.0901 47.81 52.3401 47.59L53.6101 47.54V21.99H53.4701C53.3901 22 52.9401 22.02 52.4601 22.03M23.5401 33.08C23.3401 33.12 23.1601 33.22 23.0101 33.38C22.6301 33.78 22.6601 34.45 23.0901 34.82C23.3101 35.01 23.4501 35.04 24.2601 35.12C26.7101 35.34 29.0601 35.82 31.3901 36.57C32.1001 36.8 32.3701 36.78 32.7101 36.49C32.9601 36.28 33.0601 36.05 33.0601 35.72C33.0601 35.32 32.8701 35 32.5201 34.83C32.2601 34.7 30.8101 34.27 29.6601 33.98C27.9701 33.56 25.9001 33.21 24.3301 33.09C24.1501 33.08 23.9301 33.06 23.8501 33.05C23.7701 33.05 23.6401 33.05 23.5601 33.07M49.4201 33.08C46.7101 33.33 44.3601 33.8 41.8001 34.6C41.1801 34.79 41.0501 34.85 40.8801 35.01C40.6801 35.2 40.5801 35.42 40.5801 35.73C40.5801 36.06 40.6801 36.28 40.9301 36.5C41.2701 36.79 41.5401 36.81 42.2501 36.58C44.5701 35.83 46.9301 35.35 49.3801 35.13C50.2401 35.05 50.3601 35.02 50.6001 34.78C50.9901 34.39 51.0001 33.79 50.6301 33.4C50.3501 33.11 50.0801 33.04 49.4201 33.1M23.3101 39.79C23.1201 39.88 22.8901 40.13 22.8001 40.33C22.7101 40.54 22.7301 40.92 22.8301 41.13C22.9301 41.33 23.1501 41.55 23.3501 41.63C23.4201 41.66 23.7201 41.71 24.0001 41.73C26.6201 41.97 28.8101 42.4 31.2901 43.18C31.9501 43.39 32.1801 43.41 32.4501 43.28C32.8401 43.1 33.0401 42.78 33.0501 42.36C33.0501 42.14 33.0301 42.05 32.9401 41.89C32.7801 41.61 32.6101 41.5 32.1101 41.33C29.7201 40.52 26.1801 39.82 24.0301 39.73C23.5501 39.71 23.4601 39.72 23.3201 39.79M49.2701 39.74C49.2001 39.74 48.8601 39.79 48.5101 39.82C46.2801 40.05 43.5501 40.64 41.5201 41.33C41.0201 41.5 40.8501 41.61 40.6901 41.89C40.5901 42.05 40.5701 42.14 40.5801 42.36C40.5801 42.79 40.7801 43.1 41.1801 43.28C41.4501 43.41 41.6801 43.39 42.3401 43.18C44.8201 42.4 47.0501 41.96 49.6301 41.73C50.2401 41.68 50.4401 41.6 50.6601 41.34C50.8501 41.12 50.9101 40.94 50.8801 40.61C50.8601 40.29 50.7201 40.06 50.4301 39.86C50.2601 39.74 50.2301 39.73 49.8201 39.73C49.5901 39.73 49.3401 39.73 49.2701 39.74Z" fill="white"/>
</g>
<defs>
<clipPath id="clip0_2360_4">
<rect width="37.63" height="34.06" fill="white" transform="translate(18 20)"/>
</clipPath>
</defs>
</svg>
