<svg width="73" height="75" viewBox="0 0 73 75" fill="none" xmlns="http://www.w3.org/2000/svg">
<rect width="73" height="75" rx="5" fill="#6e99e4"/>
<g clip-path="url(#clip0_2132_14)">
<path fill-rule="evenodd" clip-rule="evenodd" d="M21.0203 20.01C20.3403 20.11 19.9403 20.26 19.4803 20.58C18.7203 21.11 18.1903 21.93 18.0403 22.8C18.0103 22.98 18.0003 27.59 18.0003 37.06C18.0003 52.47 17.9803 51.35 18.2603 52.17C18.8103 53.82 20.3203 55.02 22.0903 55.21C22.6603 55.27 50.9903 55.27 51.5603 55.21C53.4803 55 54.9803 53.7 55.5103 51.78L55.6203 51.37V39.59C55.6203 28.53 55.6203 27.8 55.5503 27.68C55.3003 27.23 54.8203 27.03 54.3203 27.17C54.0803 27.24 53.7403 27.59 53.6803 27.85C53.6403 28 53.6303 30.91 53.6303 39.53C53.6303 50.88 53.6303 51.02 53.5503 51.34C53.3603 52.08 52.7903 52.74 52.1003 53.04C51.8503 53.15 51.3503 53.25 51.0603 53.25C50.0003 53.25 49.0003 52.51 48.6503 51.47L48.5303 51.13L48.5103 36.91C48.4903 24.09 48.4803 22.67 48.4203 22.48C48.1703 21.69 47.7503 21.1 47.1003 20.62C46.7703 20.38 46.5303 20.26 46.0803 20.12L45.7103 20H33.4303C26.6603 20 21.0803 20 21.0203 20.01ZM21.0503 22.05C20.6403 22.15 20.2503 22.49 20.1003 22.9L20.0103 23.14V37.08C20.0103 50.89 20.0103 51.02 20.0903 51.34C20.2803 52.08 20.8503 52.74 21.5403 53.04C22.0503 53.26 21.4303 53.25 34.8203 53.25H47.2703L47.1603 53.07C46.9603 52.74 46.7803 52.31 46.6203 51.8L46.5303 51.51L46.5103 37.31L46.4903 23.11L46.4003 22.88C46.2803 22.58 45.9903 22.28 45.6803 22.13L45.4403 22.02H33.3203C26.3503 22.01 21.1403 22.02 21.0403 22.04M24.5303 26.03C24.3303 26.12 24.1503 26.29 24.0303 26.52L23.9403 26.69V31.67C23.9403 35.7 23.9503 36.68 24.0003 36.8C24.0703 37 24.3803 37.31 24.5803 37.38C24.7103 37.43 26.2803 37.44 33.2403 37.44C41.3403 37.44 41.7503 37.44 41.9403 37.36C42.1703 37.27 42.4003 37.04 42.4903 36.78C42.5503 36.61 42.5603 36.18 42.5503 31.61V26.63L42.4103 26.42C42.3403 26.31 42.2003 26.16 42.0903 26.09L41.9003 25.96H33.2903C25.0103 25.94 24.6703 25.94 24.5103 26.02M25.9403 31.68V35.44H40.5603V27.92H25.9403V31.68ZM24.6203 41.42C24.2203 41.56 23.9503 41.94 23.9503 42.36C23.9503 42.79 24.1503 43.09 24.5303 43.28L24.7403 43.38H33.2203C39.2803 43.38 41.7503 43.37 41.8703 43.33C42.1003 43.27 42.4503 42.91 42.5203 42.68C42.6603 42.19 42.4503 41.71 42.0103 41.47L41.8403 41.38H33.3103C26.1303 41.36 24.7603 41.38 24.6203 41.42ZM24.6403 46.17C24.2203 46.3 23.9503 46.68 23.9503 47.13C23.9503 47.3 23.9803 47.44 24.0403 47.56C24.1503 47.77 24.4303 48.02 24.6303 48.08C24.7203 48.11 26.5803 48.12 29.7103 48.12H34.6403L34.8503 48.02C35.2203 47.85 35.4203 47.54 35.4103 47.12C35.4103 46.72 35.1903 46.38 34.8303 46.2C34.6903 46.13 34.4003 46.12 29.7403 46.12C25.6003 46.12 24.7703 46.12 24.6203 46.17" fill="#1F3C6E"/>
</g>
<defs>
<clipPath id="clip0_2132_14">
<rect width="37.61" height="35.27" fill="white" transform="translate(18 20)"/>
</clipPath>
</defs>
</svg>
