<svg width="73" height="75" viewBox="0 0 73 75" fill="none" xmlns="http://www.w3.org/2000/svg">
<rect width="73" height="75" rx="5" fill="#3E77DB"/>
<g clip-path="url(#clip0_2360_2)">
<path fill-rule="evenodd" clip-rule="evenodd" d="M46.6194 16.1866C46.5355 16.2358 46.0072 16.747 45.4456 17.3225C43.757 19.0528 42.5516 20.1251 41.0989 21.1894C38.4509 23.1294 35.7523 24.5629 32.731 25.6343C31.3138 26.1369 30.8016 26.2739 27.7952 26.9546C24.7813 27.6369 24.671 27.6673 24.0033 28.0011C21.9004 29.0522 20.501 31.237 20.4135 33.6052C20.3762 34.6167 20.6378 35.8338 21.0843 36.7259C22.1601 38.8756 24.3211 40.2728 26.6948 40.3533C27.2016 40.3705 27.5953 40.3422 28.2264 40.2429L28.7118 40.1666L28.7923 40.4137C28.8366 40.5497 28.8922 40.7796 28.9156 40.9247L28.9584 41.1885L27.9033 41.977L26.8483 42.7656L25.6623 43.0442C24.3247 43.3585 24.2968 43.3712 24.0669 43.7697C23.7685 44.2867 24.0357 44.9749 24.6152 45.1814L24.8429 45.2625L26.2628 44.9579L27.6827 44.6533L28.6757 43.9102C29.2218 43.5015 29.6794 43.1741 29.6925 43.1826C29.7057 43.1911 29.829 43.4225 29.9666 43.6968C30.1816 44.1254 30.5394 44.7917 30.6282 44.9292C30.6464 44.9572 30.5663 44.997 30.3943 45.0454C30.1874 45.1038 30.1015 45.1525 29.9831 45.2785C29.4714 45.8226 29.6788 46.6914 30.3756 46.9224L30.5903 46.9936L35.0914 46.0495L39.5925 45.1055L39.7757 45.1588C40.1347 45.2635 40.3943 45.5185 40.4633 45.8341C40.5454 46.2103 41.1335 52.5886 41.1047 52.7896C41.0892 52.8978 41.0118 53.0831 40.9328 53.2016C40.6858 53.5718 40.706 53.5651 38.1349 54.1163C36.891 54.3829 35.703 54.6181 35.4949 54.639C34.397 54.7495 33.8649 54.6823 31.8973 54.1853L30.2925 53.78L28.8927 54.0812C27.6167 54.3558 27.4799 54.3922 27.3452 54.4938C27.0293 54.7319 26.8919 55.1205 26.9808 55.5255C27.063 55.8996 27.3245 56.1631 27.7272 56.2774C27.8999 56.3266 27.9811 56.3156 29.0983 56.0904L30.2857 55.8512L31.679 56.2043C33.1261 56.571 33.7714 56.6778 34.625 56.6913C35.518 56.7055 35.7492 56.6687 38.5505 56.0678C41.4692 55.4418 41.3911 55.4653 41.9401 55.0459C42.5771 54.5592 43.0411 53.7354 43.1176 52.9556C43.1689 52.4332 42.5495 45.9027 42.3894 45.2787C42.1118 44.1961 41.1955 43.3615 40.0675 43.1639C39.6545 43.0916 39.3806 43.1057 38.7519 43.2318L38.1855 43.3454L37.8641 42.9049C37.1722 41.9566 36.6712 41.0627 36.3566 40.2154C36.1847 39.7521 35.9296 38.9426 35.9466 38.9137C35.9522 38.9044 36.2689 38.8816 36.6505 38.8634C40.9995 38.6557 45.2893 39.3189 49.3713 40.8304C49.7563 40.9729 50.4726 41.2485 50.9632 41.4428C52.0766 41.8836 52.1196 41.8954 52.4003 41.8344C52.7954 41.7483 53.0999 41.4531 53.1862 41.0727C53.2258 40.898 53.1413 40.4917 50.6242 28.7571C48.122 17.0924 48.0168 16.6164 47.9108 16.474C47.7823 16.3013 47.5333 16.1348 47.3325 16.0874C47.1223 16.0378 46.7955 16.0832 46.6194 16.1866ZM46.0912 19.5315C42.3035 23.3609 37.317 26.3668 32.1126 27.9577C31.7097 28.0808 30.375 28.4605 30.2401 28.4903C30.2232 28.494 30.6371 30.4911 31.1599 32.9281L32.1104 37.3592L32.5985 37.2819C35.8121 36.7727 38.5593 36.6821 41.6305 36.9841C44.4426 37.2605 47.3041 37.9231 50.0047 38.923C50.4262 39.079 50.7786 39.2051 50.7876 39.2032C50.7967 39.2012 49.8369 34.6906 48.6548 29.1796C47.4726 23.6685 46.4916 19.163 46.4748 19.1671C46.458 19.1713 46.2854 19.3352 46.0912 19.5315ZM25.4353 29.5702C24.0018 30.0735 22.9006 31.3084 22.545 32.8112C22.39 33.4665 22.3814 33.8856 22.5086 34.5948C22.6354 35.3029 22.7847 35.7098 23.1032 36.2164C23.5031 36.8525 23.9427 37.2836 24.6047 37.6891C25.0611 37.9686 25.3883 38.1038 25.9049 38.2259C26.7607 38.4284 27.3385 38.3912 29.0386 38.0243L30.1402 37.7866L29.1892 33.3532L28.2382 28.9199L26.9766 29.1959C26.2827 29.3478 25.5891 29.5162 25.4353 29.5702ZM30.7896 40.1251C31.2563 41.7672 31.5956 42.579 32.3683 43.9019L32.7271 44.5163L34.3845 44.172C35.7056 43.8975 36.0354 43.8181 36.0095 43.7805C35.0098 42.3232 34.5578 41.3512 33.9944 39.4475C33.9242 39.2103 33.8851 39.1346 33.8281 39.125C33.7872 39.118 33.0611 39.25 32.2147 39.4183L30.6757 39.7242L30.7896 40.1251Z" fill="white"/>
</g>
<defs>
<clipPath id="clip0_2360_2">
<rect width="40" height="40" fill="white" transform="translate(13 22) rotate(-12.1069)"/>
</clipPath>
</defs>
</svg>
