<svg width="69" height="69" viewBox="0 0 69 69" fill="none" xmlns="http://www.w3.org/2000/svg">
<g clip-path="url(#clip0_2132_10)">
<path fill-rule="evenodd" clip-rule="evenodd" d="M41.7316 16.0355C40.9942 16.1155 40.0614 16.4264 39.4306 16.7995C38.6666 17.2437 38.871 17.0483 28.0682 27.8777C22.3736 33.5812 17.6918 38.2985 17.6563 38.3607C17.5763 38.4939 15 48.3461 15 48.5327C15 49.0035 15.4175 49.4211 15.8884 49.4211C16.0572 49.4211 25.8294 46.8625 25.9982 46.7737C26.2114 46.6671 27.5529 45.2901 27.6417 45.0946C27.9083 44.5083 27.4907 43.8598 26.8422 43.8509C26.7178 43.8509 26.5579 43.8776 26.478 43.9131C26.398 43.9486 26.167 44.1441 25.9538 44.3484L25.5718 44.7215L22.6224 41.7721L19.6729 38.8226L21.8583 36.6283C23.0577 35.4201 26.4069 32.062 29.303 29.1659L34.5623 23.8977L36.7477 26.1009C37.947 27.3091 38.9864 28.3308 39.0575 28.3574C39.4928 28.5706 40.0436 28.3841 40.2657 27.9488C40.3723 27.7533 40.3723 27.3713 40.2746 27.1848C40.2391 27.1137 39.2174 26.0654 38.0092 24.8572L35.8149 22.654L37.0053 21.4458L38.1958 20.2376L41.2163 23.2581L44.2368 26.2786L43.5705 26.9538C42.8243 27.7178 42.7621 27.8155 42.7887 28.1975C42.8332 28.8016 43.4461 29.1836 44.0058 28.9527C44.2812 28.8372 46.8309 26.2697 47.2218 25.71C49.0075 23.1959 48.7676 19.8822 46.6443 17.7767C45.3295 16.4619 43.5528 15.8401 41.7138 16.0533M41.696 17.8478C40.9409 17.99 40.1502 18.372 39.6616 18.825L39.4751 18.9938L42.4956 22.0055L45.5161 25.0171L45.676 24.8128C47.0885 22.9827 46.9464 20.4597 45.3384 18.9405C44.8054 18.4342 44.1569 18.0788 43.4461 17.8922C42.9842 17.7679 42.1669 17.7412 41.7049 17.83M32.2436 30.8094C31.142 31.0315 30.227 31.8666 29.8805 32.9682L29.7916 33.2436V46.978L29.9071 47.2978C30.2092 48.1418 30.7422 48.7459 31.5062 49.119C32.137 49.4211 31.4352 49.3944 38.9509 49.4122C43.5705 49.4122 45.7293 49.4122 45.907 49.3856C46.973 49.2256 47.9058 48.4528 48.2612 47.4489C48.3145 47.2978 48.3767 47.0491 48.3945 46.8892C48.4211 46.7026 48.43 44.2684 48.4211 39.9242C48.4122 32.4351 48.4389 33.1281 48.1279 32.4973C47.7548 31.7333 47.1507 31.2003 46.3068 30.8982L45.9869 30.7827H39.1997C35.4329 30.7827 32.3324 30.7827 32.2436 30.8005M32.4213 32.6128C32.1103 32.7194 31.8349 32.9682 31.675 33.2791L31.5862 33.439V40.0308L31.5684 46.6227L31.6484 46.8359C31.755 47.1291 32.0748 47.44 32.368 47.5555L32.5812 47.6354H39.173L45.7648 47.6177L45.9781 47.5111C46.2446 47.3778 46.4667 47.1468 46.5644 46.8714L46.6443 46.6582V33.5634L46.5644 33.3502C46.4578 33.0659 46.1291 32.7372 45.8448 32.6306L45.6316 32.5506H39.0931C33.8427 32.5506 32.5279 32.5595 32.4213 32.6039M34.5356 35.0559C33.9848 35.3046 33.816 36.0153 34.2069 36.4506C34.278 36.5306 34.4113 36.6372 34.4912 36.6816L34.6422 36.7616H43.5616L43.7127 36.6816C44.1302 36.4595 44.3079 36.0153 44.1569 35.58C44.0858 35.3668 43.8015 35.0914 43.5972 35.0292C43.4995 35.0026 42.0869 34.9848 39.0664 34.9937C34.8999 34.9937 34.6778 34.9937 34.5356 35.0648M34.58 39.2579C34.2336 39.3823 33.9848 39.7199 33.9848 40.0753C33.9848 40.3595 34.0559 40.5195 34.2602 40.7238C34.4201 40.8748 34.4912 40.9281 34.66 40.9548C34.811 40.9903 36.0192 40.9992 39.2085 40.9903H43.5528L43.7038 40.9015C44.1036 40.6882 44.2901 40.2529 44.1657 39.8265C44.1036 39.6133 43.7926 39.3024 43.5972 39.2491C43.3662 39.1869 34.7577 39.1958 34.58 39.2579ZM18.8645 40.6438C18.7223 41.1147 17.1588 47.2357 17.1677 47.2445C17.1854 47.2623 23.795 45.5566 23.8217 45.53C23.8217 45.53 22.7112 44.4106 21.352 43.0514C19.3886 41.088 18.8734 40.5905 18.8556 40.6438M34.5623 43.4778C34.3668 43.5489 34.0826 43.842 34.0292 44.0375C33.9315 44.375 34.0026 44.6593 34.2336 44.917C34.5179 45.219 34.4823 45.219 36.5612 45.2013H38.3646L38.5423 45.0858C38.64 45.0325 38.7732 44.8992 38.8443 44.8104C38.9598 44.6416 38.9687 44.6149 38.9687 44.3129C38.9687 44.0108 38.9687 43.9842 38.8443 43.8154C38.7732 43.7176 38.64 43.5933 38.5423 43.54L38.3646 43.4334H36.5345C34.9976 43.4245 34.6778 43.4334 34.5534 43.4778" fill="currentColor"/>
</g>
<defs>
<clipPath id="clip0_2132_10">
<rect width="33.43" height="33.43" fill="white" transform="translate(15 16)"/>
</clipPath>
</defs>
</svg>
