<svg width="69" height="69" viewBox="0 0 69 69" fill="none" xmlns="http://www.w3.org/2000/svg">
<g clip-path="url(#clip0_2132_9)">
<path fill-rule="evenodd" clip-rule="evenodd" d="M33.7882 16.0293C33.2808 16.1171 32.7343 16.3708 32.305 16.7026C32.1781 16.8001 28.4995 20.469 24.1183 24.8405C17.8635 31.105 16.1462 32.8419 16.0779 32.9882C15.8632 33.4761 16.1072 34.0811 16.595 34.286C16.7804 34.3641 17.2 34.3543 17.3757 34.2762C17.4732 34.2274 20.2932 31.4465 25.5819 26.1676C33.3393 18.4199 33.6516 18.1174 33.876 18.0394C34.0126 17.9906 34.2078 17.9515 34.3541 17.9515C34.5005 17.9515 34.6956 17.9906 34.8322 18.0394C35.0567 18.1272 35.3689 18.4199 43.1263 26.1676C48.415 31.4465 51.235 34.2372 51.3326 34.2762C51.518 34.3543 51.9376 34.3641 52.1132 34.286C52.6108 34.0811 52.845 33.4761 52.6304 32.9882C52.5718 32.8516 52.0156 32.2661 50.3178 30.5683L48.0833 28.3338V24.3331L48.0637 20.3324L47.9466 20.1373C47.8881 20.0299 47.7417 19.8836 47.6442 19.8055L47.449 19.6689H40.9699L40.7942 19.786C40.5698 19.9324 40.3844 20.1958 40.3551 20.4007L40.3259 20.5569L38.3743 18.6151C37.1936 17.4344 36.3252 16.6147 36.1886 16.5172C35.8861 16.322 35.5055 16.1464 35.1933 16.0683C34.9006 15.9902 34.0907 15.9512 33.7882 16.0098M42.3067 22.0791V22.5572L44.2094 24.46L46.1122 26.3627V21.5912H42.2969V22.0693M21.3666 34.7446C21.0543 34.8422 20.8494 35.0276 20.7128 35.3203C20.6347 35.5057 20.625 35.5545 20.625 41.4774V47.4492L19.2394 47.4589C17.9123 47.4687 17.8538 47.4785 17.6879 47.5565C17.4928 47.6639 17.3366 47.82 17.2391 48.0249C17.1317 48.2298 17.1415 48.6494 17.2488 48.8738C17.3561 49.0885 17.6196 49.3129 17.8245 49.3715C18.0489 49.4398 50.6398 49.4398 50.8642 49.3715C51.0691 49.3129 51.3326 49.0885 51.4399 48.8738C51.6253 48.5225 51.5375 48.0054 51.2448 47.7322C50.9618 47.4687 50.9715 47.4687 49.4591 47.4589H48.0735V41.4774C48.0735 35.5545 48.0735 35.5057 47.9857 35.3203C47.81 34.93 47.5075 34.7251 47.088 34.7251C46.6684 34.7251 46.3659 34.9202 46.1903 35.3203C46.1122 35.5057 46.1024 35.5545 46.1024 41.4774V47.4492H22.596V41.4774C22.596 35.5545 22.596 35.5057 22.5082 35.3203C22.4009 35.0959 22.2545 34.93 22.0496 34.8227C21.874 34.7349 21.5227 34.6958 21.3666 34.7446Z" fill="currentColor"/>
<path fill-rule="evenodd" clip-rule="evenodd" d="M29.1729 29.534C28.7045 29.6316 28.08 29.9438 27.7093 30.2463C27.436 30.4707 27.0555 30.9391 26.9091 31.2123C26.8115 31.4075 26.8115 31.8368 26.9091 32.032C27.2604 32.7248 28.1874 32.7931 28.6167 32.1588C28.8119 31.8661 29.0265 31.6709 29.2802 31.5636C29.4949 31.466 29.5827 31.4465 29.8852 31.4465C30.1975 31.4465 30.2658 31.4563 30.5097 31.5831C30.7829 31.7197 30.9488 31.8758 31.183 32.2174C31.4465 32.5979 32.0319 32.7248 32.4418 32.4808C32.9784 32.1686 33.0858 31.5636 32.715 30.9976C32.2759 30.3341 31.5245 29.7779 30.7537 29.5828C30.2853 29.4657 29.6315 29.4462 29.1729 29.5437" fill="currentColor"/>
<path fill-rule="evenodd" clip-rule="evenodd" d="M39.2141 29.5145C38.4628 29.6608 37.8871 29.9828 37.3699 30.5293C37.2138 30.6951 37.0186 30.9391 36.9406 31.0757C36.5795 31.6904 36.8527 32.4125 37.5163 32.5784C37.9456 32.676 38.2774 32.5394 38.5994 32.1198C38.9897 31.6026 39.2629 31.4563 39.8288 31.4465C40.1508 31.4465 40.2289 31.466 40.4338 31.5636C40.5899 31.6416 40.7363 31.7587 40.8632 31.9051C41.2925 32.4028 41.4291 32.5198 41.6535 32.5686C42.2878 32.7248 42.883 32.2466 42.883 31.5929C42.883 31.4172 42.805 31.2221 42.6196 30.9488C42.1609 30.2658 41.4681 29.7779 40.629 29.5535C40.307 29.4657 39.5654 29.4462 39.2141 29.5145Z" fill="currentColor"/>
<path fill-rule="evenodd" clip-rule="evenodd" d="M29.6607 36.8425C29.2996 36.9986 29.0654 37.3597 29.0654 37.7597C29.0654 37.9549 29.0947 38.0525 29.2899 38.4428C29.6607 39.1746 30.1876 39.8381 30.8121 40.3553C31.661 41.0579 32.6563 41.5262 33.7589 41.7409C34.2663 41.8385 35.408 41.8385 35.9544 41.7409C37.7986 41.3994 39.3891 40.2675 40.3356 38.6184C40.6869 38.0037 40.7357 37.7012 40.5405 37.3206C40.3063 36.862 39.7501 36.6669 39.272 36.8815C39.0183 36.9986 38.9207 37.106 38.7744 37.3889C38.1889 38.5599 37.1351 39.4186 35.9154 39.7308C34.4029 40.1114 32.7831 39.643 31.7195 38.5208C31.417 38.1988 31.2024 37.8866 30.9779 37.4572C30.8023 37.1255 30.5681 36.9011 30.3437 36.8328C30.1388 36.7742 29.807 36.784 29.6607 36.8523" fill="currentColor"/>
</g>
<defs>
<clipPath id="clip0_2132_9">
<rect width="36.7086" height="33.43" fill="white" transform="translate(16 16)"/>
</clipPath>
</defs>
</svg>
