<svg width="69" height="69" viewBox="0 0 69 69" fill="none" xmlns="http://www.w3.org/2000/svg">
<g clip-path="url(#clip0_2132_8)">
<path fill-rule="evenodd" clip-rule="evenodd" d="M32.7836 18.0372C32.7194 18.0555 32.6092 18.1198 32.5358 18.1748C32.4532 18.2299 29.1956 20.9828 25.2956 24.2864C18.8261 29.7647 18.1929 30.3153 18.1012 30.4989C17.9911 30.7099 17.9727 30.9485 18.0369 31.1871C18.092 31.3706 18.3122 31.6276 18.5141 31.7285C18.7068 31.8294 19.0647 31.8386 19.2758 31.756C19.3492 31.7285 22.4876 29.0949 26.2499 25.9106L33.0864 20.1294L33.5361 20.5056C42.8135 28.3607 46.7319 31.6643 46.842 31.7193C47.2641 31.9396 47.8055 31.7836 48.0533 31.3614C48.246 31.0219 48.2185 30.6182 47.9799 30.3429C47.7688 30.1043 33.7288 18.2299 33.5085 18.1106C33.3066 18.0005 33.0405 17.9729 32.8111 18.0463M40.3542 19.1567C39.9871 19.3219 39.8036 19.6063 39.8036 20.0009C39.8036 20.3955 39.9871 20.68 40.3542 20.8452C40.5194 20.9186 40.602 20.9278 42.3271 20.9278H44.1257L44.1349 22.7539C44.1441 24.4148 44.1533 24.5892 44.2175 24.7268C44.3093 24.9379 44.4653 25.0847 44.6855 25.1948C45.1352 25.4059 45.6582 25.2224 45.8785 24.7727L45.9794 24.58V22.1849C45.9794 19.5054 45.9886 19.6339 45.6949 19.3402C45.4196 19.0741 45.4655 19.0833 42.8594 19.0833C40.5928 19.0833 40.5194 19.0833 40.3542 19.1659M38.9685 31.0953C37.5829 31.1963 36.0871 31.7102 34.9217 32.481C32.9029 33.8116 31.5172 35.9864 31.1685 38.3631C30.7831 40.9876 31.6273 43.6304 33.4626 45.5391C34.1876 46.2916 34.9401 46.833 35.8669 47.2919C36.7111 47.7048 37.4728 47.9434 38.4271 48.0902C39.0328 48.182 40.2074 48.182 40.813 48.0902C42.2446 47.87 43.5752 47.3286 44.6947 46.5027L44.9883 46.2824L47.521 48.806C50.2556 51.5406 50.1364 51.4305 50.5585 51.4213C51.0356 51.4121 51.4211 51.0267 51.4302 50.5495C51.4302 50.1274 51.5404 50.2467 48.8149 47.5121L46.2914 44.9794L46.5116 44.6857C47.3375 43.5662 47.8881 42.2356 48.0992 40.8041C48.1909 40.1984 48.1909 39.0238 48.0992 38.4182C47.9523 37.4638 47.7138 36.693 47.3008 35.8579C46.842 34.9311 46.3006 34.1786 45.5481 33.4537C43.7954 31.7652 41.3911 30.9026 38.9777 31.0862M23.0748 32.1873C22.9923 32.2057 22.8821 32.2424 22.8179 32.2791C22.6527 32.3617 22.4417 32.6278 22.3958 32.8113C22.3316 33.0591 22.3591 44.5114 22.4233 44.7316C22.5793 45.1996 22.6619 45.3831 22.8638 45.6768C23.3043 46.3375 23.9099 46.778 24.6899 46.989C24.9927 47.0716 25.0386 47.0716 27.4796 47.0716C30.2968 47.0716 30.1866 47.0808 30.4803 46.7688C30.673 46.5577 30.7281 46.3834 30.7097 46.0714C30.6913 45.7777 30.5629 45.5667 30.2968 45.3831L30.1316 45.2638L27.6631 45.2455L25.1946 45.2271L24.956 45.117C24.6624 44.9794 24.4054 44.7133 24.2953 44.4196C24.2127 44.2086 24.2127 44.1627 24.2127 38.6109C24.2127 32.4718 24.2219 32.7838 23.9833 32.4902C23.7814 32.2516 23.396 32.1231 23.084 32.1965M39.0787 32.9398C38.574 33.004 38.2803 33.0499 37.9591 33.1325C35.5916 33.729 33.7196 35.6102 33.1231 37.9685C32.9763 38.565 32.9304 38.9137 32.9304 39.6295C32.9304 40.6114 33.0589 41.2721 33.4076 42.1438C33.7471 42.9697 34.1509 43.6029 34.7749 44.2544C35.6467 45.1629 36.6285 45.7502 37.8398 46.0897C38.4822 46.2641 38.8951 46.3191 39.6109 46.3191C40.6754 46.3191 41.5196 46.1264 42.5199 45.6676C43.8229 45.062 45.0342 43.8507 45.6399 42.5476C45.9427 41.8961 46.1538 41.217 46.2455 40.5838C46.3098 40.1342 46.3098 39.1431 46.2455 38.6935C46.1813 38.2163 45.961 37.4638 45.7592 36.9775C44.869 34.9036 42.942 33.3986 40.6937 33.0224C40.3634 32.9673 39.3264 32.9215 39.0787 32.9582" fill="currentColor"/>
</g>
<defs>
<clipPath id="clip0_2132_8">
<rect width="33.43" height="33.43" fill="white" transform="translate(18 18)"/>
</clipPath>
</defs>
</svg>
