<svg width="69" height="69" viewBox="0 0 69 69" fill="none" xmlns="http://www.w3.org/2000/svg">
<g clip-path="url(#clip0_2132_41)">
<path fill-rule="evenodd" clip-rule="evenodd" d="M23.7941 18.08C23.6875 18.1333 23.5542 18.231 23.492 18.3021C23.2787 18.542 23.2699 18.6042 23.2699 19.9727C23.2699 21.1812 23.2699 21.2257 23.3498 21.3767C23.4565 21.5722 23.6431 21.75 23.8208 21.8211C24.0074 21.901 24.354 21.8921 24.5406 21.8122C24.7272 21.7322 24.9582 21.4656 25.0116 21.2879C25.0382 21.2079 25.0471 20.6925 25.0382 19.8839V18.6042L24.9138 18.4176C24.6739 18.0355 24.194 17.8845 23.7941 18.08ZM18.7023 23.2962C18.2669 23.385 17.9559 23.8027 18.0003 24.247C18.027 24.4869 18.0892 24.6291 18.258 24.7979C18.5157 25.0556 18.5424 25.0556 19.9375 25.0556C21.3238 25.0556 21.3238 25.0556 21.5904 24.8246C21.9636 24.4958 21.9725 23.8915 21.617 23.5361C21.3682 23.2873 21.3415 23.2873 20.0264 23.2784C19.3688 23.2784 18.7734 23.2784 18.7023 23.2962ZM27.0909 23.3139C26.8599 23.3761 26.6733 23.5183 26.5489 23.7405C26.4156 23.9715 26.4067 24.327 26.5222 24.558C26.6288 24.7535 26.8155 24.9312 26.9932 25.0023C27.1976 25.0912 29.5702 25.0912 29.7746 25.0023C30.2455 24.8068 30.4588 24.2203 30.2278 23.7671C30.1123 23.5361 29.8812 23.3584 29.6324 23.3051C29.3569 23.2429 27.3131 23.2517 27.0909 23.3139ZM34.5287 23.2962C34.1111 23.3761 33.8445 23.7227 33.8445 24.1581C33.8445 24.4336 33.9156 24.6024 34.0933 24.7891C34.3599 25.0645 34.1733 25.0468 37.4256 25.0468C39.8427 25.0468 40.3847 25.0556 40.598 25.1001C41.2911 25.2423 41.8687 25.7488 42.1531 26.4419L42.242 26.664V32.0935L42.2597 37.523H41.9132C41.5222 37.5319 41.2467 37.5763 40.9535 37.7007C40.0826 38.0473 39.4339 38.8115 39.2562 39.709C39.1762 40.1267 39.2029 40.7398 39.3184 41.0864C39.505 41.6462 39.6472 41.8506 40.4203 42.6682L40.9979 43.2724H35.2485C32.085 43.2902 29.4902 43.2813 29.4813 43.2724C29.4724 43.2635 29.4902 43.1302 29.5258 42.9792C30.0056 40.9887 31.5074 39.4424 33.4712 38.9359C33.8267 38.8471 34.0666 38.8115 34.5909 38.776C35.1241 38.7404 35.2752 38.6871 35.4884 38.4383C35.6484 38.2606 35.7195 38.0651 35.7017 37.8074V37.6208L35.8172 37.5941C36.7947 37.4075 37.8966 36.6877 38.5186 35.8258C39.0785 35.0527 39.345 34.2707 39.3895 33.2932C39.4339 32.1646 39.1229 31.196 38.4031 30.2719C37.0791 28.5568 34.662 28.0414 32.707 29.0544C31.3208 29.7653 30.3788 31.1783 30.2633 32.7245C30.1211 34.5195 30.9742 36.1723 32.5293 37.0876L32.8048 37.2475L32.4049 37.3897C30.6277 38.0118 29.1792 39.3092 28.335 41.0242C27.9973 41.7084 27.7929 42.3571 27.6597 43.1836L27.633 43.3257H27.1887V38.8915L27.1709 34.4573L27.0909 34.3062C26.9132 33.9774 26.5578 33.7819 26.2023 33.8175C25.9624 33.8441 25.8113 33.9152 25.6425 34.0929C25.3759 34.3684 25.3937 33.7819 25.4025 41.3885C25.4085 45.9561 25.4381 48.3257 25.4914 48.4975C25.598 48.8619 25.6691 49.0307 25.7935 49.2973C26.3534 50.4258 27.4819 51.2256 28.726 51.3944C28.9748 51.43 30.5832 51.4389 34.9197 51.4211C40.3581 51.4122 40.7935 51.4033 41.0245 51.3411C42.0376 51.0656 42.864 50.4791 43.4061 49.6527C43.5038 49.5105 43.5838 49.3861 43.5838 49.3773C43.5838 49.3773 44.3302 49.8038 45.2366 50.337C46.143 50.8701 46.9517 51.3322 47.0405 51.3678C47.4582 51.5188 47.9203 51.3145 48.1424 50.8879C48.178 50.8168 48.2046 50.6746 48.2046 50.5414C48.2046 50.2659 48.098 50.0082 47.8936 49.8482C47.8225 49.7949 46.845 49.1995 45.7254 48.5419C44.6057 47.8844 43.6193 47.2801 43.5305 47.209C43.3261 47.0402 43.1661 46.8002 43.0684 46.5337C42.9973 46.3293 42.9973 46.2315 42.9973 44.6498C42.9973 43.0503 42.9973 42.9703 42.9262 42.8103C42.8462 42.6237 42.7485 42.5171 41.7888 41.5129C41.0157 40.7043 40.9623 40.6154 40.989 40.2067C40.9979 40.0645 41.0334 39.8868 41.069 39.8246C41.1489 39.6735 41.3444 39.4869 41.5222 39.3891C41.7354 39.2736 42.1264 39.2825 42.3575 39.398C42.4641 39.4513 42.944 39.8956 43.7348 40.6865C44.4013 41.353 45.0056 41.9217 45.0767 41.9573C45.2366 42.0372 45.6098 42.0461 45.7876 41.9573C45.9564 41.8862 46.1874 41.6551 46.2585 41.4863C46.3474 41.2819 46.3385 40.9353 46.2319 40.7398C46.1786 40.6332 45.7787 40.1978 45.0855 39.5047L44.0281 38.4383V35.1149L44.0459 31.7914L45.7609 34.1996C46.7028 35.5236 47.5648 36.741 47.6803 36.9099C47.9558 37.3364 48.1424 37.7096 48.2935 38.1717C48.5423 38.9182 48.5512 38.9981 48.5778 41.3974C48.6045 43.7612 48.6045 43.77 48.8444 44.4099C49.1021 45.1207 49.7064 45.9472 50.0885 46.116C50.4084 46.2582 50.8172 46.1782 51.0749 45.9294C51.2437 45.7606 51.3059 45.6184 51.3326 45.3785C51.3592 45.103 51.2793 44.9075 50.986 44.552C50.8527 44.3921 50.6839 44.1433 50.6128 44.0011C50.3817 43.539 50.3729 43.4146 50.3729 41.4419C50.3729 40.4644 50.3551 39.478 50.3373 39.2381C50.2307 38.0562 49.8486 36.9365 49.1999 35.9502C49.0755 35.7547 47.8581 34.0396 46.4985 32.138L44.0281 28.6812L44.0103 27.5704C43.9925 26.5663 43.9837 26.4241 43.9126 26.1664C43.6993 25.4111 43.335 24.8068 42.7574 24.2737C42.1353 23.696 41.4155 23.3761 40.5358 23.2695C40.1537 23.2251 34.7153 23.2251 34.5109 23.2695M23.8741 26.4863C23.6608 26.5663 23.4742 26.7351 23.3676 26.9395L23.2699 27.1172V28.388C23.2699 29.5698 23.2699 29.6676 23.3409 29.8009C23.5098 30.1386 23.7941 30.3163 24.1674 30.3163C24.4339 30.3163 24.6206 30.2363 24.8072 30.0408C25.0382 29.8009 25.0382 29.7653 25.0382 28.3791C25.0382 27.2417 25.0382 27.1084 24.9671 26.9662C24.8871 26.7885 24.7094 26.6018 24.5406 26.513C24.3806 26.433 24.043 26.4152 23.8652 26.4774M34.1733 30.4052C33.3202 30.6006 32.5382 31.2582 32.2094 32.0758C32.0583 32.4401 32.0139 32.7156 32.0139 33.151C32.0139 33.6309 32.0939 33.9596 32.2894 34.3595C32.7603 35.3281 33.7112 35.9146 34.8131 35.9146C35.6128 35.9146 36.1904 35.6747 36.7592 35.106C37.1324 34.7327 37.319 34.4395 37.4789 33.9685C37.5678 33.7108 37.5767 33.622 37.5767 33.1243C37.5767 32.6178 37.5678 32.5378 37.4789 32.2624C37.3368 31.8269 37.1413 31.5159 36.7769 31.1605C36.4215 30.805 36.1105 30.6095 35.675 30.4674C35.4262 30.3874 35.2929 30.3696 34.893 30.3607C34.5731 30.3607 34.3332 30.3607 34.1821 30.3963M27.1798 46.4803C27.1798 47.9999 27.1887 48.0976 27.3931 48.5242C27.5352 48.8174 27.9884 49.2706 28.2906 49.4217C28.7704 49.6616 28.4328 49.6527 34.6887 49.6527C40.2426 49.6527 40.3936 49.6527 40.6691 49.5816C40.829 49.5372 41.0423 49.4572 41.1489 49.4039C41.4066 49.2617 41.8421 48.8263 41.9754 48.5686L42.082 48.3642L41.9132 48.1332C41.6821 47.8222 41.5311 47.5556 41.4244 47.2623C41.2467 46.7914 41.2112 46.5514 41.2112 45.8228V45.1385H35.1241C31.774 45.1385 28.6194 45.1296 28.104 45.1119L27.1798 45.0852V46.4803Z" fill="currentColor"/>
</g>
<defs>
<clipPath id="clip0_2132_41">
<rect width="33.3589" height="33.43" fill="white" transform="translate(18 18)"/>
</clipPath>
</defs>
</svg>
