<svg width="69" height="69" viewBox="0 0 69 69" fill="none" xmlns="http://www.w3.org/2000/svg">
<g clip-path="url(#clip0_2132_7)">
<path fill-rule="evenodd" clip-rule="evenodd" d="M36.2084 18.0089C35.204 18.16 34.2618 18.8978 33.8707 19.8488L33.7729 20.0888L29.5419 20.1066C25.6398 20.1244 25.2843 20.1333 25.0265 20.1955C22.8666 20.7199 21.3289 22.391 21.0356 24.5598C21 24.7909 21 27.8219 21 36.4439V48.0168L21.1156 48.3812C21.5511 49.9634 22.7866 51.1011 24.3777 51.3767C24.6799 51.43 25.9243 51.4389 36.0395 51.43C45.1592 51.43 47.3991 51.4211 47.5058 51.3767C47.9858 51.2078 48.2346 50.6301 48.0302 50.1767C47.9413 49.9723 47.6569 49.7323 47.4525 49.679C47.3636 49.6523 46.9991 49.6345 46.6525 49.6345H46.0125V45.0836H46.2436C47.0525 45.0836 47.8347 44.4614 48.048 43.6436C48.1013 43.4481 48.1013 42.1948 48.1013 32.5951C48.1013 20.6577 48.1191 21.5732 47.8702 21.111C47.648 20.6933 47.1947 20.3199 46.7591 20.1866C46.5369 20.1155 46.4125 20.1155 45.1414 20.1155H43.7637L43.7459 20.0355C43.7015 19.8488 43.3726 19.28 43.1948 19.0844C42.7859 18.6044 42.2704 18.2667 41.7193 18.0978C41.4349 18.0178 41.426 18.0089 38.8839 18.0089C37.4795 18.0089 36.2795 18.0089 36.2173 18.0178M36.2262 19.8666C35.8795 20.0088 35.684 20.2133 35.5329 20.5599L35.444 20.7733V27.1908V33.6084L36.8573 32.204C37.6306 31.4307 38.3239 30.7729 38.395 30.7285C38.4839 30.684 38.6083 30.6663 38.7683 30.6663C38.9283 30.6663 39.0527 30.6929 39.1416 30.7285C39.2127 30.764 39.906 31.4307 40.6793 32.204L42.0926 33.6084V27.1286L42.0749 20.6488L41.986 20.4711C41.8704 20.2399 41.6304 20 41.3993 19.8844L41.2127 19.7866H38.8216L36.4306 19.7689L36.2173 19.8577M25.7554 21.9021C24.4399 22.0443 23.3644 22.9243 22.9288 24.2131L22.8044 24.5687V34.2839L22.7866 43.9992L22.9644 43.8836C23.3644 43.6347 23.8977 43.4481 24.4132 43.3592C24.5465 43.3414 28.7775 43.3236 35.3729 43.3236C42.1104 43.3236 46.1458 43.3058 46.2081 43.2881L46.3058 43.2525V32.5951C46.3058 22.0977 46.3058 21.9377 46.2347 21.9021C46.1903 21.8754 45.737 21.8666 45.0259 21.8666H43.8881V28.9508L43.8703 36.035L43.7548 36.2216C43.6837 36.3372 43.5681 36.4439 43.4615 36.515C43.3015 36.6127 43.2481 36.6305 42.9993 36.6305C42.7948 36.6305 42.6793 36.6127 42.5815 36.5594C42.5104 36.5238 41.6215 35.6617 40.6082 34.6572L38.7683 32.8262L36.9284 34.6572C35.5417 36.0439 35.0529 36.515 34.9195 36.5683C34.5729 36.7194 34.1729 36.6394 33.8973 36.3639C33.6307 36.0883 33.6485 36.6661 33.6485 28.8708V21.8577H29.8353C27.7376 21.8577 25.8976 21.8843 25.7554 21.8932M24.7332 45.128C24.271 45.1902 23.8443 45.3947 23.5066 45.7147C23.0444 46.1591 22.8311 46.6213 22.7955 47.2524C22.7599 47.9724 22.9466 48.4523 23.4355 48.959C23.7732 49.3057 24.1199 49.5012 24.5288 49.5901C24.7332 49.6345 26.2976 49.6434 34.4929 49.6434H44.2081V47.3679V45.0925H34.5818C29.2931 45.0925 24.8488 45.1191 24.7243 45.1369" fill="currentColor"/>
</g>
<defs>
<clipPath id="clip0_2132_7">
<rect width="27.1013" height="33.43" fill="white" transform="translate(21 18)"/>
</clipPath>
</defs>
</svg>
