<?xml version="1.0" encoding="UTF-8"?>
<svg id="Camada_1" xmlns="http://www.w3.org/2000/svg" version="1.1" viewBox="0 0 69 69">
  <!-- Generator: Adobe Illustrator 30.6.0, SVG Export Plug-In . SVG Version: 2.1.4 Build 109)  -->
  <defs>
</defs>
  <path fill="currentColor" fill-rule="evenodd" d="M23.5,18c-.6.1-1.2.4-1.7.9-.4.4-.6.8-.7,1.3v.3c0,0,0,12.1,0,12.1,0,11.6,0,12.1,0,12.4.3,1.1,1.3,2,2.4,2.2.2,0,2.2,0,5.2,0,4.9,0,4.9,0,5.1,0,.4-.2.5-.4.5-.8s-.2-.6-.5-.8h-.2c0,0-5,0-5,0h-5s-.2-.1-.2-.1c-.3-.1-.5-.3-.6-.6v-.2c0,0,0-23.8,0-23.8v-.2c.2,0,.3-.2.3-.3s.2-.2.3-.2h.2c0,0,7.7,0,7.7,0h7.7s.2,0,.2,0c.2,0,.3.2,2.4,2.3,1.8,1.8,2.2,2.2,2.3,2.4v.2c0,0,.1,2,.1,2v2s.1.2.1.2c.3.5,1,.6,1.4.2.3-.3.3-.3.3-2.5v-2.3c-.2-.4-.4-.7-.6-1,0-.1-1.2-1.2-2.4-2.4-2-2-2.2-2.2-2.5-2.4-.3-.2-.7-.3-1-.4-.3,0-15.7,0-15.9,0M32.1,26.5c-.2,0-.4.3-.5.5,0,.1,0,.4,0,5.1v4.9h-2.5v-5.9c-.4-.7-1.4-.6-1.7,0,0,.1,0,.6,0,2.9v2.8h-.7c-.4,0-.7,0-.8,0-.2,0-.5.3-.6.6-.2.4,0,.9.4,1.1h.2c0,0,6.8,0,6.8,0h.2c0-.2.2-.3.3-.3.2-.3.2,0,.2-5.8s0-5.4,0-5.5c0-.5-.6-.9-1.2-.7M36.4,28.6c-.1,0-.4.2-.5.4v.2c-.1,0-.1,2.7-.1,2.7v.2c.4.5,1,.6,1.4.2.3-.3.3-.3.3-1.8s0-1.3,0-1.4c-.1-.2-.3-.4-.5-.4-.1,0-.4,0-.6,0M41.7,31.8c-3.6.5-6.4,3.4-6.9,7,0,.6,0,1.7,0,2.3.5,3.5,3.1,6.3,6.6,7,1.2.2,2.6.2,3.8-.1.9-.2,1.9-.7,2.7-1.3l.3-.2,2.4,2.4c1.6,1.6,2.5,2.4,2.6,2.5.4.2.7.1,1-.2.3-.3.4-.6.2-1,0,0-1-1-2.5-2.5l-2.4-2.4.2-.3c.8-1,1.3-2.2,1.5-3.5,0-.6.1-1.6,0-2.2-.2-2-1.1-3.8-2.5-5.2-1.3-1.2-2.9-2-4.6-2.2-.6,0-1.7,0-2.3,0M42.5,33.5c-2.6.2-4.8,1.8-5.7,4.3-.4,1.2-.5,2.6-.2,3.9.5,1.8,1.7,3.3,3.4,4.1,1.4.7,3,.8,4.5.4,2.8-.7,4.8-3.3,4.8-6.3s-.4-2.7-1.3-3.9c-1.3-1.8-3.4-2.7-5.6-2.6Z"/>
</svg>